<svg version="1.1" id="Layer_1" xmlns="http://www.w3.org/2000/svg" xmlns:xlink="http://www.w3.org/1999/xlink" x="0px" y="0px"
	 width="100%" viewBox="0 0 2091 2091" enable-background="new 0 0 2091 2091" xml:space="preserve">
<path fill="#000000" opacity="1.000000" stroke="none" 
	d="
M1168.000000,2094.000000 
	C778.712952,2094.000000 390.425873,2094.000000 2.069405,2094.000000 
	C2.069405,1396.796021 2.069405,699.592041 2.069405,2.194036 
	C699.120789,2.194036 1396.241699,2.194036 2093.681152,2.194036 
	C2093.681152,699.333191 2093.681152,1396.666626 2093.681152,2094.000000 
	C1785.591187,2094.000000 1477.295532,2094.000000 1168.000000,2094.000000 
z"/>
<path fill="#EA0028" opacity="1.000000" stroke="none" 
	d="
M1631.805664,1637.218140 
	C1615.393921,1623.884644 1599.788086,1610.933960 1584.373413,1597.759888 
	C1511.300903,1535.308838 1438.282104,1472.795044 1365.240723,1410.307373 
	C1295.231323,1350.413574 1225.218140,1290.523804 1155.205688,1230.633423 
	C1122.853149,1202.958252 1090.498047,1175.286377 1058.147949,1147.608398 
	C1057.642456,1147.175903 1057.211304,1146.656616 1056.705566,1146.224365 
	C1049.506714,1140.072754 1049.521240,1140.093628 1042.164185,1146.385010 
	C938.774353,1234.798096 835.352417,1323.173706 731.994629,1411.624268 
	C645.059631,1486.020752 558.198425,1560.503662 471.294617,1634.936646 
	C470.798645,1635.361694 470.161774,1635.622070 468.928284,1636.119141 
	C467.790894,1636.258057 467.316010,1636.237549 466.787720,1635.506104 
	C471.566467,1625.949463 476.398682,1617.103882 481.320862,1607.634033 
	C480.107666,1596.613525 487.500427,1589.777588 492.193176,1581.059937 
	C504.523956,1557.962646 517.768738,1536.219849 530.527222,1513.381592 
	C541.141479,1495.254395 551.439575,1477.772095 561.499268,1460.152222 
	C563.323486,1456.957153 565.113770,1453.788208 568.119141,1450.561523 
	C576.817200,1431.602417 587.855347,1414.778442 598.486694,1396.903931 
	C616.102417,1364.464844 635.858459,1334.048096 652.428101,1300.998291 
	C661.135986,1290.695190 666.074280,1278.936035 672.366943,1268.045532 
	C716.512695,1191.643677 760.782043,1115.312378 804.783264,1038.827881 
	C848.943787,962.066650 893.257935,885.393738 937.476807,808.666504 
	C971.391602,749.818604 1005.191101,690.900696 1039.539917,632.302795 
	C1045.928101,621.404846 1052.952148,621.272827 1059.443970,632.283813 
	C1084.472900,674.736206 1108.852417,717.566467 1133.494141,760.244263 
	C1164.128174,813.300171 1194.838257,866.312134 1225.427612,919.393799 
	C1259.335693,978.234558 1293.359253,1037.008423 1327.300049,1095.830322 
	C1358.251465,1149.471680 1389.154053,1203.141479 1420.275757,1256.684448 
	C1428.131104,1270.199219 1435.517090,1283.984009 1444.194214,1297.849121 
	C1459.146729,1325.860596 1475.530762,1352.236816 1490.765137,1379.267822 
	C1493.362183,1383.875854 1495.588501,1388.664185 1498.590698,1393.857544 
	C1510.718750,1412.003662 1520.488037,1430.682129 1531.167725,1449.625244 
	C1542.902466,1470.740845 1555.930298,1490.335327 1566.958496,1511.888672 
	C1580.022827,1533.909424 1593.226318,1555.027710 1604.841187,1577.879883 
	C1609.368286,1587.413574 1618.203979,1594.171265 1617.513672,1605.981445 
	C1621.066528,1616.539673 1627.971069,1624.667236 1632.268188,1634.951172 
	C1632.480103,1636.268433 1632.589966,1636.883301 1631.805664,1637.218140 
z"/>
<path fill="#767676" opacity="1.000000" stroke="none" 
	d="
M1472.000000,1640.090088 
	C1160.593506,1640.090088 850.187073,1640.090088 538.507751,1640.090088 
	C541.058411,1635.554443 544.287292,1634.345581 546.889221,1632.602295 
	C602.790710,1595.146118 658.755310,1557.784180 714.682068,1520.365723 
	C796.625977,1465.540649 878.556091,1410.694702 960.478699,1355.837646 
	C988.148315,1337.309570 1015.766418,1318.704712 1043.433472,1300.172729 
	C1050.256592,1295.602539 1050.301514,1295.671753 1057.220215,1300.309082 
	C1120.585449,1342.779907 1183.970825,1385.220581 1247.311035,1427.728638 
	C1313.957153,1472.455200 1380.564453,1517.239746 1447.180420,1562.011108 
	C1482.564941,1585.792480 1517.937134,1609.592041 1553.296387,1633.411133 
	C1555.641479,1634.990845 1557.827759,1636.805908 1559.558716,1640.090088 
	C1530.705811,1640.090088 1501.852905,1640.090088 1472.000000,1640.090088 
z"/>
<path fill="#262626" opacity="1.000000" stroke="none" 
	d="
M326.245148,714.704468 
	C331.368530,697.360352 340.395935,682.501038 348.569244,667.270874 
	C365.449219,635.816711 384.725555,605.841370 405.912415,577.107544 
	C423.910828,552.697876 443.243866,529.401733 463.635315,506.937256 
	C479.549530,489.405182 496.560791,473.032898 514.010559,457.094604 
	C554.242554,420.347473 597.985046,388.330353 644.882507,360.613251 
	C682.549744,338.351349 721.858704,319.472076 762.704102,303.812042 
	C813.579712,284.306427 866.005798,270.778229 919.709412,261.466827 
	C978.509155,251.271805 1037.712280,250.063110 1096.965210,252.417877 
	C1137.858398,254.043030 1178.418213,260.225372 1218.511841,269.021088 
	C1269.777710,280.267731 1319.503784,296.137390 1367.635254,317.064697 
	C1419.174805,339.473877 1467.699951,367.170105 1513.289429,399.999084 
	C1542.782959,421.237457 1570.456543,444.606140 1597.041382,469.453186 
	C1649.012329,518.026672 1692.800415,573.153076 1729.954468,633.525024 
	C1749.482788,665.256958 1767.691284,697.877258 1781.366211,733.502014 
	C1778.752686,739.215088 1773.756714,738.383118 1769.294189,738.718628 
	C1765.036499,739.038757 1760.744629,738.938721 1755.787354,740.238098 
	C1747.252930,740.245789 1745.307007,733.826599 1743.036499,728.555542 
	C1731.940186,702.794373 1718.203003,678.453064 1703.856689,654.432434 
	C1676.622437,608.833191 1644.553589,566.986694 1608.602905,527.809998 
	C1566.436890,481.860504 1518.801758,442.625214 1467.145996,408.180115 
	C1404.339600,366.299561 1336.246704,335.521423 1263.750122,314.508270 
	C1213.725220,300.008545 1162.795288,290.768097 1110.847412,286.252258 
	C1090.588623,284.491180 1070.170898,283.506470 1050.106323,283.571686 
	C1013.626099,283.690277 977.036377,285.975006 940.729919,291.313202 
	C883.466614,299.732697 827.916199,314.380127 773.857849,334.870911 
	C701.647461,362.242218 635.650391,400.492615 575.175537,448.432007 
	C549.578430,468.723175 524.751648,489.927917 502.287811,513.625183 
	C465.607452,552.319458 431.726410,593.219116 403.580444,638.802490 
	C389.561768,661.506226 377.068939,684.962341 364.235687,708.278564 
	C361.870361,712.576050 360.261749,717.710571 353.389099,718.372437 
	C343.889923,717.658936 334.755402,721.318176 326.245148,714.704468 
z"/>
<path fill="#383838" opacity="1.000000" stroke="none" 
	d="
M1753.082275,738.770508 
	C1755.986450,734.928894 1759.308472,733.959534 1763.098389,733.989136 
	C1768.652588,734.032471 1774.207153,734.053589 1780.640625,734.139160 
	C1798.129395,772.452026 1811.475830,811.718567 1821.420898,852.320801 
	C1827.605225,877.569031 1832.731934,902.936584 1837.264648,928.477051 
	C1837.612061,930.434326 1837.682007,932.440857 1837.824463,935.263000 
	C1834.022583,941.139832 1828.790039,940.510254 1823.640747,939.594299 
	C1819.480713,938.854370 1815.229736,940.155823 1810.327393,938.512573 
	C1805.364624,935.750427 1804.270142,931.514160 1803.567993,927.253357 
	C1793.599121,866.758545 1776.747070,808.231873 1753.604004,751.480408 
	C1752.038452,747.641418 1749.291382,743.683044 1753.082275,738.770508 
z"/>
<path fill="#515050" opacity="1.000000" stroke="none" 
	d="
M253.406494,1072.755371 
	C252.231766,1049.763306 251.813248,1027.523071 253.379959,1005.221558 
	C254.591904,987.969971 255.783279,970.741943 257.780548,953.561279 
	C260.663940,928.758179 264.812439,904.178833 270.461456,879.040649 
	C279.492889,870.939514 288.745148,875.721741 298.675842,877.880127 
	C303.170258,882.430420 302.060730,887.040894 301.123993,891.628784 
	C290.191956,945.172119 284.279877,999.216919 284.777740,1053.916016 
	C284.825775,1059.193604 285.172516,1064.579956 282.383392,1070.377563 
	C272.879456,1075.880737 263.557190,1075.789917 253.406494,1072.755371 
z"/>
<path fill="#7F7F7F" opacity="1.000000" stroke="none" 
	d="
M496.369171,1581.197510 
	C492.363068,1590.335938 487.652313,1598.279907 481.971863,1606.500244 
	C467.610229,1593.657593 454.851105,1579.345337 442.413025,1564.735474 
	C414.209564,1531.607422 388.778900,1496.488770 366.305786,1458.425293 
	C363.855377,1452.204834 367.605133,1450.675293 371.722229,1449.957397 
	C378.250488,1448.818970 384.826294,1448.920288 392.145569,1450.621094 
	C398.305786,1450.538574 401.423767,1453.687744 404.122040,1457.794922 
	C430.242371,1497.553467 459.235779,1535.082031 491.632294,1569.939331 
	C494.496399,1573.020996 496.380096,1576.259033 496.369171,1581.197510 
z"/>
<path fill="#383838" opacity="1.000000" stroke="none" 
	d="
M298.625916,880.031982 
	C289.226013,880.428711 280.705170,879.753418 271.448303,878.263367 
	C273.606293,859.162354 278.846924,840.558228 284.329834,822.124390 
	C295.236969,785.453674 308.571472,749.619263 325.435272,714.456787 
	C334.808685,714.637024 343.923248,712.606506 353.499786,715.771851 
	C358.908264,720.258240 356.605255,724.870605 354.718353,728.929138 
	C341.690613,756.951050 331.196167,785.957825 320.779755,815.002991 
	C314.616180,832.189514 311.277527,850.124207 306.567993,867.695557 
	C305.328705,872.319214 305.087341,877.814514 298.625916,880.031982 
z"/>
<path fill="#7F7F7F" opacity="1.000000" stroke="none" 
	d="
M1617.969971,1606.258301 
	C1611.252686,1599.283325 1607.360596,1590.518677 1602.324219,1581.722900 
	C1602.298706,1568.858765 1612.833008,1563.119385 1619.472046,1555.521118 
	C1641.328003,1530.507446 1661.603760,1504.350464 1680.751221,1477.261597 
	C1683.582275,1473.256470 1685.723511,1468.502319 1691.886230,1467.052490 
	C1698.598633,1467.206055 1704.604370,1467.136719 1710.406860,1468.311279 
	C1714.374878,1469.114624 1719.272827,1469.340088 1720.376465,1475.541260 
	C1709.914551,1494.559204 1697.547485,1511.389282 1684.986572,1528.041748 
	C1666.420898,1552.655029 1646.819458,1576.424194 1625.035156,1598.315430 
	C1622.709717,1600.652100 1620.713623,1603.316528 1617.969971,1606.258301 
z"/>
<path fill="#767676" opacity="1.000000" stroke="none" 
	d="
M396.207581,1453.545654 
	C389.055786,1454.027344 382.509796,1453.953491 375.965637,1454.032471 
	C372.761993,1454.071045 369.311066,1453.473999 366.481873,1457.122803 
	C352.474243,1437.043335 341.199219,1415.027344 330.475342,1392.739502 
	C324.611328,1380.552002 319.510529,1367.997192 313.995483,1354.881348 
	C311.597351,1347.773804 314.804962,1344.896606 320.600372,1343.881714 
	C326.195404,1342.901733 331.754272,1343.652954 338.093201,1344.809814 
	C344.498199,1345.168335 346.690918,1349.142578 348.778503,1353.528809 
	C363.211731,1383.854004 377.491974,1414.260010 395.463257,1442.741455 
	C397.401306,1445.812744 399.028625,1449.272339 396.207581,1453.545654 
z"/>
<path fill="#6C6C6C" opacity="1.000000" stroke="none" 
	d="
M1808.481445,1287.318237 
	C1806.078613,1300.674194 1800.802124,1312.134644 1796.542603,1323.877808 
	C1789.001343,1344.668457 1780.667969,1365.161743 1770.473755,1385.539795 
	C1760.985962,1392.133057 1751.625244,1388.425659 1741.579468,1386.756592 
	C1736.711060,1383.434814 1737.249146,1379.537231 1739.000366,1375.747437 
	C1752.038818,1347.531616 1763.453369,1318.656982 1774.271118,1289.534180 
	C1775.196045,1287.044189 1776.661987,1284.799805 1780.160645,1283.424805 
	C1787.311401,1280.289185 1793.806519,1278.656860 1800.820923,1279.675781 
	C1804.989502,1280.281372 1808.519043,1281.418579 1808.481445,1287.318237 
z"/>
<path fill="#515050" opacity="1.000000" stroke="none" 
	d="
M1809.369629,936.570312 
	C1818.815796,931.867188 1827.452515,936.144531 1836.924927,936.068604 
	C1842.874390,970.621094 1846.095337,1005.280823 1845.332275,1041.149170 
	C1837.066772,1049.664429 1827.907471,1046.604736 1817.986816,1044.261475 
	C1814.055542,1041.589844 1813.650757,1038.217163 1813.524536,1034.884766 
	C1812.390015,1004.945740 1809.858398,975.120911 1806.325073,945.377136 
	C1805.953857,942.251953 1806.182861,939.400940 1809.369629,936.570312 
z"/>
<path fill="#7A7979" opacity="1.000000" stroke="none" 
	d="
M1740.203369,1384.066650 
	C1750.109619,1384.046631 1759.305298,1383.349976 1769.117920,1385.922363 
	C1766.245728,1394.827393 1762.429565,1403.432007 1756.761719,1411.421753 
	C1750.328857,1420.490356 1748.010010,1431.937256 1741.946411,1441.464722 
	C1734.821289,1452.660034 1728.143433,1464.140137 1720.733154,1475.914551 
	C1715.917847,1473.346069 1710.834717,1472.543213 1706.010864,1472.868652 
	C1701.415649,1473.178711 1697.613037,1471.619385 1692.878052,1470.191162 
	C1688.847778,1466.209961 1690.640747,1462.742798 1692.829102,1459.196411 
	C1706.902344,1436.391113 1720.220459,1413.149170 1732.965210,1389.577148 
	C1734.407227,1386.910156 1735.973999,1384.367920 1740.203369,1384.066650 
z"/>
<path fill="#6C6C6C" opacity="1.000000" stroke="none" 
	d="
M340.876709,1347.415771 
	C335.639282,1349.519409 331.047150,1348.439087 326.418732,1348.182861 
	C321.901062,1347.932861 316.824097,1347.038574 314.179810,1353.445679 
	C307.302826,1342.593994 303.766144,1329.777588 299.112152,1317.427124 
	C292.477661,1299.820801 286.441315,1282.003906 281.990540,1262.902100 
	C279.922333,1256.059570 284.086517,1254.521118 288.493805,1253.811157 
	C293.991699,1252.925171 299.594727,1252.768799 306.031982,1252.876831 
	C311.873199,1253.931763 313.784485,1257.637207 315.247131,1261.885132 
	C323.743500,1286.560913 331.612152,1311.458252 341.373291,1335.688843 
	C342.834259,1339.315308 344.640686,1343.126953 340.876709,1347.415771 
z"/>
<path fill="#626161" opacity="1.000000" stroke="none" 
	d="
M308.754242,1255.569336 
	C302.978485,1257.393066 297.862335,1258.137329 292.585083,1258.053223 
	C289.099121,1257.997559 285.274384,1257.306152 282.320312,1261.464111 
	C275.518951,1244.394531 272.339325,1225.849121 268.277313,1207.528076 
	C267.279022,1203.025391 266.644501,1198.442139 265.886414,1193.069336 
	C265.701355,1191.966553 265.472534,1191.690186 265.220612,1190.875977 
	C264.736511,1187.552490 264.275513,1184.766724 263.866577,1181.130859 
	C263.688812,1179.980225 263.458954,1179.679688 263.143494,1178.818359 
	C262.645691,1175.454346 262.233490,1172.651367 261.872894,1168.996948 
	C259.817505,1161.211914 264.513855,1160.230469 269.459778,1159.739624 
	C274.454773,1159.243774 279.407257,1160.577393 285.255310,1160.596313 
	C286.667297,1160.920654 287.235321,1161.046631 288.647247,1161.422119 
	C290.554901,1162.180664 291.493805,1162.861206 292.804260,1164.415894 
	C295.107117,1171.442139 295.856842,1177.988403 297.490784,1185.182739 
	C297.923340,1187.037598 298.168823,1188.099854 298.570679,1189.969971 
	C302.072113,1208.339722 305.880646,1225.797485 310.519012,1243.066772 
	C311.639893,1247.239990 313.240295,1251.412231 308.754242,1255.569336 
z"/>
<path fill="#5A5959" opacity="1.000000" stroke="none" 
	d="
M288.843445,1163.514893 
	C283.259155,1165.438965 278.533020,1165.814819 273.514984,1164.583374 
	C269.793518,1163.669922 265.610382,1162.975220 262.286987,1167.493408 
	C258.350159,1157.724487 258.315094,1146.743164 256.993530,1135.984253 
	C254.457382,1115.337891 253.336990,1094.570801 252.641510,1072.916382 
	C261.000854,1068.909546 269.598633,1070.305542 278.968506,1070.014160 
	C286.040619,1073.071411 283.936523,1079.336426 285.558411,1085.098877 
	C285.938843,1087.157471 286.148438,1088.337280 286.461060,1090.415527 
	C286.706635,1110.948975 289.528076,1130.352783 291.621887,1149.819946 
	C292.114471,1154.399780 293.321198,1159.103516 288.843445,1163.514893 
z"/>
<path fill="#666666" opacity="1.000000" stroke="none" 
	d="
M1808.518799,1287.591431 
	C1806.501587,1284.470093 1803.262207,1284.232666 1799.819336,1283.975830 
	C1793.749146,1283.523193 1787.978027,1285.302612 1781.241699,1285.994385 
	C1774.626587,1282.152466 1777.718384,1277.114258 1779.064087,1272.703857 
	C1785.226440,1252.509155 1790.741455,1232.154541 1795.358032,1210.687256 
	C1795.751831,1208.724731 1796.026733,1207.599854 1796.583984,1205.613281 
	C1797.872681,1201.106689 1798.598511,1197.278320 1803.566895,1195.264526 
	C1810.326782,1193.184204 1816.274780,1193.077515 1822.275635,1193.645996 
	C1826.524414,1194.048462 1830.180908,1195.213013 1830.441650,1201.173462 
	C1829.821655,1204.346924 1829.602905,1206.606445 1829.054688,1209.654785 
	C1828.725220,1210.443726 1828.734863,1211.438354 1828.385986,1211.792847 
	C1827.325806,1223.124268 1823.853516,1233.535522 1821.272583,1244.107422 
	C1817.744751,1258.558228 1814.024170,1272.978394 1808.518799,1287.591431 
z"/>
<path fill="#5A5959" opacity="1.000000" stroke="none" 
	d="
M1817.920654,1042.449707 
	C1827.026001,1042.055176 1835.230103,1042.061035 1844.297852,1042.070801 
	C1846.534424,1067.274780 1845.111816,1092.381104 1842.646851,1117.453369 
	C1842.355103,1120.421021 1842.137085,1123.396118 1841.611572,1127.207764 
	C1833.068115,1135.657104 1823.809937,1132.688599 1813.745728,1130.056274 
	C1809.990601,1127.156006 1809.580322,1123.785278 1809.811401,1120.456055 
	C1811.422485,1097.256348 1813.355347,1074.077759 1813.603638,1050.801758 
	C1813.635620,1047.799805 1814.283081,1044.811768 1817.920654,1042.449707 
z"/>
<path fill="#626161" opacity="1.000000" stroke="none" 
	d="
M1813.335693,1128.343994 
	C1822.650269,1128.029175 1831.112061,1128.038574 1840.456299,1128.047852 
	C1840.660645,1135.589600 1839.982666,1143.131226 1839.007812,1151.539062 
	C1838.725098,1152.741943 1838.739502,1153.078369 1838.395630,1153.771118 
	C1837.880249,1157.463379 1837.723145,1160.799561 1837.472412,1164.966919 
	C1837.236450,1166.228638 1837.094116,1166.659180 1836.655273,1167.701904 
	C1835.334961,1179.278076 1833.355103,1190.081177 1830.462280,1201.444580 
	C1828.415405,1198.397217 1825.165527,1198.036987 1821.738892,1198.032593 
	C1816.447876,1198.025879 1811.156982,1198.015137 1804.944702,1198.005371 
	C1799.791748,1195.606445 1799.481445,1191.649292 1800.222290,1187.562988 
	C1803.247803,1170.870850 1805.848389,1154.119629 1807.939941,1137.283447 
	C1808.350342,1133.981445 1809.671143,1130.854248 1813.335693,1128.343994 
z"/>
<path fill="#EA0028" opacity="1.000000" stroke="none" 
	d="
M1632.004517,1635.973511 
	C1634.064941,1636.298584 1635.345459,1637.930908 1634.402710,1639.198242 
	C1633.543091,1640.353882 1632.249878,1638.616089 1631.137939,1637.329224 
	C1630.911621,1636.938232 1631.638794,1636.293579 1632.004517,1635.973511 
z"/>
<path fill="#EA0028" opacity="1.000000" stroke="none" 
	d="
M466.212952,1637.605469 
	C465.355865,1636.563599 465.616455,1635.981567 466.394196,1635.136963 
	C466.994324,1635.037354 467.254456,1635.279541 467.890198,1635.900146 
	C467.895020,1636.847778 467.524261,1637.416870 466.212952,1637.605469 
z"/>
<path fill="#626161" opacity="1.000000" stroke="none" 
	d="
M1828.284424,1211.924561 
	C1828.132202,1211.744141 1828.268799,1211.355469 1828.586182,1210.712646 
	C1828.886841,1210.897827 1828.822266,1211.317261 1828.284424,1211.924561 
z"/>
<path fill="#EA0028" opacity="1.000000" stroke="none" 
	d="
M465.899841,1637.894043 
	C465.948029,1638.851562 465.778320,1639.677368 464.771027,1639.297363 
	C464.554291,1639.215698 464.612793,1638.403931 464.908478,1637.576660 
	C465.272430,1637.224854 465.691284,1637.670410 465.899841,1637.894043 
z"/>
<path fill="#5A5959" opacity="1.000000" stroke="none" 
	d="
M1838.282227,1153.899902 
	C1838.108032,1153.713867 1838.234741,1153.318604 1838.564209,1152.673340 
	C1838.874023,1152.860107 1838.812866,1153.282471 1838.282227,1153.899902 
z"/>
<path fill="#383838" opacity="1.000000" stroke="none" 
	d="
M1836.671753,1167.960938 
	C1836.294800,1167.666260 1836.432861,1167.065186 1837.075684,1166.154297 
	C1837.477295,1166.451538 1837.346069,1167.054932 1836.671753,1167.960938 
z"/>
<path fill="#5A5959" opacity="1.000000" stroke="none" 
	d="
M263.047058,1178.643921 
	C263.349762,1178.657471 263.576294,1179.091797 263.828064,1179.920410 
	C263.478363,1179.967041 263.184204,1179.550293 263.047058,1178.643921 
z"/>
<path fill="#5A5959" opacity="1.000000" stroke="none" 
	d="
M265.180115,1190.695435 
	C265.448547,1190.721436 265.642487,1191.131714 265.854736,1191.906006 
	C265.529175,1191.939697 265.273376,1191.542847 265.180115,1190.695435 
z"/>
<path fill="#010000" opacity="1.000000" stroke="none" 
	d="
M1441.642822,1301.461914 
	C1429.109375,1281.351685 1417.264038,1261.304321 1405.616089,1241.142700 
	C1341.010742,1129.317627 1276.442749,1017.470825 1211.883301,905.619324 
	C1159.637573,815.101685 1107.431763,724.561096 1055.143921,634.067810 
	C1053.684692,631.542358 1052.697144,628.525635 1049.641357,626.841736 
	C1047.037476,627.240845 1046.566895,629.715393 1045.486572,631.587524 
	C984.253723,737.689636 923.044922,843.805542 861.793030,949.896545 
	C794.882935,1065.787964 727.935242,1181.657715 660.981934,1297.524292 
	C660.155762,1298.954102 659.039124,1300.216064 657.579590,1301.994629 
	C653.239624,1302.914062 650.620789,1300.788574 648.923279,1297.820923 
	C642.996704,1287.459839 635.602295,1277.908936 631.179565,1265.844604 
	C619.979004,1246.281006 610.887390,1226.633423 604.791016,1204.851074 
	C596.477417,1183.649292 589.726013,1162.813965 587.054565,1140.075439 
	C586.158936,1137.430664 585.337158,1135.569458 584.733093,1132.852173 
	C584.231323,1131.182617 583.983582,1130.218872 583.639038,1128.512451 
	C583.159668,1125.313721 583.061218,1122.812622 582.268616,1119.633667 
	C581.865784,1117.847900 581.677185,1116.807129 581.426758,1114.940796 
	C579.701294,1101.093140 578.922241,1087.996826 578.199341,1074.005859 
	C576.885498,1051.031128 575.573975,1028.947632 579.651489,1006.085876 
	C580.343384,985.000854 583.611450,965.219238 589.143250,944.955933 
	C593.176392,920.979980 601.004517,899.005127 609.671387,876.487549 
	C625.975952,834.463684 647.159607,796.053040 674.912415,761.389771 
	C676.561462,759.330078 678.674011,757.636292 679.717834,754.294189 
	C710.608582,716.902893 744.924316,684.199768 784.479126,657.087463 
	C790.741760,652.794678 798.526184,650.874084 804.175903,644.321533 
	C838.509460,622.576843 875.294617,608.197327 913.030457,595.992859 
	C926.946411,591.492249 941.384033,588.891846 956.139832,584.469238 
	C958.959900,583.816650 961.046387,583.518616 963.954529,583.286743 
	C988.044739,579.616760 1011.517761,579.414001 1035.014648,578.788696 
	C1079.845581,577.595581 1124.227173,579.352844 1167.873169,591.230530 
	C1232.019653,608.687195 1290.594360,636.985229 1342.545532,678.660400 
	C1344.365479,680.120422 1346.205933,681.547974 1348.777588,683.294678 
	C1353.041992,691.397217 1361.443970,693.610718 1367.002319,699.174316 
	C1385.583374,717.772827 1404.250366,736.261902 1420.769531,757.713135 
	C1427.195435,767.299561 1434.407349,775.391357 1440.279053,784.521362 
	C1450.114014,799.814392 1459.916260,815.105530 1468.314331,832.083496 
	C1488.129883,868.650391 1500.301758,907.229431 1510.619751,947.334229 
	C1511.073120,948.580383 1511.223755,949.093201 1511.395264,950.411133 
	C1510.993774,952.859192 1511.365479,954.439148 1512.078247,956.810730 
	C1514.461914,974.099121 1519.053467,990.288879 1518.423706,1008.008667 
	C1522.519165,1030.258545 1521.007202,1051.746582 1519.864990,1074.111328 
	C1519.099243,1095.112427 1516.645020,1115.020630 1512.761841,1135.605713 
	C1512.485107,1137.518799 1512.251587,1138.588135 1511.674438,1140.391724 
	C1510.574341,1142.489014 1509.986938,1143.922363 1509.755371,1146.272705 
	C1508.811890,1157.158691 1505.809082,1166.797729 1502.838623,1177.209961 
	C1502.459106,1178.901489 1502.203247,1179.854370 1501.696045,1181.493896 
	C1499.238525,1189.010620 1496.700806,1195.735352 1494.713135,1203.392578 
	C1494.317383,1205.035400 1494.053467,1205.966309 1493.475342,1207.559570 
	C1492.677246,1209.060059 1492.165405,1209.887939 1491.302368,1211.355713 
	C1483.242676,1234.458008 1473.290283,1255.898804 1461.159912,1277.162354 
	C1456.975464,1283.067261 1454.847290,1289.269897 1451.116455,1294.585449 
	C1448.863892,1297.794800 1447.005371,1301.293701 1441.642822,1301.461914 
z"/>
<path fill="#010101" opacity="1.000000" stroke="none" 
	d="
M1814.146729,1127.145874 
	C1810.752686,1150.786133 1807.317139,1173.552368 1803.952393,1197.161621 
	C1802.254517,1200.488770 1802.183594,1203.416992 1801.890869,1207.007324 
	C1801.683838,1208.048218 1801.445557,1208.360718 1801.044312,1209.239380 
	C1795.227539,1235.021118 1788.600098,1259.972046 1780.501709,1285.286743 
	C1769.226074,1319.013062 1756.258789,1351.281006 1741.125244,1383.392456 
	C1725.887207,1412.881104 1710.521118,1441.548828 1692.348999,1469.364990 
	C1678.977295,1488.225830 1666.357056,1506.858032 1652.292969,1524.432007 
	C1636.794189,1543.798828 1620.753296,1562.690796 1602.749512,1580.763550 
	C1589.430176,1559.179199 1576.733765,1537.243896 1563.907471,1514.600830 
	C1565.300903,1502.005981 1574.744995,1495.265747 1581.610229,1486.974609 
	C1604.119019,1459.791138 1624.044556,1430.838623 1642.280762,1399.823608 
	C1663.409790,1366.130981 1679.421997,1330.748779 1693.585327,1294.475464 
	C1702.055908,1272.781250 1709.267822,1250.670288 1715.072632,1227.355591 
	C1715.416992,1225.708984 1715.649170,1224.781738 1716.092529,1223.181885 
	C1716.695190,1221.162109 1717.069458,1219.809570 1717.546387,1217.749512 
	C1718.001099,1216.133179 1718.377930,1215.246338 1719.244629,1213.767578 
	C1720.221191,1211.685181 1720.413208,1210.153687 1720.656982,1207.790771 
	C1727.603882,1175.074585 1733.389282,1142.995361 1736.128174,1110.463013 
	C1738.946411,1076.988647 1740.332397,1043.537354 1737.861206,1009.874512 
	C1735.519531,977.975525 1732.052734,946.309143 1725.973877,914.065186 
	C1725.657349,912.141907 1725.509521,911.048889 1725.210693,909.171692 
	C1724.726685,907.385925 1724.351807,906.402161 1723.631348,904.717285 
	C1716.329590,870.526489 1705.181030,838.251709 1694.776611,805.774292 
	C1687.682617,783.630432 1677.757446,762.634338 1667.134766,741.157104 
	C1666.227051,735.964172 1662.987549,732.835449 1660.575684,728.471069 
	C1660.008179,724.880188 1657.718018,723.087097 1655.959229,720.181396 
	C1633.146240,677.993958 1606.829590,639.028992 1576.591553,602.696777 
	C1561.694580,584.797424 1545.188110,568.446960 1528.479370,552.305176 
	C1524.017944,547.994995 1521.631714,541.519775 1514.589355,538.805481 
	C1501.544434,525.768616 1487.738159,514.728088 1473.696045,504.090973 
	C1434.912354,474.711609 1394.681519,447.566742 1350.505859,426.698669 
	C1284.681885,395.604126 1215.941650,374.674103 1143.745850,364.341919 
	C1097.288940,357.693298 1050.642212,356.906281 1004.195190,359.387299 
	C924.042786,363.668732 846.971924,383.017242 773.218018,414.930786 
	C710.386719,442.118103 653.266174,478.479187 600.667480,523.384644 
	C597.020020,526.828796 592.268066,527.595825 589.482422,532.123657 
	C588.099182,533.015442 587.292725,533.504272 586.020996,534.556885 
	C572.269409,550.389160 556.925964,563.695740 543.142944,578.503357 
	C504.774323,619.724304 472.011475,665.024292 444.811096,715.195923 
	C444.086975,716.757751 443.650208,717.648804 442.718262,719.133972 
	C441.851166,720.066589 441.455963,720.393738 440.496338,721.248169 
	C427.636444,747.123108 415.614197,772.602844 405.397797,798.871521 
	C383.719299,854.611755 370.078369,912.346008 363.066589,971.690613 
	C362.754425,974.332520 362.790680,977.000977 362.553528,980.448120 
	C362.349915,982.302979 362.155243,983.353760 361.674927,985.170593 
	C360.676270,988.007263 360.153778,990.115112 360.233215,993.187744 
	C360.863220,1013.615906 358.331268,1033.084473 358.699646,1052.692383 
	C359.600098,1100.625000 364.785187,1148.005493 374.885071,1194.856079 
	C375.795380,1199.078857 376.806458,1203.272217 377.167053,1208.421143 
	C394.480621,1273.805298 417.611847,1335.986206 451.762360,1393.703003 
	C454.147766,1397.734497 456.220612,1401.869751 458.465088,1406.767334 
	C475.867188,1431.000122 491.026215,1455.909058 509.434082,1478.539673 
	C515.700195,1486.243164 522.699707,1493.293335 528.739441,1501.187866 
	C531.616455,1504.948608 534.283508,1508.615601 534.316589,1514.304932 
	C530.551514,1525.574463 523.749451,1534.547119 518.422729,1544.318726 
	C511.663452,1556.718384 504.321686,1568.800537 496.743835,1581.472656 
	C472.958496,1558.557617 452.057465,1533.145142 432.231964,1506.817749 
	C419.614380,1490.062012 407.842651,1472.721558 396.075836,1454.544800 
	C383.423859,1431.955322 369.990906,1410.558716 359.248627,1387.692017 
	C353.183838,1374.782349 347.219604,1361.825562 340.714355,1348.407715 
	C337.347351,1336.668213 331.823517,1326.402466 328.086060,1315.468262 
	C321.477692,1296.135254 314.222534,1277.017090 308.400330,1256.647461 
	C306.225311,1242.582520 301.350464,1229.889526 298.828430,1216.639771 
	C297.227905,1208.231323 295.340881,1199.877441 293.409546,1190.676270 
	C293.088531,1189.458740 292.940216,1189.063965 292.460907,1188.129883 
	C292.322327,1180.646362 289.942596,1174.057251 288.986176,1166.402588 
	C288.654938,1165.579346 288.765900,1164.598267 288.399353,1164.267456 
	C288.032806,1163.936646 287.994659,1163.975830 288.021851,1163.970215 
	C286.492096,1148.526489 285.200836,1133.055298 283.273743,1117.663452 
	C282.201569,1109.100098 281.835266,1100.546509 281.551849,1091.037720 
	C281.328491,1089.514648 281.041748,1088.964233 280.523682,1088.017578 
	C280.295685,1082.303467 280.198181,1077.037964 279.988525,1070.895020 
	C281.105591,1058.722778 279.838501,1047.409424 279.987122,1036.099121 
	C280.671814,983.992065 287.089111,932.608948 297.776245,880.871155 
	C302.413696,867.196655 305.357178,853.863220 307.980438,840.528748 
	C309.845123,831.050415 313.358154,822.169922 316.328918,813.149841 
	C327.040527,780.626038 340.019653,748.946594 354.014282,716.910217 
	C363.154419,699.861877 372.131256,683.531250 381.025269,667.155640 
	C393.276855,644.598206 407.510040,623.315063 422.211151,602.306885 
	C449.223297,563.705933 479.886139,528.175476 513.747742,495.547180 
	C559.734802,451.235016 610.350159,412.951324 665.748169,380.914001 
	C732.955872,342.047028 804.671997,314.956604 880.052368,297.353302 
	C907.271912,290.996857 934.934143,286.736328 962.781311,283.735870 
	C985.641235,281.272827 1008.535522,280.391754 1031.492798,279.464081 
	C1065.162109,278.103485 1098.531860,280.394196 1131.967651,283.507782 
	C1173.566406,287.381470 1214.401367,295.452972 1254.536865,306.581177 
	C1291.781250,316.907837 1328.196899,329.873810 1363.541748,345.765625 
	C1402.853271,363.440979 1440.424072,384.206604 1476.131104,408.260925 
	C1509.870117,430.989502 1541.388184,456.499725 1571.562134,483.882568 
	C1605.013672,514.240112 1634.657593,547.924072 1662.070801,583.537231 
	C1685.845825,614.423706 1706.566406,647.442505 1725.215210,681.786377 
	C1735.087402,699.967346 1743.099365,719.001221 1753.267334,737.734009 
	C1759.675171,753.774475 1765.783325,769.241516 1771.544067,784.836853 
	C1788.198486,829.923645 1799.886841,876.319946 1807.783691,923.700073 
	C1808.384644,927.306396 1809.094360,930.894592 1809.973633,935.285522 
	C1813.720093,960.724915 1815.489136,985.544434 1817.528442,1010.335999 
	C1818.345825,1020.273193 1816.887939,1030.284058 1818.613159,1041.127319 
	C1817.656006,1070.146118 1817.187866,1098.282104 1814.146729,1127.145874 
z"/>
<path fill="#010101" opacity="1.000000" stroke="none" 
	d="
M602.422424,1397.024170 
	C593.254944,1416.420044 581.822388,1433.783813 571.297363,1452.572510 
	C565.989014,1454.750977 563.388306,1451.325684 560.871887,1448.330200 
	C549.162354,1434.391357 537.112671,1420.690063 528.722351,1404.313232 
	C527.522095,1401.970459 526.231995,1399.596313 523.351685,1397.569824 
	C500.638336,1364.981445 482.543457,1330.700562 467.414551,1294.815796 
	C455.535583,1266.639648 445.366669,1237.881226 437.736237,1207.384521 
	C427.571350,1170.963013 421.949066,1134.618286 419.082245,1097.778198 
	C417.845032,1081.879517 417.109589,1066.002563 417.045868,1050.049805 
	C416.968872,1030.765503 417.455139,1011.554749 420.018951,991.566956 
	C420.565704,975.297729 423.286621,960.139038 425.299438,944.055786 
	C425.505585,942.131592 425.688629,941.049805 426.085693,939.191406 
	C438.274078,873.516846 459.287201,811.725098 489.931702,753.231628 
	C495.166809,743.239075 500.817627,733.521912 507.449554,723.532776 
	C522.665894,692.399902 544.210205,666.536011 565.942993,641.004517 
	C595.110840,606.738342 627.290100,575.418091 662.850647,547.673157 
	C669.560364,542.438171 678.295837,539.808655 683.690002,531.634827 
	C736.985474,494.790588 793.422668,465.899658 854.466858,446.363800 
	C898.688293,432.211761 943.927856,423.154938 990.233459,418.813721 
	C1009.813965,416.978027 1029.552246,415.680634 1048.966064,415.891663 
	C1093.854248,416.379517 1138.618530,420.280823 1182.717163,430.002014 
	C1263.383057,447.784241 1337.943237,479.492706 1406.106567,526.201660 
	C1412.978149,530.910400 1419.368774,536.269470 1426.990479,541.242310 
	C1438.457153,551.938477 1450.964233,560.139404 1462.114868,570.086487 
	C1499.737915,603.648560 1534.037964,640.125732 1563.376587,681.205688 
	C1575.560059,698.265259 1587.111938,715.699280 1597.425537,734.821228 
	C1627.621704,786.528992 1648.818970,841.049011 1663.145630,898.328491 
	C1664.113647,902.199219 1665.052490,906.060364 1665.365479,910.889771 
	C1673.075073,938.052124 1675.580444,965.227722 1678.678955,992.297607 
	C1681.522583,1017.141846 1681.416016,1042.119263 1680.707397,1067.032715 
	C1679.437134,1111.689331 1673.537720,1155.797974 1662.775513,1199.207275 
	C1662.132568,1201.800781 1661.247314,1204.302612 1659.911377,1207.525391 
	C1652.398804,1239.408691 1641.673096,1269.328491 1629.107666,1298.624512 
	C1619.556519,1320.892578 1608.495117,1342.408325 1596.429688,1364.255249 
	C1592.791504,1369.462402 1587.947998,1372.970581 1586.577637,1379.607422 
	C1584.626221,1384.199219 1581.910034,1387.552612 1579.425049,1391.874023 
	C1567.959229,1408.998657 1556.180176,1425.018188 1543.912842,1440.661743 
	C1539.972290,1445.687012 1536.738647,1452.041504 1528.465698,1452.374023 
	C1516.574219,1434.410645 1506.591797,1416.057129 1496.161377,1397.216309 
	C1495.348877,1389.648804 1499.316162,1384.637085 1503.122314,1379.638062 
	C1526.302368,1349.191162 1544.138428,1315.539795 1562.002563,1281.112793 
	C1571.239136,1259.046143 1578.653320,1237.041382 1587.352295,1214.749268 
	C1587.531006,1213.512695 1587.586670,1213.013062 1587.731689,1211.758667 
	C1587.989624,1209.989136 1588.225952,1208.990601 1588.756226,1207.256836 
	C1594.597046,1187.035400 1598.930176,1167.261475 1603.242432,1146.629395 
	C1607.360596,1122.956787 1609.593994,1099.881592 1611.765381,1075.903320 
	C1610.759155,1054.696655 1610.865967,1034.385010 1611.744385,1013.186218 
	C1611.898560,1009.988037 1612.406494,1007.658936 1611.235840,1004.616089 
	C1610.377686,1002.832764 1610.031494,1001.767090 1609.682495,999.837646 
	C1609.519653,984.768860 1606.149780,970.883423 1604.866333,955.975342 
	C1604.393066,952.118164 1603.288574,949.201233 1602.675049,945.415894 
	C1602.255859,943.735535 1602.031494,942.777039 1601.673340,941.105225 
	C1601.194214,938.509338 1601.036255,936.593811 1600.368286,934.034790 
	C1599.955200,932.385620 1599.738647,931.432617 1599.395874,929.742249 
	C1592.456177,895.473511 1581.402100,863.244324 1568.930664,830.685669 
	C1562.657837,822.187561 1560.453979,812.623474 1556.457275,803.890259 
	C1549.119995,787.856873 1540.090698,772.713379 1531.401123,756.597290 
	C1515.353149,735.756897 1504.080444,712.390076 1486.420776,693.570251 
	C1485.053467,692.113037 1483.748413,690.601807 1481.848145,688.682312 
	C1480.539551,685.983032 1479.879517,683.826904 1477.858887,682.278809 
	C1468.848267,675.375000 1461.481079,667.139954 1455.075562,657.599731 
	C1448.025024,647.098450 1437.778687,639.169617 1427.767456,631.561218 
	C1404.569946,613.931458 1384.635986,592.101135 1358.216064,577.469116 
	C1331.737915,562.405334 1307.328613,544.942810 1278.989868,534.891235 
	C1271.759644,532.326782 1264.902954,528.950989 1257.158691,525.912720 
	C1255.373169,525.078369 1254.183960,524.572998 1252.340942,524.045776 
	C1251.353394,523.754456 1250.967529,523.613708 1250.029419,523.213379 
	C1248.371582,522.432312 1247.263428,521.916199 1245.532104,521.251587 
	C1240.382935,519.460938 1235.711670,518.172241 1230.921875,515.403564 
	C1228.554199,514.695984 1226.803955,514.243652 1224.360596,513.638306 
	C1215.022583,511.637573 1206.877075,508.083008 1197.610352,505.850037 
	C1195.250000,504.973541 1193.551147,504.345917 1191.106934,503.908691 
	C1190.045654,503.661316 1189.630127,503.540894 1188.626343,503.179779 
	C1186.589966,502.239838 1185.111084,501.624512 1182.929199,501.195984 
	C1181.927734,501.025635 1181.527832,500.944977 1180.535889,500.711090 
	C1178.453857,500.004578 1176.956665,499.476562 1174.760742,499.166687 
	C1173.732422,499.034576 1173.320557,498.966461 1172.298340,498.752167 
	C1169.765869,497.909149 1167.830078,497.266449 1165.126587,497.079163 
	C1164.046875,497.006927 1163.612549,496.961334 1162.531738,496.791016 
	C1159.818359,496.031281 1157.732422,495.493927 1154.861816,495.409729 
	C1153.698364,495.351288 1153.228882,495.296539 1152.064453,495.077393 
	C1148.497437,494.134613 1145.484009,494.238525 1141.828369,493.285034 
	C1099.245239,485.710083 1057.253906,483.079468 1014.797241,486.101410 
	C976.775146,488.807709 939.383240,494.560425 902.608826,504.518768 
	C896.812561,506.088318 891.087585,507.841583 884.671082,510.082397 
	C881.630615,511.379700 879.233154,512.018066 876.097900,512.514526 
	C875.025574,512.802124 874.605164,512.921631 873.578491,513.254517 
	C871.807800,513.808044 870.599976,513.973389 868.906616,514.616882 
	C868.004028,515.076538 867.638062,515.263306 866.693604,515.683838 
	C864.890747,516.277222 863.661194,516.620789 861.851257,517.373047 
	C821.580505,531.757568 783.519470,549.180176 747.371704,572.240112 
	C745.565063,573.353394 744.304260,573.994385 742.695312,575.381165 
	C741.856262,576.212341 741.528381,576.555237 740.614075,577.302612 
	C720.907349,588.658142 704.389526,603.156616 686.972229,616.444336 
	C675.879272,624.907104 667.441956,636.493958 654.505127,643.803467 
	C634.665039,667.523010 613.324036,689.050232 595.657349,713.700134 
	C586.743103,726.138000 578.845886,739.250671 569.394531,752.178467 
	C545.553833,791.948425 526.973633,833.373108 512.036987,877.280396 
	C505.720917,899.007568 500.404663,920.198364 495.601074,942.374756 
	C493.019440,962.001953 489.406952,980.660522 488.073364,1000.512817 
	C485.484283,1006.442505 486.746033,1011.755249 486.820770,1016.975098 
	C487.071075,1034.453247 486.485016,1051.936279 487.066620,1070.315674 
	C485.176727,1085.820312 489.265594,1100.028076 489.941376,1114.472290 
	C490.326111,1122.694946 492.609131,1130.783203 492.662720,1139.895020 
	C496.609833,1154.688721 498.882355,1169.017578 503.035431,1183.692871 
	C503.477203,1185.397827 503.730530,1186.359619 504.159576,1188.014771 
	C504.671753,1190.062256 504.897278,1191.440918 505.432739,1193.443726 
	C505.869873,1194.963379 506.108948,1195.834595 506.509338,1197.364258 
	C507.069275,1201.213257 508.853210,1204.036377 509.248535,1207.962646 
	C515.321960,1227.522461 521.639526,1246.245117 529.996338,1265.011230 
	C541.459106,1293.031860 554.931519,1319.218384 570.217224,1344.461670 
	C578.623840,1358.344604 588.183777,1371.466797 597.933533,1384.433716 
	C600.616821,1388.002563 602.240662,1391.849243 602.422424,1397.024170 
z"/>
<path fill="#515050" opacity="1.000000" stroke="none" 
	d="
M602.901123,1397.374756 
	C581.870605,1373.505493 565.302307,1346.634399 549.972839,1318.940674 
	C541.095520,1302.903076 533.171509,1286.409668 526.221802,1268.689209 
	C534.523438,1261.152466 544.146301,1258.134888 554.571594,1261.311035 
	C560.469604,1263.107910 566.062378,1263.692505 572.143250,1263.520264 
	C592.347229,1262.947876 612.568909,1263.629517 633.526123,1263.510742 
	C641.692200,1276.263794 649.112854,1288.644775 656.817322,1301.729370 
	C657.102905,1304.903931 655.725403,1306.849121 654.567505,1308.846802 
	C637.532043,1338.238403 620.472595,1367.615967 602.901123,1397.374756 
z"/>
<path fill="#515050" opacity="1.000000" stroke="none" 
	d="
M1565.434814,1281.286865 
	C1561.568604,1294.600464 1554.879639,1306.110840 1548.515381,1317.679077 
	C1533.468262,1345.029297 1517.012817,1371.523315 1496.562500,1396.139404 
	C1487.136475,1384.476196 1480.510986,1371.043701 1472.993286,1358.152954 
	C1462.275269,1339.774292 1451.815063,1321.245361 1441.054199,1302.116211 
	C1446.093262,1293.093506 1451.322998,1284.735229 1457.063843,1275.921631 
	C1463.401978,1274.969482 1469.246704,1272.565186 1475.020142,1276.014893 
	C1476.393921,1276.835693 1478.241577,1276.473022 1479.896851,1276.163574 
	C1507.041626,1271.086060 1533.910645,1278.273804 1560.949829,1278.044800 
	C1562.622192,1278.030640 1563.997314,1279.214233 1565.434814,1281.286865 
z"/>
<path fill="#626161" opacity="1.000000" stroke="none" 
	d="
M1527.991211,1452.712891 
	C1544.987183,1432.590576 1559.831421,1411.410278 1575.090942,1389.705078 
	C1584.754517,1393.789917 1595.348022,1389.644775 1604.477661,1394.186646 
	C1605.344971,1394.618042 1606.489502,1394.388672 1607.343872,1393.857544 
	C1622.190308,1384.626709 1633.225342,1396.559814 1645.884399,1401.385254 
	C1643.966187,1408.409790 1639.776855,1413.628906 1636.279053,1419.216064 
	C1616.388794,1450.987915 1593.619507,1480.618652 1569.128662,1508.952759 
	C1567.833862,1510.450806 1566.305420,1511.746948 1564.331665,1513.515137 
	C1554.146484,1500.463745 1546.994019,1485.549316 1538.405884,1471.493286 
	C1534.793823,1465.581665 1531.559814,1459.439087 1527.991211,1452.712891 
z"/>
<path fill="#626161" opacity="1.000000" stroke="none" 
	d="
M525.737793,1395.397583 
	C536.977661,1409.399536 547.464355,1423.519653 558.101685,1437.525269 
	C561.912476,1442.542725 566.087036,1447.284058 570.475952,1452.692871 
	C559.081787,1473.517578 547.307190,1493.800781 534.981445,1514.550049 
	C505.320801,1482.841431 479.370941,1448.301758 456.591644,1410.608154 
	C460.187073,1399.939819 469.772797,1395.292358 478.741608,1399.927490 
	C482.129150,1401.678345 483.944458,1401.010132 486.620300,1399.272217 
	C492.084473,1395.723389 496.972626,1396.531982 501.652954,1401.329468 
	C509.988922,1409.874146 513.667603,1409.317871 520.530334,1399.082031 
	C521.672119,1397.378906 523.020081,1396.026001 525.737793,1395.397583 
z"/>
<path fill="#5A5959" opacity="1.000000" stroke="none" 
	d="
M288.100464,1164.225830 
	C288.413879,1164.176880 288.646820,1164.518188 288.693268,1165.269897 
	C288.450226,1165.244019 288.287964,1164.889282 288.100464,1164.225830 
z"/>
<path fill="#5A5959" opacity="1.000000" stroke="none" 
	d="
M292.255737,1187.995361 
	C292.664917,1187.914551 293.039948,1188.370117 293.245911,1189.405518 
	C292.882416,1189.409912 292.597321,1188.925293 292.255737,1187.995361 
z"/>
<path fill="#383838" opacity="1.000000" stroke="none" 
	d="
M280.490570,1088.029297 
	C280.963654,1087.951416 281.338013,1088.474243 281.515381,1089.627441 
	C281.117523,1089.625122 280.808716,1089.082520 280.490570,1088.029297 
z"/>
<path fill="#626161" opacity="1.000000" stroke="none" 
	d="
M1801.100342,1209.485352 
	C1800.683228,1209.208984 1800.808105,1208.689941 1801.588989,1207.992188 
	C1801.787476,1208.240112 1801.586548,1208.716431 1801.100342,1209.485352 
z"/>
<path fill="#A1A1A1" opacity="1.000000" stroke="none" 
	d="
M739.529175,572.297668 
	C740.722168,571.186035 741.613098,570.401489 743.096375,569.455566 
	C749.480347,571.269653 755.504822,571.082886 761.482483,571.085083 
	C788.091858,571.094971 814.699219,571.327820 841.310852,571.220886 
	C909.515442,570.946716 977.726074,570.776123 1045.925903,571.358826 
	C1101.779419,571.835999 1157.624878,570.894714 1213.484009,571.431091 
	C1253.702271,571.817261 1293.977661,571.926514 1334.219971,571.163635 
	C1342.585693,571.005066 1350.726807,572.797424 1359.909668,573.412476 
	C1377.245361,583.495667 1392.950562,594.193665 1406.593750,607.775269 
	C1411.722412,612.880676 1417.563599,617.302063 1423.281860,621.777222 
	C1438.118042,633.388000 1452.116577,645.710938 1463.575928,660.921204 
	C1469.898438,669.313416 1477.954590,676.399658 1485.435181,684.769531 
	C1484.254028,689.842773 1480.406250,690.008362 1476.824951,690.572571 
	C1460.709839,693.111511 1444.567139,693.883728 1428.341309,691.542847 
	C1421.082031,690.495544 1413.841309,691.400757 1406.554932,691.843689 
	C1387.473389,693.003601 1368.274414,695.026062 1348.677002,688.550720 
	C1327.230835,672.407043 1306.497559,656.913147 1283.931274,644.031982 
	C1235.457764,616.362610 1183.954346,597.098022 1128.874634,587.620972 
	C1107.924438,584.016174 1086.854858,582.058594 1065.585693,581.122986 
	C1031.940063,579.643005 998.723694,582.590576 964.764648,588.045410 
	C962.576233,589.477783 960.765137,588.809570 958.573425,589.299438 
	C922.566040,596.328125 888.645874,607.758728 855.761841,622.440918 
	C839.125488,629.868713 823.224792,638.664490 806.851501,648.018311 
	C799.566467,650.953918 792.527100,650.607727 785.626282,650.783325 
	C754.172180,651.583679 722.706421,650.005188 691.228760,651.798157 
	C681.128967,652.373474 670.740356,651.121460 660.502502,650.420044 
	C656.190125,650.124695 651.601562,649.678223 651.536377,642.841858 
	C659.063904,635.134216 666.059753,628.155212 673.380920,621.536011 
	C690.534485,606.027039 709.194458,592.420593 727.946533,578.947388 
	C730.889404,576.832947 733.999695,574.951660 737.684692,572.792358 
	C738.336731,572.622253 739.227112,572.624695 739.529175,572.297668 
z"/>
<path fill="#949494" opacity="1.000000" stroke="none" 
	d="
M651.299622,642.194824 
	C654.388000,646.995056 659.103027,645.963684 663.284668,645.980896 
	C682.827881,646.061218 702.371582,646.018616 721.915100,646.019226 
	C742.848083,646.019836 763.781433,646.093262 784.713745,645.976929 
	C791.393433,645.939819 797.982971,646.321106 805.322571,648.022339 
	C797.144897,654.367493 788.087280,660.524658 779.117310,666.806824 
	C743.454285,691.783752 712.108643,721.380066 684.139648,755.552979 
	C678.850037,759.418091 673.493042,760.490479 667.703247,760.823853 
	C643.235352,762.232605 618.737305,759.956665 594.246765,761.737000 
	C587.508606,762.226868 580.536743,760.048828 573.568665,759.695374 
	C569.275146,759.477600 566.413879,756.500549 566.032349,750.908569 
	C570.812012,738.958984 578.411987,729.645874 585.187805,719.886475 
	C604.541199,692.011292 626.481995,666.254333 651.299622,642.194824 
z"/>
<path fill="#8C8B8B" opacity="1.000000" stroke="none" 
	d="
M565.416504,750.361023 
	C569.789551,754.271667 574.177979,756.675781 580.060486,754.599487 
	C580.660522,754.387695 581.382019,754.378113 582.026184,754.453674 
	C615.215149,758.346558 648.506165,755.219055 682.647461,755.909668 
	C676.717407,765.610291 669.841064,775.289795 663.051208,785.029602 
	C643.484253,813.098083 627.709839,843.202393 614.490173,875.457703 
	C610.214294,879.761047 605.394165,880.664917 600.299072,880.714172 
	C573.765686,880.970764 547.231506,881.015381 520.699280,880.663513 
	C516.793884,880.611755 512.629333,880.852356 508.935547,876.791382 
	C511.583893,860.364319 517.917053,845.842651 523.962219,831.228455 
	C535.499695,803.336731 548.888489,776.378845 565.416504,750.361023 
z"/>
<path fill="#7F7F7F" opacity="1.000000" stroke="none" 
	d="
M1604.858032,931.338135 
	C1605.294189,934.018982 1605.730469,936.092407 1606.154541,938.964661 
	C1606.387695,940.099915 1606.633057,940.436340 1606.919922,941.395874 
	C1607.432373,945.282410 1607.903198,948.545898 1608.375610,952.634888 
	C1608.579712,958.597473 1604.970581,959.601135 1601.167358,959.380005 
	C1572.047974,957.686768 1542.909912,960.324219 1513.794189,958.891663 
	C1512.067749,958.806702 1510.566650,958.293884 1508.462769,956.697815 
	C1506.675537,955.361511 1506.493286,954.251526 1506.534668,952.497070 
	C1506.660156,951.583496 1506.732422,951.245178 1506.535156,950.463379 
	C1502.273682,935.680420 1498.557495,921.256958 1494.229126,907.019653 
	C1486.692749,882.230469 1476.398071,858.525391 1464.920654,834.590332 
	C1468.107910,828.111206 1473.962646,829.311951 1479.001953,829.324158 
	C1501.517090,829.378967 1524.030640,828.984131 1546.544678,829.162476 
	C1554.504150,829.225525 1562.433228,828.951721 1571.225586,827.761963 
	C1583.515625,851.153503 1590.852417,875.994324 1597.671753,900.996460 
	C1600.117676,909.964050 1601.949829,919.099060 1604.095215,928.958618 
	C1604.371460,930.083313 1604.614746,930.407043 1604.858032,931.338135 
z"/>
<path fill="#949494" opacity="1.000000" stroke="none" 
	d="
M1348.107910,688.732239 
	C1357.704712,687.496094 1367.496216,686.852783 1377.492798,687.698059 
	C1388.326294,688.614136 1399.346436,688.609192 1410.236450,686.362610 
	C1414.708252,685.440125 1419.652100,685.290344 1424.123413,686.142395 
	C1444.033569,689.936401 1463.802734,686.864197 1484.629883,685.542419 
	C1496.654785,696.013062 1504.741577,708.880798 1513.731445,721.024841 
	C1521.089966,730.964905 1525.833130,742.628662 1534.182251,752.702515 
	C1534.996704,761.009277 1530.858643,764.219604 1523.783081,764.446228 
	C1503.931274,765.082031 1484.051147,765.546692 1464.239136,764.197144 
	C1456.578735,763.675354 1449.110107,764.035889 1441.517822,764.398560 
	C1434.026855,764.756348 1426.230225,765.593811 1418.541992,760.694336 
	C1409.235962,750.494507 1400.589966,740.945190 1392.166016,731.203735 
	C1378.894409,715.856262 1363.804565,702.435425 1348.107910,688.732239 
z"/>
<path fill="#8C8B8B" opacity="1.000000" stroke="none" 
	d="
M1417.958984,760.795898 
	C1430.690063,759.464050 1443.761597,757.214600 1456.464722,758.527710 
	C1472.811523,760.217529 1489.064087,759.518494 1505.351318,759.972961 
	C1511.012939,760.130981 1516.683716,759.931030 1522.349609,759.980225 
	C1526.960693,760.020203 1530.908813,758.796448 1533.936279,754.004761 
	C1546.891235,772.900513 1558.076660,793.135193 1566.306030,814.924927 
	C1567.795776,818.869446 1570.027100,822.533875 1572.025269,827.030518 
	C1569.965454,833.594543 1564.954102,833.958984 1559.853760,833.981750 
	C1547.596069,834.036438 1535.338135,834.025696 1523.080200,834.016357 
	C1504.232300,834.002075 1485.384277,833.966736 1465.650635,833.933105 
	C1453.162476,813.906189 1441.933228,793.655151 1428.036987,775.064758 
	C1424.679565,770.573120 1421.433228,765.998230 1417.958984,760.795898 
z"/>
<path fill="#5A5959" opacity="1.000000" stroke="none" 
	d="
M1566.189575,1281.352417 
	C1553.227173,1281.634521 1540.631104,1281.760864 1527.983887,1280.842773 
	C1519.909790,1280.256714 1511.535522,1280.989258 1503.316772,1279.970825 
	C1501.014526,1279.685547 1498.485718,1279.787598 1496.480835,1278.831177 
	C1491.663940,1276.533447 1487.769775,1277.094360 1483.720459,1280.643433 
	C1480.184570,1283.742432 1476.009155,1284.565674 1471.986938,1281.004883 
	C1469.801392,1279.070190 1467.266846,1278.844604 1464.496948,1279.291748 
	C1461.961060,1279.701050 1459.978760,1278.562378 1458.006348,1276.026123 
	C1467.560547,1254.062134 1478.424438,1233.055786 1487.291992,1210.425293 
	C1490.941772,1206.708984 1495.008911,1207.265747 1498.962646,1207.107178 
	C1516.451050,1206.406006 1533.929321,1206.201416 1551.424683,1207.080566 
	C1560.945557,1207.559082 1570.467163,1204.713257 1580.056519,1207.280029 
	C1583.982666,1208.331055 1587.720825,1209.283081 1590.983887,1213.255859 
	C1585.315552,1237.002075 1576.802979,1259.195190 1566.189575,1281.352417 
z"/>
<path fill="#666666" opacity="1.000000" stroke="none" 
	d="
M1615.277344,1075.334839 
	C1615.501587,1099.706909 1612.296143,1123.110352 1607.835449,1147.182129 
	C1603.321045,1151.988892 1597.846802,1151.789795 1592.625854,1151.984863 
	C1567.787109,1152.912842 1543.010864,1149.964478 1518.164307,1150.642456 
	C1514.287964,1150.748169 1510.097168,1150.880371 1506.598511,1146.736572 
	C1506.318848,1144.304932 1506.521118,1142.613892 1507.109619,1140.160767 
	C1507.495850,1139.398682 1507.280029,1138.510376 1507.626221,1138.211914 
	C1509.579834,1125.911987 1510.851685,1113.852417 1512.911133,1101.928955 
	C1514.310669,1093.826172 1513.103271,1085.503052 1515.776978,1076.771729 
	C1520.817261,1069.970215 1528.088623,1070.470215 1534.336670,1070.131958 
	C1559.072754,1068.793335 1583.766479,1071.795044 1608.512451,1071.793335 
	C1610.874756,1071.793091 1613.001709,1072.820312 1615.277344,1075.334839 
z"/>
<path fill="#7F7F7F" opacity="1.000000" stroke="none" 
	d="
M507.960358,876.605591 
	C542.963928,875.974304 577.566406,875.982300 613.109497,875.999146 
	C606.829285,898.007568 599.036560,919.832642 593.507080,943.180786 
	C589.389221,948.582397 584.496704,950.906433 578.414490,950.580872 
	C552.887634,949.214172 527.335083,948.864563 501.780121,948.517334 
	C497.872711,948.464233 493.598145,948.318420 491.793457,942.701538 
	C492.765198,927.091675 497.438354,913.199707 500.826416,899.056580 
	C502.595398,891.672119 505.285278,884.508301 507.960358,876.605591 
z"/>
<path fill="#626161" opacity="1.000000" stroke="none" 
	d="
M499.024292,1188.685425 
	C495.154938,1173.462769 491.168182,1158.900269 489.650726,1142.968140 
	C491.646606,1135.796997 496.247925,1134.021484 502.528442,1133.245972 
	C518.035461,1131.331055 534.111877,1130.275513 548.906799,1132.873291 
	C562.292664,1135.223511 576.270081,1129.595703 589.428223,1137.446289 
	C593.415649,1146.259033 594.076416,1155.210571 596.571716,1163.692993 
	C600.370239,1176.605225 604.210205,1189.505127 608.140747,1203.178223 
	C605.831970,1210.821899 599.815857,1212.099609 593.831787,1212.392334 
	C572.022278,1213.459229 550.167175,1213.172119 528.429810,1211.500244 
	C521.177551,1210.942505 513.106445,1215.005127 505.561523,1208.744873 
	C503.675476,1205.622192 501.814697,1202.930420 501.873352,1198.963257 
	C501.643799,1197.949829 501.406952,1197.618286 501.044617,1196.688721 
	C500.585724,1194.660889 500.252319,1193.230957 499.889038,1191.064941 
	C499.630157,1189.982666 499.401093,1189.636475 499.024292,1188.685425 
z"/>
<path fill="#6C6C6C" opacity="1.000000" stroke="none" 
	d="
M482.628021,1072.662109 
	C481.456177,1048.321655 481.029327,1024.649170 483.289062,1000.324646 
	C509.758331,999.680542 535.688904,1000.130859 561.614014,998.331360 
	C568.671692,997.841431 576.318542,997.687805 583.081665,1003.339600 
	C583.216858,1012.505737 583.017029,1021.066345 582.332214,1029.588013 
	C581.191711,1043.779419 582.677490,1057.957275 582.081055,1073.066772 
	C573.454285,1080.373657 563.331604,1077.533936 554.142334,1077.981689 
	C533.968628,1078.964233 513.655334,1075.188232 493.493011,1079.397339 
	C488.332489,1080.474609 485.445282,1077.354980 482.628021,1072.662109 
z"/>
<path fill="#6C6C6C" opacity="1.000000" stroke="none" 
	d="
M1616.074219,1075.066162 
	C1601.351562,1076.001221 1586.752563,1075.692139 1572.177368,1076.145142 
	C1564.836914,1076.373169 1557.756592,1074.696777 1550.478638,1074.411865 
	C1539.473145,1073.981323 1528.773071,1076.828369 1516.958008,1076.000732 
	C1514.731201,1061.456787 1516.852661,1046.910278 1515.794067,1032.330811 
	C1515.246216,1024.784302 1515.059204,1017.183472 1514.565918,1008.784302 
	C1516.879517,1004.317322 1520.448975,1003.436523 1524.195435,1003.498291 
	C1550.412598,1003.931274 1576.599976,998.291138 1602.853516,1003.208191 
	C1607.163452,1004.015442 1611.509033,1004.176758 1614.687988,1009.174133 
	C1617.489868,1023.712097 1615.988525,1037.578979 1616.307983,1051.396729 
	C1616.483154,1058.972046 1616.254272,1066.556763 1616.074219,1075.066162 
z"/>
<path fill="#626161" opacity="1.000000" stroke="none" 
	d="
M1505.791992,1146.696533 
	C1530.291138,1146.072998 1554.468384,1145.615967 1578.622803,1147.370728 
	C1584.819458,1147.820923 1591.129761,1147.065186 1597.360229,1146.538330 
	C1600.445068,1146.277588 1603.289795,1146.812866 1606.872925,1147.795166 
	C1604.780518,1168.687256 1599.222290,1188.772339 1593.144775,1209.578369 
	C1592.801392,1210.691772 1592.782593,1211.039185 1592.402588,1211.763184 
	C1592.041260,1212.139893 1591.956055,1213.090576 1591.757080,1213.524414 
	C1577.479004,1210.797485 1563.236450,1211.781128 1548.973511,1211.844971 
	C1534.072266,1211.911743 1519.168823,1211.019409 1504.259277,1211.964844 
	C1499.253174,1212.282471 1494.273071,1211.855957 1488.620117,1210.114014 
	C1487.942749,1209.002197 1488.094849,1208.073853 1488.495850,1206.484131 
	C1488.896973,1205.446899 1489.049072,1205.070923 1489.558105,1204.202148 
	C1490.281372,1195.870728 1494.503784,1189.146851 1496.450439,1180.961914 
	C1496.766724,1179.779297 1496.905640,1179.348633 1497.359009,1178.316650 
	C1500.271484,1167.609009 1502.869507,1157.503052 1505.791992,1146.696533 
z"/>
<path fill="#666666" opacity="1.000000" stroke="none" 
	d="
M481.915222,1072.906250 
	C489.244293,1076.287109 496.869354,1074.532227 504.307800,1073.323364 
	C515.224060,1071.549316 526.019165,1071.780640 536.979797,1073.083984 
	C544.117249,1073.932739 551.563416,1074.133179 558.634216,1073.060913 
	C566.065979,1071.933716 573.131165,1072.204468 581.125122,1073.924316 
	C584.530396,1087.126587 584.520813,1100.542114 586.289673,1114.614014 
	C586.462097,1115.888306 586.651184,1116.309204 587.117004,1117.364258 
	C587.672729,1120.668457 587.951721,1123.338379 588.166992,1126.812256 
	C588.325989,1127.955444 588.548645,1128.294556 588.948242,1129.216187 
	C589.461792,1131.980835 589.798462,1134.163086 590.082886,1137.173462 
	C577.050964,1138.068604 563.988159,1142.703369 551.086914,1137.237549 
	C549.993652,1136.774292 547.907593,1136.636108 547.334167,1137.281372 
	C542.473267,1142.750854 537.745483,1139.137695 532.941895,1137.400146 
	C531.703613,1136.952148 530.304565,1136.285522 529.108276,1136.486572 
	C516.517395,1138.604126 503.223572,1135.641479 490.418457,1141.904785 
	C486.280609,1132.751831 485.745758,1122.832031 484.725250,1113.125977 
	C483.353058,1100.074951 481.531036,1087.007812 481.915222,1072.906250 
z"/>
<path fill="#5A5959" opacity="1.000000" stroke="none" 
	d="
M504.740234,1209.377197 
	C514.396851,1206.919678 523.974060,1206.487305 534.063232,1207.298462 
	C553.039307,1208.824463 572.215576,1207.862793 591.308655,1207.929932 
	C596.725708,1207.948975 601.571533,1205.541748 607.468384,1204.114746 
	C616.607910,1223.545654 624.241638,1243.463013 634.091064,1263.185547 
	C627.107483,1267.522583 619.940369,1268.776733 611.521362,1268.703003 
	C596.385071,1268.570435 581.074402,1265.928345 565.970764,1269.434937 
	C562.155151,1270.321045 558.759888,1269.208252 555.612549,1267.082642 
	C551.081970,1264.022583 546.418945,1263.743164 541.496582,1266.183960 
	C537.170654,1268.328979 532.457153,1267.998413 526.961121,1267.984131 
	C517.174011,1249.386719 510.492889,1229.963745 504.740234,1209.377197 
z"/>
<path fill="#767676" opacity="1.000000" stroke="none" 
	d="
M583.882812,1003.142944 
	C569.387878,1003.983948 555.097046,1003.310974 540.905884,1004.210266 
	C524.788452,1005.231628 508.670013,1004.107727 492.588348,1005.256897 
	C488.900391,1005.520508 486.084290,1004.381653 484.100830,1000.313232 
	C483.843109,980.468872 487.683472,961.755310 491.316803,942.354736 
	C495.646423,944.572815 500.078094,943.862732 504.360138,944.003967 
	C520.955688,944.551453 537.589600,944.472107 554.163452,944.662842 
	C566.552063,944.805298 579.287842,948.524902 592.445068,943.968994 
	C589.927429,963.352295 585.734009,982.635803 583.882812,1003.142944 
z"/>
<path fill="#767676" opacity="1.000000" stroke="none" 
	d="
M1615.379639,1009.146667 
	C1594.646240,1007.031799 1574.176392,1004.460571 1553.174194,1007.513733 
	C1541.186157,1009.256470 1528.749756,1007.914001 1515.626465,1007.952576 
	C1512.381836,991.241943 1510.025757,974.539490 1507.693848,956.979919 
	C1512.867798,954.619995 1518.093872,953.930969 1523.489014,953.955200 
	C1545.781006,954.055298 1568.076660,954.191406 1590.364258,953.861450 
	C1595.983765,953.778381 1601.495728,956.306458 1607.749146,953.890625 
	C1612.287109,967.988403 1613.639160,982.855347 1614.201660,998.704346 
	C1614.366089,999.954956 1614.587036,1000.320679 1615.011719,1001.294189 
	C1615.314331,1004.050842 1615.413330,1006.199585 1615.379639,1009.146667 
z"/>
<path fill="#767676" opacity="1.000000" stroke="none" 
	d="
M958.603760,589.588501 
	C959.187134,588.002502 960.912659,587.885315 963.272339,587.895752 
	C962.468933,588.915649 961.031555,589.808105 958.603760,589.588501 
z"/>
<path fill="#626161" opacity="1.000000" stroke="none" 
	d="
M589.141357,1129.370117 
	C588.807312,1129.360840 588.548401,1128.890747 588.225830,1128.002197 
	C588.606506,1127.937256 588.957947,1128.379028 589.141357,1129.370117 
z"/>
<path fill="#767676" opacity="1.000000" stroke="none" 
	d="
M1506.219727,950.516846 
	C1506.705444,950.396606 1506.886597,950.868591 1506.698486,951.678833 
	C1506.587891,951.921753 1506.173950,951.013733 1506.219727,950.516846 
z"/>
<path fill="#515050" opacity="1.000000" stroke="none" 
	d="
M587.423950,1117.505371 
	C586.982788,1117.519165 586.671631,1116.981934 586.366577,1115.927002 
	C586.861877,1115.833008 587.255615,1116.347900 587.423950,1117.505371 
z"/>
<path fill="#5A5959" opacity="1.000000" stroke="none" 
	d="
M1489.580688,1203.976807 
	C1489.770630,1204.237427 1489.546265,1204.728882 1488.993408,1205.503296 
	C1488.648438,1205.212769 1488.815674,1204.686523 1489.580688,1203.976807 
z"/>
<path fill="#626161" opacity="1.000000" stroke="none" 
	d="
M1507.764648,1138.111572 
	C1507.905151,1138.258789 1507.807983,1138.595581 1507.588379,1139.161133 
	C1507.309692,1139.024292 1507.329956,1138.661255 1507.764648,1138.111572 
z"/>
<path fill="#383838" opacity="1.000000" stroke="none" 
	d="
M1497.365723,1178.067627 
	C1497.734619,1178.362061 1497.592041,1178.960571 1496.936768,1179.860107 
	C1496.554199,1179.561279 1496.697632,1178.964722 1497.365723,1178.067627 
z"/>
<path fill="#7F7F7F" opacity="1.000000" stroke="none" 
	d="
M1426.729004,546.505127 
	C1409.671387,535.152222 1393.825928,523.604919 1377.088135,513.328247 
	C1315.247681,475.359039 1248.825317,448.976807 1177.863403,434.052521 
	C1140.384033,426.170044 1102.507324,422.140076 1064.145996,421.067139 
	C1006.582581,419.457062 950.067261,425.942871 894.402161,440.042450 
	C819.432800,459.031647 750.404907,491.131287 686.473389,535.793457 
	C669.622009,543.406067 653.040466,544.979492 635.918945,539.511047 
	C632.032288,538.269714 627.968628,538.604187 624.193298,539.912415 
	C614.581360,543.243286 604.599426,541.899353 594.805664,542.237915 
	C589.399353,542.424866 583.096985,541.551392 583.535156,532.715698 
	C584.313904,531.423767 584.678223,530.871460 585.511902,530.128540 
	C589.359375,527.834778 594.237488,527.645752 595.501160,521.947021 
	C630.576111,490.137848 668.975952,463.949951 709.684448,441.104004 
	C769.285156,407.655548 832.557068,383.726105 899.279419,368.986023 
	C929.828796,362.237152 960.707764,357.714142 991.920166,355.135437 
	C1027.179321,352.222443 1062.502441,352.032745 1097.674438,354.369598 
	C1156.631348,358.286743 1214.255859,369.877716 1270.326050,388.854462 
	C1333.157593,410.119507 1392.120483,439.188538 1446.187500,477.592316 
	C1470.957764,495.186615 1495.806152,512.919373 1517.828857,535.077881 
	C1521.407593,545.519104 1519.047729,550.981995 1510.457520,549.809082 
	C1494.598022,547.643616 1479.395264,552.229919 1463.802002,552.388245 
	C1451.259888,552.515625 1439.390625,550.148926 1426.729004,546.505127 
z"/>
<path fill="#6C6C6C" opacity="1.000000" stroke="none" 
	d="
M1655.882568,1210.671631 
	C1658.734863,1191.582397 1663.845947,1173.661011 1666.768555,1155.264038 
	C1670.155151,1133.946533 1673.016113,1112.603516 1674.448364,1091.040283 
	C1675.748291,1071.470947 1676.154419,1051.939697 1675.761719,1032.329956 
	C1675.082031,998.381409 1671.194702,964.824280 1665.049683,931.482727 
	C1663.846313,924.953491 1662.595947,918.432922 1661.321533,911.073486 
	C1663.325562,906.338440 1666.706299,906.397400 1670.566284,906.561340 
	C1685.843994,907.210449 1701.126343,911.608215 1716.442261,905.949341 
	C1720.374878,904.496338 1724.953369,905.606689 1729.076050,909.339905 
	C1733.926758,924.329407 1735.542725,939.176086 1737.695190,953.914246 
	C1743.613159,994.433533 1745.025146,1035.248535 1743.476929,1076.057129 
	C1741.891846,1117.835938 1736.387085,1159.247314 1726.994385,1200.064697 
	C1726.326172,1202.968384 1725.587402,1205.855835 1724.479004,1209.391357 
	C1721.314209,1213.355347 1717.640625,1214.519287 1713.462891,1214.643188 
	C1706.478760,1214.850098 1699.469116,1214.879761 1692.801636,1217.494263 
	C1691.235718,1218.108154 1689.391968,1218.313477 1687.906982,1217.594971 
	C1680.413696,1213.968994 1672.490234,1214.073486 1664.464233,1214.376709 
	C1661.500366,1214.488647 1658.428467,1214.079956 1655.882568,1210.671631 
z"/>
<path fill="#767676" opacity="1.000000" stroke="none" 
	d="
M511.004272,723.312866 
	C505.229980,735.363159 499.065918,746.730347 492.984406,758.141541 
	C472.770935,796.069580 457.385681,835.916260 445.567047,877.197205 
	C439.812134,897.298340 435.119720,917.628113 431.405090,939.053345 
	C431.129395,940.308105 431.019257,940.737244 430.582642,941.745361 
	C428.253632,957.677612 426.251007,973.031006 424.052307,989.184998 
	C420.399353,996.854980 414.472382,1000.286072 407.434082,997.812012 
	C394.581482,993.293945 381.734314,996.464966 368.898926,996.184875 
	C364.942810,996.098511 360.815430,996.941101 357.291809,992.628906 
	C356.766632,989.651245 356.736572,987.384338 357.082703,984.350098 
	C357.377777,983.257385 357.296661,982.932068 357.597900,982.280029 
	C358.040222,963.614746 361.440369,945.650269 364.563477,927.708923 
	C374.570038,870.223938 391.565125,814.850952 415.667877,761.672119 
	C422.250000,747.149597 429.476105,732.958435 437.290833,718.346619 
	C445.036011,717.525452 452.294373,718.812012 459.157837,720.114990 
	C471.874329,722.529053 484.180023,721.077698 496.681152,719.917542 
	C501.523926,719.468079 506.708954,718.130249 511.004272,723.312866 
z"/>
<path fill="#7A7979" opacity="1.000000" stroke="none" 
	d="
M511.846588,723.467529 
	C497.203522,725.062378 482.920563,724.941101 469.018860,728.354492 
	C466.517548,728.968689 464.440918,728.709656 462.585327,726.962708 
	C458.697327,723.302368 454.113831,723.732849 449.461578,724.750305 
	C441.492737,726.493164 441.498199,726.518127 438.211945,718.464722 
	C437.872345,717.541504 437.932556,717.183228 438.272614,716.357300 
	C438.740967,715.541565 438.929413,715.193420 439.554749,714.443237 
	C449.317230,694.098083 461.714874,675.986511 473.750732,657.673279 
	C503.107452,613.005249 538.856934,573.795776 577.314819,536.923889 
	C578.989197,535.318481 580.919189,533.979614 583.339844,532.246277 
	C587.886658,538.699707 594.458496,538.384705 600.669617,537.551819 
	C610.747192,536.200378 621.084229,536.635071 630.893311,533.320801 
	C633.866638,532.316223 636.853699,532.403381 639.359131,534.571350 
	C643.280518,537.964478 647.807861,536.891357 652.423462,537.265442 
	C663.099609,538.130676 673.502258,535.792542 684.931274,535.968018 
	C669.049561,549.557434 651.595581,562.242371 635.383606,576.550232 
	C603.386292,604.789368 574.787292,636.049622 548.553589,669.679138 
	C535.280518,686.694214 524.350281,705.163757 511.846588,723.467529 
z"/>
<path fill="#7A7979" opacity="1.000000" stroke="none" 
	d="
M1426.321777,546.628052 
	C1434.218872,544.339722 1442.268921,545.863220 1450.515259,546.876709 
	C1462.608521,548.363037 1474.872437,547.468567 1486.895386,545.182495 
	C1493.521484,543.922607 1499.975708,543.832764 1506.616333,545.068848 
	C1514.851685,546.601807 1515.717285,545.803467 1518.147461,536.417847 
	C1519.559570,536.544373 1521.051147,537.320740 1522.226685,538.431396 
	C1570.299316,583.850037 1611.954590,634.459473 1645.714478,691.427124 
	C1650.593628,699.660461 1655.176147,708.069519 1659.995605,717.081665 
	C1661.478149,720.043701 1661.080566,723.070312 1663.672119,725.487488 
	C1667.282837,728.825989 1668.701050,732.718079 1670.526978,737.142578 
	C1668.093262,743.830627 1662.739014,745.414429 1657.502441,743.682800 
	C1646.945190,740.191895 1636.767944,742.754395 1626.366943,743.658813 
	C1615.335205,744.618225 1604.716919,742.497864 1594.311279,736.580322 
	C1580.409668,715.508240 1567.696533,694.538208 1553.038818,674.779602 
	C1516.988159,626.183655 1474.796021,583.782471 1426.321777,546.628052 
z"/>
<path fill="#6C6C6C" opacity="1.000000" stroke="none" 
	d="
M356.544983,992.806885 
	C366.298126,992.332275 375.630829,990.147278 385.190338,990.396851 
	C392.716248,990.593323 400.129547,989.295227 407.342102,992.921082 
	C412.693390,995.611328 417.471954,991.780273 423.134674,990.159058 
	C424.543518,1005.590820 422.333893,1021.082886 422.023956,1036.672852 
	C421.554596,1060.282959 422.581726,1083.794067 424.709351,1107.224854 
	C427.743408,1140.637695 433.820404,1173.600708 442.088562,1206.928223 
	C444.156189,1214.374634 439.832245,1216.040527 434.803619,1216.258301 
	C426.893707,1216.600952 418.977631,1216.453613 411.550629,1219.830078 
	C410.980957,1220.089233 410.126648,1220.218994 409.607635,1219.964600 
	C398.817993,1214.675781 386.689575,1216.204712 374.863251,1212.594849 
	C368.429596,1192.866577 365.285187,1173.177979 362.100708,1153.525146 
	C354.852325,1108.791992 353.386627,1063.691406 354.374603,1018.479797 
	C354.555389,1010.208374 355.630829,1001.956543 356.544983,992.806885 
z"/>
<path fill="#666666" opacity="1.000000" stroke="none" 
	d="
M374.246887,1212.766602 
	C380.138794,1211.204468 385.888794,1209.569580 391.922821,1209.973999 
	C395.587860,1210.219482 399.343933,1210.262695 402.368469,1212.457275 
	C406.976044,1215.800293 411.423645,1215.865112 416.147675,1212.942871 
	C420.034546,1210.538452 424.118042,1210.667358 428.546112,1211.421875 
	C432.932648,1212.169312 437.807617,1213.462402 441.771118,1208.378418 
	C446.063507,1219.999390 449.986176,1232.291016 453.918365,1244.579590 
	C470.531525,1296.498291 494.472717,1344.899780 524.010071,1390.616089 
	C524.729309,1391.729248 525.374207,1392.890259 526.242554,1394.676880 
	C526.290161,1395.802612 513.239441,1415.396606 512.849976,1415.762207 
	C510.752380,1417.730713 508.160461,1417.903442 507.039581,1415.380493 
	C504.923279,1410.617065 499.931946,1408.721924 497.372650,1404.271240 
	C494.322998,1398.968018 491.027710,1399.660522 488.321808,1405.346558 
	C484.932953,1412.467529 480.666718,1413.151855 477.057312,1406.176758 
	C474.286072,1400.821411 472.361481,1401.184204 468.232056,1404.116455 
	C465.049194,1406.376465 461.201233,1407.699829 457.033997,1409.698242 
	C444.577667,1392.662964 435.085480,1374.020386 425.766510,1355.337158 
	C406.177917,1316.064697 390.713837,1275.170410 379.187256,1232.808594 
	C377.447235,1226.413818 375.874756,1219.973267 374.246887,1212.766602 
z"/>
<path fill="#666666" opacity="1.000000" stroke="none" 
	d="
M1655.014893,1210.461670 
	C1661.389526,1209.961670 1667.330444,1210.350098 1673.168457,1208.750488 
	C1675.751221,1208.042847 1678.757324,1207.542847 1680.872925,1209.163452 
	C1686.935669,1213.807739 1692.876587,1211.874512 1699.513916,1210.632324 
	C1706.859741,1209.257446 1714.625366,1210.126709 1723.142334,1210.025269 
	C1723.852173,1211.745361 1723.628052,1213.458862 1723.008057,1215.946045 
	C1722.612305,1216.719727 1722.637573,1217.572876 1722.330444,1217.869263 
	C1721.808960,1219.842285 1721.594727,1221.519043 1720.994141,1223.953491 
	C1720.607910,1224.711304 1720.637329,1225.578491 1720.331787,1225.886597 
	C1717.028076,1242.940796 1711.213989,1258.873901 1705.723389,1274.876587 
	C1690.583374,1319.003052 1671.072998,1361.127319 1646.644531,1401.623047 
	C1637.965332,1402.061523 1630.371094,1399.942261 1622.977051,1396.574585 
	C1615.075073,1392.975708 1614.422729,1393.373047 1610.042969,1401.349487 
	C1607.567139,1405.858398 1605.171021,1406.539185 1603.041992,1402.416382 
	C1599.617920,1395.785767 1594.858154,1395.655762 1588.802368,1397.228271 
	C1582.829956,1398.779175 1578.284302,1396.949585 1575.869629,1390.023071 
	C1577.606079,1385.855835 1579.574219,1382.432007 1582.001221,1378.515625 
	C1588.256714,1375.393188 1588.973022,1369.410278 1591.531250,1363.856445 
	C1598.666870,1349.631470 1605.778442,1336.154053 1612.573853,1322.518921 
	C1630.376587,1286.796875 1643.587158,1249.329590 1655.014893,1210.461670 
z"/>
<path fill="#767676" opacity="1.000000" stroke="none" 
	d="
M1593.871582,736.824463 
	C1601.729248,733.539001 1609.155273,738.169922 1616.988403,738.123962 
	C1618.559204,738.114746 1620.648071,739.932800 1621.627808,739.376282 
	C1629.579712,734.859924 1638.811646,739.841064 1646.745605,735.733887 
	C1648.866455,734.635925 1651.687622,733.819092 1653.351807,735.614746 
	C1658.112427,740.751404 1663.534302,739.244690 1669.876709,737.907593 
	C1683.317871,761.951355 1694.282227,786.761780 1702.306030,812.857666 
	C1708.251465,832.193970 1715.079224,851.261292 1720.886841,870.636475 
	C1723.969238,880.919495 1725.716309,891.602783 1728.090332,902.888123 
	C1728.347412,904.012268 1728.580200,904.353699 1728.983887,905.290955 
	C1729.339966,906.786560 1729.525146,907.686340 1729.698486,909.276672 
	C1721.645752,909.791565 1713.659424,909.858032 1706.431763,914.210815 
	C1704.318359,915.483643 1701.997925,915.418091 1699.646973,914.884033 
	C1687.598877,912.147278 1675.180786,912.338562 1662.161011,910.258789 
	C1654.415527,883.602600 1647.037720,857.128418 1637.533325,831.280701 
	C1625.600586,798.829346 1610.660034,767.788269 1593.871582,736.824463 
z"/>
<path fill="#7A7979" opacity="1.000000" stroke="none" 
	d="
M595.081177,521.566040 
	C596.056763,527.072083 593.330139,529.944885 586.757935,529.933228 
	C587.799500,526.175232 591.954163,524.870178 595.081177,521.566040 
z"/>
<path fill="#767676" opacity="1.000000" stroke="none" 
	d="
M1664.105469,725.258484 
	C1660.904419,724.861145 1660.082275,722.298706 1660.091797,718.497803 
	C1662.141357,719.619446 1662.984375,722.165649 1664.105469,725.258484 
z"/>
<path fill="#6C6C6C" opacity="1.000000" stroke="none" 
	d="
M1720.240479,1225.998535 
	C1720.197510,1225.878052 1720.345825,1225.551025 1720.539673,1224.962402 
	C1720.756592,1225.102783 1720.705566,1225.466553 1720.240479,1225.998535 
z"/>
<path fill="#6C6C6C" opacity="1.000000" stroke="none" 
	d="
M1722.235962,1217.976074 
	C1722.196655,1217.857788 1722.347046,1217.539062 1722.543335,1216.964600 
	C1722.752441,1217.104858 1722.697876,1217.460449 1722.235962,1217.976074 
z"/>
<path fill="#767676" opacity="1.000000" stroke="none" 
	d="
M439.602844,714.217102 
	C439.760986,714.515869 439.468842,714.949219 438.833862,715.615356 
	C438.475739,715.259399 438.696259,714.760559 439.602844,714.217102 
z"/>
<path fill="#6C6C6C" opacity="1.000000" stroke="none" 
	d="
M1729.214600,905.441162 
	C1728.778076,905.473206 1728.495117,905.003235 1728.210205,904.073853 
	C1728.687866,903.948914 1729.074463,904.390503 1729.214600,905.441162 
z"/>
<path fill="#6C6C6C" opacity="1.000000" stroke="none" 
	d="
M357.737488,982.161255 
	C357.970154,982.345093 357.887024,982.720703 357.594910,983.331421 
	C357.218048,983.170837 357.229980,982.766296 357.737488,982.161255 
z"/>
<path fill="#A6A6A6" opacity="1.000000" stroke="none" 
	d="
M1360.363159,573.145752 
	C1354.688599,575.630127 1348.429565,576.060059 1342.048706,576.043823 
	C1307.140503,575.955017 1272.232056,576.002258 1237.323608,576.002380 
	C1189.086304,576.002563 1140.849121,576.004028 1092.611816,576.000610 
	C1086.283447,576.000122 1079.966553,575.856201 1073.728638,577.407593 
	C1071.505615,577.960449 1069.066650,578.098511 1066.780396,577.874756 
	C1037.587158,575.017273 1008.309631,576.166870 979.067078,576.054321 
	C929.830872,575.864746 880.593384,576.002808 831.356445,576.002197 
	C806.111389,576.001892 780.866089,576.052856 755.621460,575.948547 
	C751.178955,575.930237 745.869568,577.234802 743.869385,570.100647 
	C758.045349,558.419067 774.042114,550.235962 789.957642,542.093140 
	C812.310608,530.656799 835.415771,520.799194 859.932007,512.476624 
	C861.618835,510.352905 863.460632,511.294434 865.376160,510.497498 
	C865.866943,510.151337 866.058960,509.925995 866.193726,509.987305 
	C867.526794,508.476746 869.341553,509.236755 871.358521,508.502319 
	C871.863281,508.152100 872.059021,507.926208 872.195435,507.987305 
	C874.235474,506.114716 876.733887,507.444183 879.413330,506.411560 
	C907.592896,496.205200 936.199219,490.592377 965.061707,485.898010 
	C1001.968750,479.895233 1039.151367,479.086487 1076.344849,480.263336 
	C1098.509155,480.964722 1120.651245,483.406006 1143.299194,487.847961 
	C1146.779907,489.827637 1149.812134,488.570038 1153.247314,489.523315 
	C1153.851562,489.936523 1154.026123,489.804260 1154.093506,489.890533 
	C1156.772583,492.009186 1159.855835,490.491425 1163.272217,491.504974 
	C1163.888672,491.904663 1164.078979,491.828735 1164.118408,491.923340 
	C1166.779419,493.968384 1169.841675,492.505096 1173.236328,493.530701 
	C1173.835938,493.949219 1174.018921,493.811798 1174.088867,493.902374 
	C1176.108154,495.809753 1178.575073,494.606415 1181.315674,495.515045 
	C1181.883911,495.907806 1182.058960,495.809509 1182.109619,495.896240 
	C1184.103760,497.818634 1186.575562,496.602325 1189.312866,497.519348 
	C1189.879028,497.915802 1190.055298,497.817291 1190.105957,497.904602 
	C1192.013306,499.797211 1194.419312,498.597168 1196.973389,499.627075 
	C1206.582886,502.141815 1215.053467,506.604889 1225.273926,507.861908 
	C1227.447510,509.385681 1229.219604,508.817047 1231.231689,509.597656 
	C1236.849854,511.340271 1240.762817,515.925049 1247.276123,515.960449 
	C1248.805298,516.687683 1249.649780,517.020691 1251.143066,517.537354 
	C1251.702148,517.948059 1252.100220,518.195129 1252.095947,518.429321 
	C1253.607544,519.109070 1255.193604,518.904053 1257.076172,519.635681 
	C1267.760254,525.496338 1279.053711,528.603333 1289.609863,533.385620 
	C1309.669678,542.473328 1329.432373,552.255920 1346.942505,565.858582 
	C1350.931030,568.957092 1356.346436,568.899963 1360.363159,573.145752 
z"/>
<path fill="#626161" opacity="1.000000" stroke="none" 
	d="
M1591.148193,1363.605957 
	C1591.125244,1369.157593 1591.686523,1375.740479 1583.164795,1377.937744 
	C1585.172363,1373.359253 1587.884644,1368.695190 1591.148193,1363.605957 
z"/>
<path fill="#8C8B8B" opacity="1.000000" stroke="none" 
	d="
M1163.304077,491.484192 
	C1160.924438,492.420868 1158.117920,491.792969 1154.766113,490.353638 
	C1157.102295,489.642242 1159.965454,489.923004 1163.304077,491.484192 
z"/>
<path fill="#949494" opacity="1.000000" stroke="none" 
	d="
M1153.233398,489.572540 
	C1150.898438,490.444031 1148.057495,490.052612 1144.695557,488.511292 
	C1147.046997,487.497986 1149.818115,488.458466 1153.233398,489.572540 
z"/>
<path fill="#949494" opacity="1.000000" stroke="none" 
	d="
M1173.221680,493.589294 
	C1170.887451,494.446594 1168.057983,494.069794 1164.754395,492.405762 
	C1167.106934,491.497345 1169.837402,492.502045 1173.221680,493.589294 
z"/>
<path fill="#8C8B8B" opacity="1.000000" stroke="none" 
	d="
M879.268188,505.901337 
	C878.075623,507.335968 875.994141,508.106873 873.002563,508.127563 
	C874.192322,506.670441 876.266479,505.896667 879.268188,505.901337 
z"/>
<path fill="#8C8B8B" opacity="1.000000" stroke="none" 
	d="
M1197.003906,499.607483 
	C1195.200439,500.381592 1193.155273,499.757385 1190.675415,498.368408 
	C1192.432495,497.567078 1194.521973,498.208954 1197.003906,499.607483 
z"/>
<path fill="#8C8B8B" opacity="1.000000" stroke="none" 
	d="
M1189.339600,497.502380 
	C1187.518433,498.438660 1185.365723,497.790131 1182.721680,496.364258 
	C1184.507080,495.550018 1186.658081,496.292786 1189.339600,497.502380 
z"/>
<path fill="#8C8B8B" opacity="1.000000" stroke="none" 
	d="
M1181.345215,495.492615 
	C1179.524658,496.430573 1177.370728,495.780823 1174.720947,494.372559 
	C1176.505615,493.551880 1178.662598,494.273865 1181.345215,495.492615 
z"/>
<path fill="#8C8B8B" opacity="1.000000" stroke="none" 
	d="
M871.263733,508.111633 
	C870.619568,509.249390 869.259888,510.100159 866.934448,510.117432 
	C867.773682,509.389496 869.218933,508.730347 871.263733,508.111633 
z"/>
<path fill="#8C8B8B" opacity="1.000000" stroke="none" 
	d="
M1257.017578,519.688477 
	C1255.882324,519.927551 1254.341431,519.748718 1252.446289,519.116638 
	C1253.598633,518.865845 1255.105347,519.068237 1257.017578,519.688477 
z"/>
<path fill="#8C8B8B" opacity="1.000000" stroke="none" 
	d="
M1231.176270,509.684052 
	C1229.948608,510.352844 1228.416260,509.920166 1226.542847,508.525543 
	C1227.602905,508.535400 1229.146606,508.927979 1231.176270,509.684052 
z"/>
<path fill="#8C8B8B" opacity="1.000000" stroke="none" 
	d="
M865.286499,510.106415 
	C864.699951,511.231842 863.413208,512.072693 861.180420,512.164673 
	C861.963013,511.440613 863.334534,510.751068 865.286499,510.106415 
z"/>
<path fill="#8C8B8B" opacity="1.000000" stroke="none" 
	d="
M1251.474365,517.431152 
	C1250.743652,517.577332 1249.785156,517.206665 1248.438477,516.481873 
	C1249.115601,516.389954 1250.181152,516.652100 1251.474365,517.431152 
z"/>
<path fill="#5A5959" opacity="1.000000" stroke="none" 
	d="
M1592.303467,1211.905396 
	C1592.127808,1211.704590 1592.275024,1211.290894 1592.651611,1210.621582 
	C1592.968018,1210.831055 1592.883179,1211.273315 1592.303467,1211.905396 
z"/>
<path fill="#A6A6A6" opacity="1.000000" stroke="none" 
	d="
M739.412354,572.029663 
	C739.573853,572.369141 739.218750,572.606873 738.551331,572.653076 
	C738.336731,572.622253 738.993408,572.088684 739.412354,572.029663 
z"/>
<path fill="#666666" opacity="1.000000" stroke="none" 
	d="
M1604.897217,931.540833 
	C1604.429443,931.581665 1604.175293,931.121521 1604.111938,930.162354 
	C1604.586304,930.107788 1604.855713,930.566589 1604.897217,931.540833 
z"/>
<path fill="#515050" opacity="1.000000" stroke="none" 
	d="
M430.592651,941.998169 
	C430.141479,941.686096 430.256775,941.092590 430.920776,940.211426 
	C431.423004,940.526367 431.319550,941.124084 430.592651,941.998169 
z"/>
<path fill="#626161" opacity="1.000000" stroke="none" 
	d="
M1606.986816,941.597534 
	C1606.481567,941.666687 1606.195801,941.196411 1606.123291,940.185791 
	C1606.618652,940.119629 1606.908569,940.590454 1606.986816,941.597534 
z"/>
<path fill="#6C6C6C" opacity="1.000000" stroke="none" 
	d="
M1615.278198,1001.439026 
	C1614.838257,1001.461609 1614.550049,1000.969238 1614.247803,1000.007080 
	C1614.735352,999.886169 1615.134155,1000.348450 1615.278198,1001.439026 
z"/>
<path fill="#515050" opacity="1.000000" stroke="none" 
	d="
M498.881439,1188.509521 
	C499.264954,1188.491089 499.543457,1188.966187 499.785645,1189.917236 
	C499.379303,1189.974243 499.054993,1189.510864 498.881439,1188.509521 
z"/>
<path fill="#515050" opacity="1.000000" stroke="none" 
	d="
M500.924561,1196.509033 
	C501.300385,1196.489136 501.573090,1196.951660 501.808960,1197.879761 
	C501.410187,1197.937744 501.093292,1197.486450 500.924561,1196.509033 
z"/>
<path fill="#666666" opacity="1.000000" stroke="none" 
	d="
M526.016602,1417.350098 
	C524.971619,1418.379395 524.185425,1419.110352 523.286194,1419.297119 
	C521.579407,1419.651367 519.736450,1419.402100 519.461182,1417.306030 
	C519.191284,1415.250854 520.818970,1414.486328 522.597412,1414.401611 
	C524.310120,1414.319824 525.917542,1414.648682 526.016602,1417.350098 
z"/>
</svg>