<svg width="298" height="145" viewBox="0 0 298 145" fill="none" xmlns="http://www.w3.org/2000/svg">
<path d="M382.688 133.767C381.451 130.243 380.222 126.712 378.986 123.188C378.624 123.259 378.269 123.337 377.906 123.408V151.258C376.414 142.292 375.242 133.902 373.573 125.618C371.875 117.213 370.02 108.809 367.605 100.589C365.189 92.3693 362.298 84.256 359.037 76.3275C355.776 68.399 351.854 60.7333 348.103 53.0179C344.423 45.4588 339.834 38.4965 333.987 32.2375C351.535 68.8679 364.777 106.692 368.259 147.414C364.685 134.165 362.12 120.609 355.748 108.134C356.856 122.748 357.964 137.369 359.002 151.123C355.783 136.736 352.693 121.561 348.949 106.55C345.162 91.3818 338.733 77.2511 330.271 63.9729C340.324 92.2414 348.778 120.837 351.329 151.606C348.217 139.685 345.539 128.396 342.285 117.277C339.002 106.045 334.996 95.0405 328.935 84.8528C334.612 107.09 339.933 129.319 338.782 152.48C336.381 134.932 332.708 117.746 326.001 101.321C325.71 101.385 325.419 101.442 325.128 101.506C326.3 107.154 327.494 112.794 328.63 118.442C329.824 124.36 331.138 130.264 332.083 136.225C333.014 142.086 333.539 148.004 333.809 154.014C332.424 148.587 330.989 143.166 329.653 137.731C325.966 122.705 321.391 107.999 315.444 93.6694C306.884 73.0453 295.758 53.9273 282.501 36.0739C276.498 27.9891 269.827 20.3518 263.014 12.9206C256.151 5.43963 248.72 -1.52271 241.587 -8.75501C240.876 -9.47966 240.45 -10.4813 239.548 -11.9022C243.228 -10.6874 246.361 -9.65011 249.494 -8.61286C249.828 -8.90415 250.169 -9.19542 250.503 -9.49381C248.677 -12.5345 246.851 -15.5752 245.018 -18.6159C245.295 -18.9072 245.579 -19.1985 245.856 -19.4969C252.783 -15.0069 259.717 -10.5168 266.644 -6.02685C266.886 -6.2684 267.127 -6.50996 267.369 -6.75151C261.664 -12.911 255.952 -19.0635 250.247 -25.223C250.418 -25.493 250.588 -25.7629 250.752 -26.0329C255.554 -23.7808 260.357 -21.5287 266.097 -18.8432C264.932 -25.6493 259.114 -28.6829 256.89 -34.6577C259.725 -33.7057 261.941 -32.9668 264.165 -32.2208C264.413 -32.4198 264.662 -32.6187 264.911 -32.8177C263.518 -35.02 262.133 -37.2224 260.74 -39.4318C260.918 -39.6947 261.095 -39.9575 261.28 -40.2204C268.306 -36.519 275.326 -32.8105 282.352 -29.1091C282.736 -29.5496 283.126 -29.9971 283.51 -30.4376C278.501 -36.8245 273.486 -43.2114 268.655 -49.3638C270.857 -53.9177 273.422 -54.0314 277.194 -51.4809C282.871 -47.6445 288.916 -44.3623 294.827 -40.874C296.397 -39.9505 298.031 -39.1263 299.63 -38.2596C299.992 -38.5793 300.362 -38.899 300.724 -39.2187C298.934 -41.8616 297.321 -44.6465 295.318 -47.1117C291.026 -52.3903 286.472 -57.4558 282.196 -62.7415C281.492 -63.6153 281.649 -65.1782 281.407 -66.4286C282.842 -66.4144 284.526 -66.8762 285.677 -66.2937C289.712 -64.2405 293.648 -61.96 297.463 -59.5231C303.438 -55.7152 309.264 -51.6799 315.203 -47.8151C316.155 -47.197 317.377 -46.998 319.444 -46.252C312.738 -59.0826 301.854 -67.3309 295.211 -79.2521C296.234 -79.0248 297.385 -79.0176 298.259 -78.5203C303.694 -75.437 309.221 -72.4745 314.421 -69.0289C320.929 -64.7236 327.138 -59.9636 333.518 -55.4665C334.505 -54.7703 335.735 -54.4222 337.205 -54.2872C331.06 -67.7856 318.947 -76.8863 311.366 -89.2267C311.551 -89.4753 311.736 -89.724 311.921 -89.9727C313.619 -89.3688 315.565 -89.1059 316.972 -88.0971C327.572 -80.4882 338.484 -73.2204 348.444 -64.8301C354.241 -59.9423 358.76 -53.4062 363.335 -47.2254C369.438 -38.9771 375.029 -30.3453 380.897 -21.9123C381.245 -21.415 382.098 -21.2658 382.709 -20.9603V-3.21353C371.484 -19.1487 359.812 -34.6861 344.303 -46.9128C344.445 -45.6837 344.736 -44.547 345.34 -43.6163C347.024 -41.0303 348.849 -38.5367 350.59 -35.9862C355.357 -29.0097 360.216 -22.0899 364.82 -15.0068C368.102 -9.9627 371.008 -4.66996 374.12 0.487848C376.954 5.18387 379.846 9.85148 382.709 14.5333V33.701C378.681 27.2147 374.979 20.501 370.546 14.306C362.653 3.27994 354.369 -7.46908 346.114 -18.2323C344.935 -19.7739 343.01 -20.7473 341.432 -21.9905C341.134 -21.685 340.843 -21.3795 340.544 -21.074C344.636 -14.6374 348.835 -8.27183 352.778 -1.74997C357.055 5.31892 361.289 12.4375 365.175 19.7267C368.87 26.6464 372.13 33.8005 375.512 40.8907C377.97 46.0414 380.315 51.2419 382.709 56.421V82.686C378.077 72.1217 373.395 61.5788 368.827 50.9861C362.731 36.8483 354.142 24.2167 345.169 11.8266C343.109 8.97768 340.544 6.49115 338.214 3.8412C337.852 4.08985 337.489 4.33846 337.127 4.58711C339.464 8.94922 341.852 13.2972 344.139 17.6877C349.617 28.1951 355.534 38.5036 360.373 49.3024C364.926 59.4546 368.585 70.033 372.145 80.5901C374.844 88.5968 376.812 96.8522 379.029 105.015C380.343 109.853 381.494 114.741 382.716 119.601C382.716 124.332 382.716 129.064 382.716 133.795L382.688 133.767Z" fill="#10B7C2"/>
<path d="M317.235 156.793C316.176 153.774 314.826 150.818 314.116 147.721C310.308 131.025 305.569 114.586 298.912 98.8283C293.065 84.996 286.387 71.5189 277.571 59.2354C273.017 52.8983 269.124 45.9998 263.98 40.1955C253.231 28.0541 241.857 16.4597 230.688 4.69479C230.099 4.0767 229.026 3.9133 228.181 3.53676C228.507 3.1176 228.834 2.69843 229.161 2.27927C231.044 2.44267 232.934 2.6132 235.505 2.84054C234.674 0.531608 234.042 -1.24446 232.997 -4.14307C236.628 -2.08989 239.697 -0.697476 242.397 1.22072C254.602 9.90942 265.351 20.2605 274.97 31.6773C283.375 41.6448 291.048 52.2518 296.603 64.1232C301.676 74.9717 306.812 85.8699 310.734 97.1517C314.038 106.643 315.899 116.675 317.888 126.571C319.124 132.724 319.671 139.061 319.998 145.341C320.19 149.085 319.344 152.879 318.961 156.651C318.385 156.701 317.81 156.743 317.235 156.793Z" fill="#10B7C2"/>
<path d="M298.302 153.624C296.916 149.262 295.332 144.957 294.188 140.531C288.632 118.926 280.824 98.1531 269.408 79.0209C262.737 67.8314 254.943 57.1961 246.673 47.1149C238.681 37.3677 229.438 28.6506 220.75 19.4788C219.961 18.6476 219.194 17.795 217.993 16.4878C220.785 16.0047 222.554 15.0172 221.076 11.2021C224.117 12.8149 226.469 13.5963 228.238 15.074C236.095 21.6314 244.4 27.8122 251.37 35.2364C259.156 43.5272 266.346 52.5712 272.598 62.0769C285.13 81.1238 293.691 102.053 297.967 124.489C299.538 132.716 299.573 141.241 300.198 149.639C300.291 150.896 299.808 152.204 299.587 153.482C299.161 153.532 298.728 153.575 298.302 153.624Z" fill="#10B7C2"/>
<path d="M279.467 149.923C278.451 147.245 277.378 144.588 276.419 141.895C272.618 131.139 269.293 120.198 264.988 109.648C258.005 92.5267 248.783 76.5773 236.698 62.5177C228.173 52.5928 218.994 43.2221 210.035 33.6738C208.536 32.0753 207.336 30.7893 209.098 28.587C210.952 26.2638 212.806 27.9689 213.957 28.8712C220.884 34.2776 227.91 39.6272 234.34 45.602C243.625 54.2197 251.49 64.2085 257.941 75.057C268.576 92.9459 276.945 111.837 279.68 132.773C280.256 137.171 280.682 141.59 281.037 146.009C281.136 147.238 280.717 148.509 280.54 149.767C280.185 149.817 279.822 149.874 279.467 149.923Z" fill="#10B7C2"/>
<path d="M259.945 145.803C253.316 126.92 246.333 108.221 235.683 91.163C224.97 74.0201 211.123 59.4632 196.993 45.1194C197.284 44.622 197.582 44.1248 197.873 43.6274C199.188 43.8051 200.722 43.6061 201.788 44.2242C209.013 48.3803 215.642 53.3391 220.977 59.8112C227.172 67.3277 233.786 74.5742 239.285 82.5738C250.226 98.4877 257.551 116.05 260.499 135.26C261.011 138.578 261.146 141.945 261.451 145.292C260.947 145.462 260.442 145.633 259.938 145.803H259.945Z" fill="#10B7C2"/>
<path d="M238.685 141.926C231.126 127.426 224.767 112.663 216.135 99.3781C207.496 86.0928 196.591 74.2782 187 61C189.266 62.3001 191.689 63.38 193.771 64.9288C209.017 76.2887 219.922 91.1582 228.469 107.96C233.47 117.8 236.724 128.186 238.67 139.014C238.827 139.88 238.692 140.797 238.692 141.926H238.685Z" fill="#10B7C2"/>
<path d="M219 68.5C203.4 48.9 178.167 32.6667 167.5 27L169.5 25.5L194 38.5L219 65C220.5 67.1667 222.6 70.9 219 68.5Z" fill="#10B7C2"/>
<path d="M234.5 58C218.9 38.4 193.667 22.1667 183 16.5L185 15L209.5 28L234.5 54.5C236 56.6667 238.1 60.4 234.5 58Z" fill="#10B7C2"/>
<path d="M219.422 134.314C209.887 114.024 197.398 95.7444 181.456 78.9922C191.935 80.406 218.022 113.505 219.422 134.314Z" fill="#10B7C2"/>
<path d="M193.208 121.235C189.528 115.956 185.841 110.671 182.161 105.392C182.487 105.158 182.821 104.93 183.148 104.696C186.842 109.967 190.537 115.232 194.224 120.503C193.883 120.745 193.542 120.993 193.208 121.235Z" fill="#10B7C2"/>
<path d="M328.591 -26.2227C320.428 -34.1943 311.689 -41.4307 302.011 -47.4717C301.672 -47.2991 301.34 -47.1328 301.001 -46.9602C301.429 -45.8287 301.589 -44.4607 302.337 -43.6041C308.18 -36.9431 314.15 -30.3907 320.038 -23.768C321.189 -22.4767 322.116 -20.9872 323.068 -19.6959C319.827 -21.4411 316.356 -23.3141 312.552 -25.3598C311.555 -20.3288 316.337 -18.0083 316.72 -13.6613C310.903 -18.3918 305.329 -22.9305 299.748 -27.4693L298.738 -26.4657C301.679 -19.7151 307.611 -15.0613 311.446 -8.71986C305.693 -12.5554 299.94 -16.3846 294.186 -20.2201C293.86 -19.9005 293.541 -19.5808 293.215 -19.2612C296.974 -13.4056 300.732 -7.55002 304.491 -1.68802C304.274 -1.54099 304.05 -1.39393 303.833 -1.2469C301.538 -2.84504 299.243 -4.44958 296.954 -6.04773C296.641 -5.84317 296.334 -5.64503 296.021 -5.44046C297.447 -3.088 298.866 -0.735502 300.291 1.61697C290.575 -3.61216 282.763 -11.8203 272.829 -16.7362C272.554 -16.4741 272.279 -16.2055 272.004 -15.9434C273.18 -14.3836 274.344 -12.8111 275.539 -11.2577C280.251 -5.14 284.975 0.964895 289.667 7.10177C290.095 7.65792 290.555 8.36749 290.575 9.01314C290.607 10.0551 290.619 11.6086 290.012 12.0241C289.322 12.4908 287.679 12.3182 286.905 11.7748C282.13 8.39311 277.546 4.73012 272.771 1.34205C265.19 -4.03411 257.506 -9.27601 249.848 -14.5499C249.259 -14.9526 248.531 -15.1635 247.239 -14.9909C247.853 -14.096 248.339 -13.0796 249.093 -12.3253C258.618 -2.81313 268.584 6.31546 276 17.707C276.824 18.9728 277.067 20.6157 277.578 22.086C277.252 22.3481 276.926 22.6166 276.6 22.8787C274.855 21.9006 272.976 21.1015 271.384 19.9189C261.776 12.7656 252.456 5.18402 242.592 -1.58572C234.32 -7.26233 225.434 -12.0376 216.804 -17.1836C216.133 -17.58 215.315 -17.727 214.158 -17.3946C215.749 -16.0393 217.277 -14.5946 218.939 -13.3353C233.093 -2.62771 246.587 8.79584 257.992 22.4823C260.184 25.1097 262.952 27.5325 263.266 31.2657C263.016 31.5598 262.773 31.8603 262.524 32.1543C259.929 30.4091 257.276 28.7278 254.738 26.8996C244.823 19.7591 235.164 12.2478 225.012 5.46531C206.225 -7.08971 186.299 -17.5096 164.743 -24.5862C158.785 -26.5423 152.821 -28.5113 146.639 -29.9177C166.386 -22.6429 185.366 -13.8083 202.875 -2.19938C220.352 9.39036 236.973 22.0796 248.889 39.7039L248.064 40.7779C245.993 39.5186 243.839 38.3742 241.87 36.9679C233.246 30.8118 224.936 24.1828 216.024 18.487C205.719 11.8962 195.153 5.59313 184.24 0.0763334C169.531 -7.35823 154.099 -13.1499 138.163 -17.5608C125.403 -21.0959 112.509 -23.8191 99.347 -25.1615C91.6951 -25.9414 84.0304 -26.5807 76.3529 -27.0474C69.6854 -27.4501 62.9861 -27.8528 56.3251 -27.6419C47.5672 -27.3606 38.8285 -26.4464 30.0771 -25.8711C27.9612 -25.7305 25.8005 -25.641 23.7037 -25.9095C22.7704 -26.031 21.69 -26.9643 21.2361 -27.8209C21.038 -28.198 22.0799 -29.7834 22.8151 -30.0263C28.0953 -31.7651 33.35 -33.7659 38.7837 -34.8207C55.4364 -38.0554 72.3129 -39.4745 89.2468 -38.6435C100.185 -38.1065 111.065 -36.3806 121.97 -35.1979C123.191 -35.0637 124.412 -34.9933 125.64 -34.891C125.684 -35.1659 125.729 -35.4408 125.774 -35.7221C120.283 -36.8855 114.823 -38.1769 109.307 -39.1869C88.9144 -42.9202 68.3047 -43.5594 47.6503 -42.9969C39.6276 -42.7795 31.5729 -42.2745 23.6269 -41.2005C19.3183 -40.6188 18.0142 -42.2745 17.6946 -46.6662C31.9628 -52.867 47.7654 -53.9729 63.1587 -57.361C62.2254 -57.6678 61.2856 -58.2367 60.3587 -58.2303C53.0392 -58.1856 45.7198 -58.1281 38.4067 -57.8916C30.8251 -57.6423 23.2434 -57.1883 14.8371 -56.7792C16.365 -58.5308 17.2791 -59.5855 18.5193 -61.0111C16.8956 -61.7782 15.5595 -62.4111 13.6801 -63.2997C21.3384 -67.7553 29.815 -68.3945 37.3838 -71.4821C37.371 -71.8593 37.3582 -72.2301 37.3454 -72.6072C34.6477 -72.7159 31.9501 -72.9013 29.2524 -72.9269C23.595 -72.978 17.9312 -72.9397 11.8071 -72.9397C14.965 -74.5953 17.848 -76.104 20.7375 -77.6191C20.7119 -78.0026 20.6928 -78.3861 20.6673 -78.7697C17.3048 -79.2364 13.9358 -79.6967 10.5733 -80.1633L10.4135 -80.8154C13.8463 -82.5414 17.2791 -84.2673 20.7119 -85.9933C20.616 -86.2874 20.5201 -86.5751 20.4243 -86.8691C16.6718 -87.1887 12.9195 -87.5084 9.16701 -87.828C9.06473 -88.0901 8.95606 -88.3458 8.85378 -88.6079C14.735 -90.8453 20.6224 -93.0827 26.5036 -95.3201C26.4397 -95.6397 26.3693 -95.9529 26.3054 -96.2726C20.0471 -98.6314 13.3414 -95.9018 6.60998 -97.7045C7.53051 -98.8168 8.33594 -99.8013 9.44825 -101.157C8.06106 -101.911 6.8656 -102.563 5.24828 -103.439C15.1056 -108.872 26.2351 -109.352 36.1245 -113.392C36.0733 -113.865 36.0222 -114.344 35.9774 -114.817C31.688 -114.888 27.3985 -115.054 23.1091 -115.009C17.0681 -114.945 11.0272 -114.638 4.98624 -114.677C4.1616 -114.677 2.83187 -115.981 2.67205 -116.857C2.51224 -117.707 3.33686 -119.414 4.09119 -119.663C10.4646 -121.792 16.8445 -123.984 23.3649 -125.544C31.1063 -127.398 39.0011 -128.613 46.8128 -130.172C48.0722 -130.422 49.2676 -131.01 50.4886 -131.445C50.463 -131.719 50.4311 -132.001 50.4055 -132.276C48.3855 -132.557 46.3653 -133.094 44.3516 -133.068C34.6029 -132.947 24.8479 -132.704 15.0992 -132.435C11.5066 -132.333 7.91402 -131.943 4.32139 -131.886C2.97255 -131.867 1.61727 -132.403 0.262039 -132.691C0.172543 -133.158 0.0894961 -133.624 0 -134.091C2.6657 -135.312 5.22277 -137.07 8.02272 -137.658C21.2745 -140.432 34.5646 -143.028 47.8995 -145.4C54.5286 -146.582 61.2729 -147.145 67.9595 -148.021C68.733 -148.123 69.4744 -148.436 70.2352 -148.653C70.2352 -149.005 70.2353 -149.357 70.2289 -149.702C65.7222 -150.136 61.2153 -150.987 56.7149 -150.923C40.075 -150.686 23.4415 -150.136 6.80163 -149.74C5.49755 -149.708 4.18714 -149.989 2.87666 -150.124C2.79356 -150.456 2.70412 -150.795 2.62102 -151.127C4.04656 -151.805 5.40175 -152.764 6.89762 -153.115C16.2819 -155.308 25.6214 -157.897 35.1272 -159.335C46.1544 -161.004 57.3287 -161.765 68.4646 -162.64C77.0178 -163.312 85.603 -163.523 94.1755 -163.976C95.1024 -164.028 96.0166 -164.315 96.8923 -165.006C68.2664 -170.618 39.3911 -168.502 10.5797 -168.119C10.4966 -168.49 10.4135 -168.854 10.3303 -169.225C12.3504 -169.992 14.3065 -171.098 16.3969 -171.462C28.2871 -173.527 40.1454 -176.09 52.1379 -177.177C65.5176 -178.392 79.025 -178.494 92.4814 -178.545C102.53 -178.583 112.618 -178.174 122.622 -177.241C132.736 -176.295 142.759 -174.435 152.827 -173.028C154.061 -172.856 155.333 -173.003 156.765 -173.003C153.371 -176.474 107.165 -184.471 91.6249 -184.906C69.1805 -185.532 46.7552 -186.625 24.0616 -187.904C27.1684 -188.639 30.2561 -189.528 33.3948 -190.096C50.6228 -193.19 68.0234 -194.252 85.4943 -194.085C95.7544 -193.983 106.053 -194.047 116.255 -193.184C126.375 -192.327 136.418 -190.506 146.46 -188.907C155.058 -187.539 163.676 -186.159 172.178 -184.298C181.69 -182.221 191.074 -179.581 200.522 -177.228C203.271 -176.544 206.052 -176.007 208.82 -175.406C208.929 -175.732 209.044 -176.058 209.152 -176.384C208.034 -177.043 206.985 -177.893 205.783 -178.315C199.883 -180.392 193.989 -182.483 188.012 -184.324C179.242 -187.034 170.509 -189.994 161.572 -192.014C149.516 -194.731 137.332 -196.943 125.116 -198.829C113.046 -200.689 100.875 -201.897 88.7418 -203.31C85.488 -203.687 82.1957 -203.86 78.9227 -203.981C71.7183 -204.25 64.5074 -204.365 57.303 -204.672C53.3204 -204.838 49.3507 -205.26 45.3809 -205.573L45.2531 -206.398C48.4174 -206.941 51.5688 -207.906 54.7396 -207.957C75.3492 -208.303 95.9653 -208.705 116.581 -208.533C124.112 -208.469 131.674 -207.139 139.141 -205.905C150.302 -204.064 161.445 -202.057 172.497 -199.647C181.997 -197.576 191.381 -194.942 200.772 -192.379C209.325 -190.039 217.878 -187.642 226.316 -184.918C234.211 -182.374 241.959 -179.363 249.771 -176.557C251.426 -175.962 253.082 -175.362 255.403 -174.531C252.488 -177.919 220.103 -193.331 214.247 -195.115C199.909 -199.487 185.685 -204.243 171.96 -208.667C180.641 -208.667 189.987 -209.05 199.276 -208.507C204.089 -208.226 208.89 -206.538 213.55 -205.049C220.991 -202.671 228.368 -200.069 235.675 -197.288C244.382 -193.977 253.133 -190.723 261.578 -186.823C272.253 -181.895 282.878 -176.742 293.093 -170.932C302.72 -165.459 311.836 -159.08 321.061 -152.924C323.183 -151.511 324.801 -149.35 326.731 -147.624C327.198 -147.209 327.99 -147.164 328.63 -146.947V-136.086C322.256 -140.893 314.847 -143.456 307.215 -145.815C310.839 -141.717 314.681 -137.92 318.74 -134.366C321.905 -131.592 325.325 -129.111 328.63 -126.503V-115.649C322.371 -119.682 316.094 -123.671 308.602 -125.455C308.838 -124.157 309.196 -123.026 309.944 -122.284C314.119 -118.18 318.376 -114.153 322.64 -110.138C324.589 -108.303 326.629 -106.571 328.63 -104.788V-94.5658C321.585 -98.689 315.288 -104.244 306.364 -106.68C306.991 -105.267 307.112 -104.628 307.489 -104.219C310.328 -101.131 313.134 -98.0113 316.107 -95.058C320.211 -90.9859 324.449 -87.0545 328.63 -83.0655V-72.2109C321.483 -78.0857 314.023 -83.4683 305.194 -87.6107C305.098 -86.3322 304.824 -85.597 305.06 -85.3541C312.891 -77.325 320.767 -69.3406 328.636 -61.3499V-49.8561C320.754 -56.4596 312.834 -63.0056 302.823 -67.864C303.213 -66.3426 303.174 -65.4603 303.596 -65.0065C311.913 -56.0952 320.281 -47.2287 328.636 -38.3558V-26.2227H328.591Z" fill="#10B7C2"/>
<path d="M25.9209 -12.4528C27.7684 -13.3222 29.5391 -14.4537 31.4761 -15.0099C42.0366 -18.0399 52.7953 -19.913 63.797 -20.2454C71.321 -20.4692 78.8643 -21.1531 86.3564 -20.7568C95.2613 -20.2837 104.153 -19.1586 112.969 -17.7842C120.723 -16.576 128.445 -14.9651 136.027 -12.9387C149.515 -9.33326 162.434 -4.10416 174.887 2.2181C191.374 10.5924 206.741 20.6224 220.217 33.35C224.372 37.275 228.093 41.6731 231.96 45.8922C232.427 46.4036 232.58 47.1963 232.881 47.8611C232.695 48.1104 232.51 48.3598 232.324 48.6091C229.269 46.6082 226.175 44.652 223.158 42.5872C216.663 38.1444 210.219 33.6185 203.73 29.1692C193.1 21.8817 181.676 16.0388 169.997 10.6691C154.725 3.65641 138.967 -2.01379 122.474 -5.29957C111.69 -7.44748 100.804 -9.41633 89.8723 -10.3496C76.9082 -11.4492 63.8481 -11.5643 50.8264 -11.6794C43.8649 -11.7433 36.897 -10.8739 29.9291 -10.5287C28.6698 -10.4647 27.3849 -10.893 26.1192 -11.0912C26.0488 -11.5515 25.9849 -12.0054 25.9146 -12.4656L25.9209 -12.4528Z" fill="#10B7C2"/>
<path d="M32.7876 3.03686C36.751 1.89259 40.644 0.288062 44.6905 -0.306448C52.7004 -1.49547 60.7743 -2.42243 68.8545 -2.90827C75.7968 -3.33018 82.835 -3.52831 89.739 -2.86988C99.9607 -1.89181 110.157 -0.39599 120.257 1.48343C139.224 5.00574 156.963 12.1335 173.699 21.5689C182.425 26.4912 189.509 31.4526 197.5 37.5C204.008 42.4223 210.985 49.9193 217 55.5C216.668 55.9347 216.342 56.363 216.009 56.7977C212.576 54.6306 209.197 51.5885 205.732 49.4661C195.428 43.1759 185.283 36.5979 174.728 30.7615C167.147 26.5743 159.162 23.0201 151.089 19.8494C137.434 14.486 123.3 10.7463 108.859 7.9144C88.3327 3.88707 67.6334 4.09803 46.9087 4.23866C43.4247 4.26423 39.9473 4.69894 36.4633 4.80761C35.2999 4.84597 34.1173 4.45603 32.9474 4.25786C32.8963 3.84874 32.8451 3.43958 32.7876 3.03046V3.03686Z" fill="#10B7C2"/>
<path d="M198.029 62.5704C193.401 59.7384 188.888 56.6956 184.132 54.1066C174.102 48.6473 164.136 43.0027 153.786 38.2083C138.827 31.2787 123.044 26.5994 106.839 23.6076C99.4042 22.2396 91.8354 21.4853 84.2986 20.8588C75.9754 20.1684 67.6204 19.8296 59.2717 19.5867C55.4745 19.478 51.6646 20.0405 47.8546 20.13C45.9816 20.1748 44.0957 19.8296 42.2163 19.6634C42.146 19.3246 42.082 18.9922 42.0117 18.6534C45.0993 17.8287 48.155 16.8315 51.281 16.2114C63.7401 13.7438 76.4038 13.6096 88.9652 14.3895C106.596 15.4826 123.754 19.2159 140.406 25.4614C158.293 32.1736 174.888 40.9698 189.584 53.2052C192.794 55.8773 195.785 58.7987 198.879 61.6115C198.598 61.9311 198.317 62.2443 198.035 62.564L198.029 62.5704Z" fill="#10B7C2"/>
<path d="M53.6016 34.9931C81.9207 22.3933 160.294 43.5079 179.094 68.6819C140.592 45.0613 98.7779 33.8552 53.6016 34.9931Z" fill="#10B7C2"/>
<path d="M69.0522 50.6937C87.4693 44.3715 144.689 59.1894 155.883 73.2659C128.497 59.7264 99.5576 52.1832 69.0522 50.6937Z" fill="#10B7C2"/>
<path d="M120.391 75.0436C112.675 73.0492 104.953 71.0611 97.2368 69.0666C97.3007 68.8237 97.3581 68.5872 97.4221 68.3442C105.189 70.3259 112.956 72.3076 120.723 74.2893C120.614 74.5386 120.506 74.7943 120.397 75.0436H120.391Z" fill="#10B7C2"/>
</svg>
