<svg width="293" height="171" viewBox="0 0 293 171" fill="none" xmlns="http://www.w3.org/2000/svg">
<g clip-path="url(#clip0_49_26626)">
<path d="M-78.6701 82.4191C-77.6505 79.8458 -76.8561 77.1543 -75.5809 74.7157C-70.8321 65.6529 -65.1431 57.1604 -58.3552 49.5339C-51.7684 42.131 -44.6376 35.2061 -37.7224 28.0952C-36.0279 26.3554 -34.2458 24.704 -32.5033 23.0159L-32.9074 22.4904C-34.04 23.0936 -35.314 23.5246 -36.2789 24.3225C-44.7676 31.3694 -53.7514 37.9348 -61.5179 45.7129C-70.5391 54.749 -78.4642 64.8769 -86.9125 74.49C-88.2554 76.017 -89.8274 77.344 -91.2948 78.7618C-91.6793 78.5241 -92.0638 78.2866 -92.4429 78.0479C-91.6017 75.5513 -91.1296 72.8418 -89.8479 70.589C-85.4127 62.7879 -80.9005 55.0167 -76.0199 47.4861C-72.9757 42.7826 -69.2271 38.5333 -65.7903 34.0825C-66.033 33.8079 -66.2758 33.5333 -66.5175 33.264C-68.2423 34.718 -70.1144 36.0283 -71.6774 37.6451C-77.6554 43.8367 -83.6513 50.0205 -89.3993 56.4175C-93.192 60.6364 -96.5642 65.2294 -100.146 69.6407C-100.707 70.3318 -101.259 71.0983 -101.989 71.5564C-102.873 72.1084 -103.936 72.3689 -104.922 72.7527C-105.007 71.7454 -105.463 70.575 -105.107 69.7564C-102.893 64.6329 -100.671 59.4969 -98.1116 54.5467C-95.7848 50.0405 -93.0141 45.7665 -90.4801 41.3709C-90.1633 40.818 -90.0808 40.1265 -89.8933 39.4983L-90.6216 38.9441C-92.9956 41.3582 -95.5257 43.6413 -97.7229 46.21C-102.846 52.2066 -107.812 58.3395 -112.837 64.4173C-113.008 64.6246 -113.148 64.9141 -113.372 65.0101C-114.802 65.6402 -115.984 68.1058 -117.678 66.3919C-118.446 65.6195 -118.357 63.3429 -117.848 62.0674C-115.647 56.5723 -113.137 51.2022 -110.764 45.7801C-110.278 44.6792 -109.876 43.5388 -109.432 42.4182C-109.644 42.2206 -109.855 42.0283 -110.067 41.8306C-111.33 42.925 -112.738 43.8865 -113.825 45.1302C-117.969 49.8643 -122.003 54.6884 -126.093 59.4733C-126.414 59.851 -126.832 60.1529 -127.54 60.2824C-125.975 56.691 -124.405 53.0986 -122.841 49.5019C-123.211 49.2836 -123.576 49.0644 -123.946 48.8461C-126.439 51.9309 -128.932 55.0157 -131.419 58.1049C-131.581 58.063 -131.748 58.022 -131.909 57.9854C-130.214 53.0614 -128.52 48.132 -126.83 43.2089C-127.081 43.0732 -127.332 42.9322 -127.582 42.7965C-132.289 45.2635 -134.555 50.4625 -139.048 53.2916C-135.379 46.2907 -131.716 39.2907 -128.047 32.2897C-128.406 32.0695 -128.764 31.8546 -129.124 31.6344C-135.313 36.7922 -139.31 43.8312 -144.443 50.0112C-143.898 47.3378 -143.353 44.6697 -142.808 41.9963L-143.903 41.3608C-146.126 43.2798 -148.348 45.1987 -150.614 47.153C-145.41 36.2472 -138.518 26.2752 -133.93 15.0696C-142.477 21.621 -148.101 30.5581 -154.424 38.831C-157.091 32.7306 -156.293 28.4657 -151.766 21.5552C-148.244 16.1869 -145.093 10.5674 -141.783 5.06197C-140.591 3.07302 -139.41 1.08068 -138.732 -1.28705C-146.78 3.78181 -152.12 11.3526 -157.997 18.3671C-160.478 14.5755 -159.97 9.47805 -156.855 4.61874C-152.392 -2.33518 -148.074 -9.39447 -143.71 -16.4126C-143.489 -16.7666 -143.379 -17.1881 -143.488 -17.817C-150.891 -13.5535 -156.002 -6.80012 -161.994 -0.594992C-162.488 -3.29289 -163.571 -5.78404 -163.183 -8.02179C-162.754 -10.487 -161.159 -12.8354 -159.738 -15.0147C-155.969 -20.8076 -152.019 -26.4798 -148.164 -32.2224C-147.934 -32.5614 -147.918 -33.0428 -148.113 -33.7771C-154.871 -30.4069 -159.799 -24.8199 -164.945 -19.3415C-167.684 -25.5661 -167.02 -28.6079 -162.961 -33.2055C-160.497 -35.999 -158.553 -39.2584 -156.403 -42.3298C-155.13 -44.1466 -153.863 -45.9677 -152.702 -47.8574C-152.452 -48.2661 -152.661 -48.9592 -152.659 -49.5205C-153.196 -49.4168 -153.861 -49.4766 -154.241 -49.1762C-157.723 -46.4164 -161.161 -43.5986 -164.602 -40.7914C-165.889 -39.742 -167.155 -38.6636 -168.705 -37.3681C-169.163 -39.8691 -170.162 -42.2931 -169.851 -44.5331C-169.57 -46.5424 -168.001 -48.4572 -166.723 -50.2198C-163.922 -54.0869 -161.285 -58.1604 -157.968 -61.5553C-152.182 -67.4753 -146.081 -73.112 -139.832 -78.5446C-134.133 -83.4972 -128.089 -88.0622 -122.132 -92.7156C-118.991 -95.1765 -115.814 -97.6219 -112.479 -99.7995C-106.549 -103.672 -100.528 -107.403 -94.4654 -111.058C-88.9483 -114.388 -83.4161 -117.726 -77.7167 -120.721C-71.7615 -123.851 -65.6915 -126.804 -59.5026 -129.437C-50.3504 -133.339 -41.1323 -137.12 -31.7827 -140.514C-24.507 -143.159 -17.0859 -145.551 -9.55622 -147.319C3.89477 -150.478 17.405 -153.494 31.021 -155.781C39.883 -157.27 48.9788 -157.362 57.9729 -158.039C58.4286 -158.073 58.9128 -157.771 59.1863 -157.689C42.2417 -153.847 25.1055 -150.421 8.22146 -146.006C-8.56871 -141.62 -24.8598 -135.648 -40.7155 -128.469C-56.5253 -121.309 -71.7781 -113.24 -86.0773 -103.414C-86.0045 -103.196 -85.9253 -102.974 -85.8525 -102.757C-85.0375 -103.021 -84.1793 -103.2 -83.4114 -103.572C-74.8542 -107.749 -66.4741 -112.324 -57.7331 -116.068C-46.468 -120.895 -35.025 -125.38 -23.4494 -129.412C-14.6186 -132.485 -5.53684 -134.938 3.57269 -137.088C13.9733 -139.546 24.4464 -141.908 35.0219 -143.32C45.963 -144.777 57.0618 -145.163 68.1045 -145.765C72.6999 -146.017 77.3365 -145.622 81.9477 -145.487C82.6774 -145.467 83.4049 -145.248 84.1815 -144.73C42.2428 -139.862 1.18315 -131.933 -36.8988 -112.867C-36.8405 -112.608 -36.7821 -112.35 -36.7238 -112.091C-35.0781 -112.474 -33.4034 -112.759 -31.7952 -113.257C-23.6059 -115.778 -15.5243 -118.708 -7.23436 -120.829C5.00752 -123.954 17.3192 -126.938 29.744 -129.184C39.2198 -130.895 48.8919 -131.774 58.519 -132.297C69.0668 -132.869 79.6623 -132.728 90.2351 -132.622C94.0808 -132.583 97.9206 -131.735 101.791 -130.689C68.3772 -127.771 35.1613 -124.252 3.54001 -112.407C3.57032 -112.121 3.60154 -111.829 3.63717 -111.544C4.61201 -111.657 5.59219 -111.71 6.55534 -111.886C13.4643 -113.139 20.3476 -114.563 27.2868 -115.651C34.9845 -116.861 42.7044 -118.07 50.4593 -118.757C68.0369 -120.312 85.6343 -120.556 103.205 -118.513C105.671 -118.228 108.103 -117.589 110.542 -117.062C111.121 -116.937 111.662 -116.623 112.282 -115.73C111.217 -115.536 110.166 -115.239 109.097 -115.164C102.696 -114.741 96.2851 -114.371 89.8847 -113.976C85.7901 -113.722 81.6717 -113.689 77.6162 -113.161C68.0953 -111.936 58.5756 -110.646 49.1142 -109.036C44.3888 -108.232 39.7929 -106.66 35.1381 -105.44C35.1699 -105.115 35.2018 -104.791 35.2326 -104.473C37.7853 -104.588 40.3413 -104.654 42.8905 -104.818C50.6359 -105.316 58.3704 -106.236 66.1201 -106.29C77.8515 -106.374 89.5987 -106.07 101.323 -105.504C106.088 -105.276 110.805 -103.961 115.53 -103.055C116.334 -102.899 117.056 -102.316 117.814 -101.933C117.8 -101.617 117.781 -101.3 117.768 -100.984C115.036 -100.616 112.317 -100.086 109.573 -99.9026C102.559 -99.4387 95.5085 -99.3478 88.5108 -98.7C79.8745 -97.901 71.2772 -96.7077 62.6693 -95.6334C61.7123 -95.5133 60.7973 -95.0435 59.8638 -94.7352C59.9087 -94.4299 59.958 -94.131 60.0028 -93.8258C62.9568 -93.7612 65.9156 -93.6096 68.867 -93.6491C81.507 -93.8167 94.1118 -93.395 106.624 -91.4659C109.957 -90.9537 113.294 -90.3545 116.558 -89.5273C117.429 -89.3071 118.044 -88.0832 118.777 -87.3209C117.952 -86.7796 117.162 -85.8376 116.292 -85.7554C110.784 -85.2263 105.254 -84.8855 99.7332 -84.4914C95.4659 -84.1892 91.1981 -83.9199 86.9319 -83.6124C85.4171 -83.5057 83.896 -83.4034 82.4046 -83.1691C81.0461 -82.9591 79.7208 -82.5682 78.3911 -81.7805C91.2719 -79.3084 104.527 -79.7535 116.731 -75.9864C116.568 -74.1747 116.445 -72.7443 116.268 -70.8257C108.55 -70.2057 100.383 -69.5475 92.2147 -68.8946C92.193 -68.4122 92.1659 -67.9288 92.1441 -67.4463C100.029 -65.9521 107.919 -64.4588 115.803 -62.9645C115.794 -62.5615 115.79 -62.1647 115.781 -61.7616L109.018 -60.5243L108.943 -59.5207C111.004 -58.6221 113.062 -57.7171 115.124 -56.8184C115.075 -56.6006 115.034 -56.3785 114.985 -56.1607C110.532 -55.5825 106.074 -55.0033 101.62 -54.425C101.579 -54.1424 101.538 -53.8546 101.496 -53.5719C105.174 -50.8132 110.412 -51.7604 114.559 -48.7244C108.637 -48.2075 103.241 -47.7318 97.8387 -47.2605C97.8057 -46.8695 97.7685 -46.4722 97.7356 -46.0812C103.051 -44.8043 108.36 -43.5265 113.675 -42.2495C113.649 -41.9699 113.618 -41.6892 113.593 -41.4095C111.441 -40.873 109.285 -40.3355 107.134 -39.799C107.103 -39.4578 107.073 -39.1114 107.042 -38.7702C108.987 -37.8777 110.932 -36.9851 112.877 -36.0926C102.33 -34.3722 91.5813 -35.051 81.1562 -32.9073C81.1556 -32.5497 81.155 -32.1922 81.1491 -31.8336C86.3849 -31.3506 91.636 -31.0244 96.844 -30.3328C102.001 -29.6485 107.109 -28.6031 112.238 -27.7102C112.24 -27.43 112.242 -27.1499 112.243 -26.8698C111.529 -26.2937 110.816 -25.7123 109.921 -24.9875C110.521 -24.1404 111.056 -23.3804 112.034 -22.003C91.6955 -21.2904 71.7019 -20.8278 52.3922 -15.244C52.422 -14.991 52.4507 -14.7433 52.4805 -14.4903C56.7366 -14.8235 60.9917 -15.1619 65.2478 -15.4951C79.6914 -16.6251 94.0826 -16.5687 108.316 -13.4091C109.709 -13.0976 110.929 -12.5618 110.611 -10.48C110.282 -8.31342 108.972 -8.59071 107.514 -8.53299C101.465 -8.28981 95.3996 -8.19754 89.3734 -7.65052C80.2909 -6.82487 71.1761 -6.02628 62.195 -4.52625C54.4418 -3.22884 46.7991 -1.1763 39.2108 0.932352C33.1349 2.62131 27.0889 4.56332 21.28 6.98986C12.9219 10.4822 4.5441 14.0771 -3.37323 18.4457C-12.0701 23.2429 -20.5578 28.5517 -28.5916 34.3879C-39.8394 42.5554 -50.0065 52.0321 -59.0967 62.6151C-64.4462 68.8456 -69.8604 75.0221 -75.2874 81.1898C-75.9112 81.8979 -76.8083 82.3754 -77.5755 82.9612C-77.9386 82.7802 -78.2964 82.5982 -78.6594 82.4171L-78.6701 82.4191Z" fill="#BEC210"/>
<path d="M-64.7422 86.6173C-63.7713 84.6799 -62.8919 82.6932 -61.8106 80.818C-59.2297 76.3478 -56.7946 71.7723 -53.8549 67.5499C-51.0163 63.467 -47.8014 59.6068 -44.4422 55.9346C-36.183 46.9114 -27.3978 38.4191 -17.386 31.341C-4.91559 22.5209 8.37418 15.2337 22.7091 9.75155C35.6099 4.81773 48.9409 1.72447 62.5217 -0.0340979C76.1513 -1.79611 89.9059 -2.12359 103.541 0.562432C104.768 0.805442 106.014 1.09439 107.136 1.60944C107.845 1.93623 108.341 2.72531 108.938 3.30915C108.287 3.6921 107.676 4.32079 106.99 4.41879C104.429 4.78834 101.846 5.03552 99.2589 5.23381C91.0071 5.88001 82.725 6.30078 74.4962 7.16276C68.2581 7.81452 62.0038 8.67823 55.8826 10.029C41.5902 13.1881 27.7396 17.7402 14.4143 23.9011C2.98037 29.188 -7.76963 35.6586 -17.9206 42.9985C-24.8608 48.0187 -31.2136 53.9049 -37.5346 59.7248C-42.8246 64.5971 -47.7613 69.8668 -52.7175 75.0905C-55.9083 78.4514 -58.8389 82.0617 -61.9211 85.5348C-62.4865 86.1716 -63.2141 86.6732 -63.8642 87.2376C-64.1557 87.0269 -64.4463 86.8217 -64.7378 86.611L-64.7422 86.6173Z" fill="#BEC210"/>
<path d="M-50.087 90.0682C-48.55 87.1968 -47.3442 84.078 -45.4174 81.5038C-40.7048 75.2192 -35.9181 68.9487 -30.6665 63.1155C-26.1508 58.0989 -21.227 53.3595 -15.9949 49.1027C-7.51275 42.2001 1.48667 35.9012 11.4214 31.257C19.8559 27.3108 28.4246 23.4664 37.2707 20.6273C45.7423 17.9061 54.4446 15.8741 63.4305 14.8516C74.1078 13.6352 84.707 13.1646 95.363 14.2068C98.8016 14.5456 102.186 15.4608 105.599 16.1122C105.572 16.5022 105.538 16.8879 105.51 17.2779C102.983 17.7403 100.472 18.4141 97.9249 18.6216C92.3393 19.0825 86.6991 19.0034 81.1457 19.7004C73.0438 20.7151 64.8959 21.7493 56.9633 23.6294C48.4033 25.6574 40.028 28.5149 31.6604 31.2941C20.8101 34.9014 10.6859 40.1631 1.157 46.3938C-6.4123 51.3422 -13.8113 56.6499 -20.7265 62.4684C-27.3704 68.0559 -33.3317 74.4588 -39.5135 80.5887C-41.9804 83.0363 -44.2042 85.7308 -46.5898 88.2625C-47.4138 89.1392 -48.403 89.8646 -49.3137 90.6582C-49.5693 90.463 -49.8303 90.2687 -50.086 90.0735L-50.087 90.0682Z" fill="#BEC210"/>
<path d="M100.395 31.1976C95.9005 31.7284 91.4081 32.3028 86.9044 32.7858C83.0002 33.2085 79.0633 33.3623 75.1883 33.9447C69.9433 34.7338 64.7154 35.7067 59.5186 36.7894C46.8155 39.4378 34.6838 43.7964 23.0374 49.4852C10.2038 55.7485 -1.72773 63.4252 -12.3369 73.0102C-18.9253 78.9615 -25.1978 85.2564 -31.6215 91.3865C-32.3707 92.101 -33.197 92.7252 -34.4425 93.1015C-34.1942 92.3247 -34.1283 91.4217 -33.6756 90.7999C-30.643 86.6045 -27.7369 82.2893 -24.3798 78.3645C-20.5111 73.8402 -16.3687 69.5188 -12.0693 65.3941C-5.19664 58.8024 2.44245 53.0934 10.814 48.5922C18.9307 44.2312 27.2872 40.2496 35.7948 36.7025C45.345 32.7226 55.5835 31.0915 65.7547 29.4837C75.8461 27.8906 85.9779 27.8409 96.1044 29.2054C97.5707 29.4046 99.0015 29.8908 100.452 30.2414L100.395 31.1976Z" fill="#BEC210"/>
<path d="M-18.2719 95.7363C6.33418 55.6153 65.1725 37.5206 93.6511 44.8108C72.6483 47.1518 52.0389 50.9221 32.6278 59.7691C13.3641 68.5507 -2.90635 81.4591 -18.2719 95.7363Z" fill="#BEC210"/>
<path d="M-1.05319 97.5629C18.2271 70.6854 61.2843 54.9773 85.1061 58.8464C69.2862 61.6525 53.6751 65.0583 38.8852 71.6906C24.1968 78.2768 11.3471 87.5183 -1.05221 97.5683L-1.05319 97.5629Z" fill="#BEC210"/>
<path d="M72.4837 74.0187C53.4387 78.7347 35.7571 86.5449 19.5161 97.6002C34.4776 83.6388 52.1683 75.849 72.4837 74.0187Z" fill="#BEC210"/>
<mask id="mask0_49_26626" style="mask-type:alpha" maskUnits="userSpaceOnUse" x="26" y="-72" width="474" height="287">
<path fill-rule="evenodd" clip-rule="evenodd" d="M26 -72H293V-16.9272L224.5 -16.5L221.5 -7.5L224.5 0.5L234.5 10.5C244.5 20.8333 268.1 53.9 282.5 103.5C283.7 106.3 284.667 115.667 285 120L288 149L289 149.011V173H293V215H26V-72ZM293 149V-16.9272L465 -18L499.5 44.5L489 105.5L426.5 150.5L293 149.054L289 149.011V149H293Z" fill="#D9D9D9"/>
</mask>
<g mask="url(#mask0_49_26626)">
<path d="M280.27 168.193C281.024 165.53 282.03 162.91 282.499 160.198C284.236 150.115 284.881 139.913 284.126 129.732C283.395 119.85 281.941 110.016 280.772 100.167C280.484 97.7552 280.072 95.3607 279.715 92.9611L280.355 92.7895C280.888 93.9568 281.637 95.0734 281.919 96.2935C284.376 107.049 287.52 117.723 288.96 128.62C290.631 141.278 290.769 154.138 291.635 166.906C291.773 168.935 292.215 170.944 292.518 172.962C292.968 173.007 293.418 173.052 293.864 173.093C294.713 170.599 295.985 168.16 296.337 165.592C297.556 156.702 298.696 147.788 299.398 138.842C299.839 133.257 299.445 127.604 299.421 121.981C299.781 121.91 300.141 121.84 300.496 121.773C300.982 123.976 301.672 126.154 301.931 128.388C302.915 136.938 303.917 145.493 304.594 154.066C305.041 159.722 304.927 165.419 305.09 171.098C305.116 171.988 305.089 172.933 305.39 173.74C305.756 174.716 306.442 175.569 306.992 176.473C307.671 175.724 308.745 175.072 308.96 174.206C310.316 168.792 311.673 163.362 312.649 157.876C313.54 152.884 313.938 147.806 314.597 142.775C314.682 142.143 315.037 141.544 315.27 140.931L316.185 140.934C316.603 144.294 317.224 147.644 317.408 151.02C317.831 158.895 318.047 166.784 318.343 174.664C318.353 174.933 318.288 175.248 318.408 175.46C319.16 176.83 318.601 179.506 320.987 179.175C322.067 179.028 323.38 177.166 323.751 175.844C325.343 170.143 326.614 164.353 328.024 158.605C328.308 157.435 328.682 156.285 329.01 155.125C329.299 155.097 329.583 155.073 329.872 155.045C330.209 156.682 330.743 158.301 330.85 159.949C331.263 166.227 331.535 172.509 331.875 178.795C331.9 179.291 332.048 179.784 332.532 180.317C333.472 176.514 334.409 172.707 335.353 168.901C335.78 168.952 336.202 169 336.629 169.051C336.734 173.016 336.839 176.981 336.936 180.946C337.09 181.011 337.247 181.08 337.397 181.149C339.044 176.208 340.695 171.264 342.346 166.328C342.627 166.372 342.912 166.413 343.193 166.458C345.432 171.277 344.071 176.783 345.919 181.76C347.261 173.971 348.606 166.186 349.948 158.397C350.368 158.44 350.783 158.487 351.202 158.531C352.982 166.388 351.877 174.407 352.197 182.435C353.39 179.981 354.578 177.53 355.77 175.076L357.026 175.237C357.625 178.112 358.223 180.987 358.835 183.916C361.331 172.093 361.919 159.985 365.087 148.298C367.891 158.695 366.926 169.21 366.918 179.623C372.744 176.4 374.703 172.528 375.308 164.289C375.774 157.886 376.687 151.508 377.405 145.124C377.667 142.82 377.94 140.52 378.841 138.228C382.151 147.145 381.79 156.403 382.194 165.545C386.469 164.042 389.163 159.685 389.643 153.933C390.325 145.698 391.187 137.468 391.987 129.243C392.027 128.827 392.196 128.425 392.665 127.993C395.952 135.878 395.906 144.347 396.893 152.916C398.925 151.074 401.299 149.754 402.351 147.741C403.508 145.523 403.67 142.689 403.865 140.094C404.394 133.204 404.704 126.298 405.134 119.395C405.157 118.987 405.437 118.594 406.038 118.13C409.356 124.914 409.874 132.346 410.63 139.824C416.589 136.546 417.91 133.726 417.481 127.608C417.223 123.892 417.66 120.122 417.82 116.377C417.913 114.16 418.013 111.944 418.24 109.738C418.29 109.261 418.877 108.838 419.217 108.391C419.58 108.8 420.145 109.157 420.264 109.626C421.351 113.934 422.369 118.261 423.395 122.582C423.779 124.197 424.129 125.823 424.573 127.794C426.456 126.086 428.723 124.768 429.837 122.801C430.835 121.034 430.753 118.56 430.81 116.384C430.936 111.61 431.318 106.773 430.747 102.061C429.751 93.8438 428.332 85.6593 426.672 77.5472C425.157 70.1507 423.131 62.8517 421.229 55.5359C420.231 51.6727 419.195 47.8 417.869 44.0434C415.515 37.3642 413.001 30.7422 410.408 24.1548C408.051 18.1571 405.687 12.1437 402.981 6.30139C400.155 0.196529 397.129 -5.8375 393.815 -11.6904C388.919 -20.3513 383.898 -28.957 378.536 -37.3343C374.366 -43.8571 369.926 -50.2667 365.022 -56.2472C356.26 -66.9313 347.365 -77.5378 337.943 -87.63C331.811 -94.199 324.644 -99.7998 317.913 -105.804C317.572 -106.108 317.004 -106.163 316.737 -106.264C327.857 -92.914 339.383 -79.7777 350.107 -66.0104C360.774 -52.3225 370.081 -37.6785 378.308 -22.3405C386.511 -7.04582 393.718 8.63305 399.101 25.1265C398.911 25.2551 398.713 25.3832 398.523 25.5118C398.037 24.8064 397.464 24.1426 397.08 23.3809C392.824 14.8624 388.95 6.13662 384.284 -2.14915C378.273 -12.8292 371.912 -23.3462 365.17 -33.5832C360.026 -41.3907 354.305 -48.8587 348.378 -56.1031C341.613 -64.3766 334.732 -72.6174 327.192 -80.1666C319.39 -87.9737 310.811 -95.0261 302.408 -102.215C298.912 -105.209 294.99 -107.713 291.246 -110.409C290.654 -110.836 289.943 -111.104 289.012 -111.165C319.357 -81.8095 347.142 -50.5568 365.795 -12.2709C365.591 -12.1008 365.387 -11.9308 365.184 -11.7607C364.11 -13.0655 362.953 -14.3093 361.979 -15.682C357.008 -22.6614 352.371 -29.9003 347.078 -36.6235C339.256 -46.5456 331.293 -56.3981 322.791 -65.733C316.307 -72.8515 309.16 -79.4278 301.834 -85.6951C293.805 -92.5597 285.306 -98.8882 276.846 -105.23C273.768 -107.537 270.204 -109.197 266.494 -110.718C291.255 -88.0925 315.492 -65.1093 333.403 -36.4837C333.205 -36.2751 333.003 -36.0628 332.801 -35.8582C332.096 -36.5399 331.349 -37.1776 330.692 -37.903C325.967 -43.0972 321.367 -48.4118 316.517 -53.4933C311.14 -59.1331 305.745 -64.7851 300.004 -70.0443C286.991 -81.9626 273.166 -92.8522 257.971 -101.909C255.839 -103.181 253.52 -104.152 251.263 -105.216C250.727 -105.468 250.107 -105.549 249.072 -105.216C249.799 -104.415 250.453 -103.54 251.257 -102.831C256.083 -98.6043 260.949 -94.4142 265.791 -90.21C268.888 -87.5195 272.138 -84.9901 275.038 -82.1063C281.854 -75.347 288.629 -68.536 295.164 -61.5069C298.428 -57.9964 301.121 -53.9546 304.076 -50.1566C303.854 -49.9185 303.632 -49.6805 303.413 -49.4461C301.456 -51.089 299.467 -52.695 297.542 -54.3746C291.695 -59.4781 286.112 -64.9097 279.991 -69.6628C270.726 -76.8597 261.213 -83.7586 251.559 -90.4345C247.636 -93.15 243.091 -94.9728 238.788 -97.1248C238.055 -97.4899 237.127 -97.4663 236.293 -97.622C236.111 -97.3628 235.934 -97.0996 235.753 -96.8404C237.698 -94.8879 239.535 -92.8143 241.603 -91.0014C246.891 -86.3694 252.434 -82.0122 257.597 -77.2446C263.97 -71.361 270.071 -65.188 276.254 -59.103C276.941 -58.426 277.382 -57.4968 277.936 -56.6846C277.715 -56.4694 277.494 -56.262 277.273 -56.0469C274.888 -57.7911 272.446 -59.469 270.126 -61.2943C260.191 -69.1099 249.925 -76.4362 238.817 -82.5092C235.859 -84.1282 232.844 -85.681 229.75 -87.0079C228.924 -87.3623 227.693 -86.7638 226.647 -86.6043C226.973 -85.673 227.028 -84.4448 227.669 -83.8505C231.721 -80.0832 235.905 -76.4511 240.05 -72.7826C243.255 -69.949 246.48 -67.1412 249.681 -64.304C250.819 -63.2986 251.965 -62.2929 253.006 -61.2003C253.958 -60.2079 254.772 -59.0919 255.35 -57.6582C243.618 -63.5241 233.364 -71.9337 221.382 -76.3604C220.411 -74.8224 219.639 -73.6115 218.614 -71.9804C224.365 -66.7973 230.451 -61.3107 236.54 -55.8276C236.264 -55.4313 235.992 -55.031 235.716 -54.6347C228.547 -58.2403 221.374 -61.8499 214.205 -65.4555C213.967 -65.1302 213.729 -64.8124 213.491 -64.487L218.11 -59.3937L217.559 -58.5512C215.376 -59.0907 213.192 -59.6226 211.009 -60.162C210.915 -59.9598 210.813 -59.758 210.719 -59.5558C213.903 -56.39 217.092 -53.2201 220.277 -50.0543C220.138 -49.8045 219.996 -49.551 219.857 -49.3012C215.26 -49.3459 211.676 -53.2819 206.538 -53.3912C210.926 -49.3815 214.922 -45.7241 218.925 -42.0664C218.714 -41.7359 218.502 -41.3978 218.29 -41.0673C213.294 -43.2838 208.3 -45.4963 203.304 -47.7128C203.154 -47.475 203.008 -47.2332 202.859 -46.9954C204.241 -45.2619 205.627 -43.5244 207.009 -41.7909C206.826 -41.5011 206.639 -41.2077 206.457 -40.9179C204.37 -41.3914 202.283 -41.8648 200.196 -42.3383C207.525 -34.562 216.473 -28.5677 223.449 -20.5291C223.232 -20.2448 223.015 -19.9605 222.802 -19.6722C218.351 -22.4709 213.982 -25.4035 209.426 -28.0197C204.915 -30.6108 200.224 -32.8852 195.608 -35.2937C195.436 -35.0723 195.265 -34.8509 195.093 -34.6295C195.31 -33.7381 195.523 -32.843 195.794 -31.7229C194.802 -31.4152 193.915 -31.1369 192.301 -30.6375C208.019 -17.71 223.614 -5.19057 235.554 10.9799C235.377 11.1627 235.203 11.3419 235.026 11.5247C231.849 8.67334 228.676 5.8183 225.498 2.96691C214.716 -6.70926 203.253 -15.4114 190.031 -21.5532C188.735 -22.1527 187.441 -22.4687 186.427 -20.6225C185.372 -18.7017 186.581 -18.1257 187.704 -17.1938C192.359 -13.3243 197.12 -9.56441 201.572 -5.46729C208.283 0.708644 215.036 6.8828 221.256 13.5326C226.624 19.2753 231.445 25.5504 236.19 31.8371C239.988 36.8711 243.608 42.0881 246.746 47.5456C251.261 55.3989 255.729 63.3456 259.36 71.6268C263.351 80.7221 266.864 90.0966 269.696 99.614C273.664 112.936 275.978 126.641 276.764 140.57C277.225 148.769 277.77 156.964 278.331 165.161C278.396 166.102 278.818 167.027 279.071 167.958C279.47 168.035 279.864 168.108 280.263 168.185L280.27 168.193Z" fill="#BEC210"/>
<path d="M266.658 163.061C267.065 160.932 267.574 158.82 267.855 156.674C268.523 151.555 269.37 146.442 269.602 141.302C269.829 136.335 269.623 131.315 269.187 126.357C268.113 114.172 266.298 102.089 262.65 90.3832C258.108 75.7997 251.984 61.9355 243.933 48.8695C236.687 37.1104 227.981 26.5515 218.266 16.9007C208.514 7.21746 197.79 -1.40264 185.33 -7.55698C184.208 -8.10967 183.043 -8.63766 181.839 -8.91098C181.077 -9.08223 180.204 -8.75728 179.375 -8.65606C179.659 -7.95667 179.762 -7.08616 180.247 -6.59139C182.056 -4.7413 183.958 -2.97475 185.891 -1.24496C192.051 4.28365 198.372 9.6516 204.383 15.3376C208.94 19.6466 213.382 24.1339 217.421 28.9269C226.851 40.1225 235.083 52.1556 241.92 65.147C247.786 76.2948 252.39 87.9669 255.989 99.9652C258.449 108.17 259.916 116.705 261.398 125.169C262.638 132.253 263.355 139.438 264.116 146.599C264.607 151.207 264.739 155.855 265.076 160.486C265.138 161.336 265.411 162.176 265.584 163.02C265.944 163.029 266.299 163.043 266.659 163.053L266.658 163.061Z" fill="#BEC210"/>
<path d="M252.923 156.894C253.448 153.68 254.386 150.47 254.421 147.255C254.498 139.4 254.508 131.511 253.884 123.687C253.347 116.959 252.317 110.203 250.75 103.643C248.21 93.0058 244.892 82.5341 239.826 72.8079C235.526 64.5477 231.059 56.2869 225.76 48.6558C220.686 41.3458 215.011 34.443 208.497 28.1694C200.757 20.7139 192.095 14.6491 183 9C180.063 7.17908 176.82 5.84866 173.713 4.29135C173.498 4.61785 173.291 4.94474 173.076 5.27125C174.802 7.17472 176.917 8.48483 178.814 10.1975C182.969 13.9584 187.496 17.3237 191.482 21.2525C197.299 26.9827 203.141 32.7561 208.297 39.0706C213.862 45.8837 218.776 53.2434 223.731 60.5361C230.155 69.9954 234.996 80.3271 238.776 91.0666C241.779 99.5966 244.429 108.309 246.384 117.132C248.263 125.607 249.106 134.315 250.289 142.94C250.76 146.383 250.888 149.874 251.244 153.335C251.365 154.532 251.71 155.709 251.951 156.893C252.272 156.893 252.598 156.897 252.919 156.898L252.923 156.894Z" fill="#BEC210"/>
<path d="M168.463 19.2934C171.71 22.4469 175.673 25.0223 178.956 28.1432C182.5 30.5 185.777 32.6823 188.5 35.5C192.185 39.3145 194.801 43.9491 198.269 47.9675C206.747 57.7915 213.731 68.6262 219.522 80.2223C225.906 92.9962 230.715 106.344 233.314 120.404C234.929 129.134 236.084 137.945 237.459 146.717C237.619 147.74 237.896 148.738 238.656 149.794C238.931 149.026 239.428 148.269 239.446 147.5C239.588 142.325 239.903 137.132 239.623 131.975C239.301 126.031 238.638 120.082 237.731 114.193C236.28 104.782 233.683 95.6051 229.771 86.9426C225.977 78.5462 221.761 70.3054 217.161 62.3178C211.996 53.3527 204.857 45.8346 197.758 38.3758C190.712 30.9771 181.952 25.3908 173.082 20.3195C171.796 19.5865 170.365 19.1028 169 18.5L168.463 19.2934Z" fill="#BEC210"/>
<path d="M224.214 142.058C229.06 95.2424 193.046 45.5202 166 34C181.255 48.6245 195.619 63.7363 205.656 82.5597C215.616 101.241 220.69 121.381 224.214 142.058Z" fill="#BEC210"/>
<path d="M209.431 133.043C210.457 99.9809 185.813 61.3371 164.545 49.9307C175.401 61.7742 185.728 73.9672 193.442 88.2231C201.102 102.381 205.689 117.529 209.427 133.046L209.431 133.043Z" fill="#BEC210"/>
<path d="M165.346 69.6509C177.603 84.9713 186.897 101.92 193.074 120.57C189.679 100.39 180.366 83.4519 165.346 69.6509Z" fill="#BEC210"/>
</g>
<path d="M267.542 -54.8452C259.533 -60.2377 251.157 -64.9307 242.18 -68.4854C241.924 -68.2902 241.673 -68.1012 241.417 -67.9059C241.946 -67.0293 242.287 -65.9148 243.04 -65.3157C248.919 -60.6607 254.886 -56.1156 260.796 -51.4993C261.95 -50.5997 262.949 -49.501 263.938 -48.5711C260.975 -49.5303 257.8 -50.5608 254.322 -51.6844C254.258 -47.3447 258.592 -46.1412 259.573 -42.5811C254.01 -45.633 248.679 -48.5622 243.342 -51.4905L242.655 -50.5013C246.13 -45.3298 251.777 -42.3593 255.936 -37.6646C250.562 -39.9813 245.19 -42.2926 239.817 -44.6092C239.594 -44.2935 239.377 -43.9788 239.154 -43.663C243.175 -39.3612 247.195 -35.0593 251.217 -30.7521C251.058 -30.5966 250.895 -30.4401 250.736 -30.2846C248.582 -31.2654 246.428 -32.2516 244.279 -33.2334C244.05 -33.0154 243.824 -32.8038 243.595 -32.5858C245.14 -30.8446 246.679 -29.1025 248.224 -27.3613C239.339 -30.2345 231.587 -35.8774 222.569 -38.4567C222.38 -38.1967 222.192 -37.9313 222.003 -37.6712C223.22 -36.552 224.428 -35.4201 225.659 -34.3091C230.513 -29.9341 235.375 -25.5716 240.215 -21.1777C240.657 -20.78 241.148 -20.2595 241.262 -19.7249C241.447 -18.8624 241.695 -17.5712 241.252 -17.1329C240.749 -16.6393 239.355 -16.5328 238.628 -16.8673C234.138 -18.9551 229.765 -21.3062 225.274 -23.3993C218.144 -26.72 210.95 -29.9133 203.772 -33.1371C203.221 -33.3828 202.582 -33.4474 201.534 -33.1071C202.181 -32.4555 202.74 -31.6835 203.483 -31.1704C212.86 -24.7028 222.546 -18.6217 230.453 -10.2684C231.333 -9.34039 231.785 -8.00975 232.435 -6.86374C232.203 -6.59591 231.973 -6.32277 231.741 -6.05495C230.14 -6.60335 228.453 -6.98232 226.948 -7.72436C217.861 -12.2157 208.948 -17.1074 199.706 -21.2406C191.956 -24.7062 183.832 -27.3281 175.865 -30.2975C175.246 -30.5252 174.542 -30.523 173.63 -30.0701C175.161 -29.1844 176.653 -28.2144 178.228 -27.4192C191.64 -20.6614 204.613 -13.2072 216.191 -3.55106C218.416 -1.69791 221.089 -0.102669 221.918 2.95727C221.756 3.24001 221.599 3.52713 221.436 3.80987C219.01 2.7524 216.546 1.75684 214.155 0.621422C204.814 -3.81258 195.63 -8.59411 186.147 -12.6941C168.595 -20.284 150.422 -25.9234 131.401 -28.5315C126.144 -29.2525 120.879 -29.9832 115.519 -30.2125C133.065 -27.164 150.209 -22.7002 166.552 -15.7032C182.865 -8.71717 198.633 -0.685503 211.236 12.1707L210.713 13.1903C208.797 12.4574 206.829 11.8329 204.976 10.9621C196.86 7.15091 188.933 2.89833 180.648 -0.485903C171.066 -4.4029 161.31 -8.04054 151.387 -10.9711C138.01 -14.9197 124.283 -17.3908 110.345 -18.6356C99.1853 -19.6352 88.0375 -19.9385 76.8766 -19.0516C70.3882 -18.5355 63.9106 -17.9005 57.4487 -17.1198C51.8372 -16.4397 46.1993 -15.7547 40.6866 -14.5647C33.4393 -12.9969 26.3043 -10.9052 19.107 -9.09356C17.3671 -8.65426 15.5821 -8.25076 13.7959 -8.15495C13.0005 -8.11393 11.959 -8.7263 11.4507 -9.37024C11.2283 -9.65401 11.8542 -11.1323 12.4292 -11.4465C16.5598 -13.698 20.6292 -16.1638 24.9917 -17.8692C38.3611 -23.0978 52.1933 -26.8491 66.4159 -28.7361C75.6024 -29.9548 84.9221 -30.1749 94.1803 -30.8513C95.2171 -30.9255 96.2442 -31.0528 97.2815 -31.1546C97.2769 -31.3902 97.2722 -31.6259 97.2666 -31.8668C92.5185 -31.9991 87.7774 -32.2426 83.0313 -32.2433C65.4879 -32.2455 48.2347 -29.6391 31.1273 -26.0254C24.4821 -24.6228 17.8542 -22.9758 11.4034 -20.8718C7.9054 -19.7314 6.5677 -20.911 5.63285 -24.5181C16.5657 -31.8526 29.5516 -35.1796 41.8493 -40.3441C41.0257 -40.4574 40.1567 -40.7878 39.3861 -40.6414C33.3001 -39.4895 27.216 -38.327 21.1645 -37.0164C14.8914 -35.6543 8.64939 -34.1219 1.71419 -32.5012C2.71924 -34.1919 3.31957 -35.2091 4.13481 -36.5846C2.66639 -36.9759 1.45782 -37.2993 -0.241961 -37.7528C5.45443 -42.6279 12.4132 -44.4509 18.2434 -48.1737C18.1753 -48.4857 18.1082 -48.7924 18.0401 -49.1044C15.778 -48.784 13.5042 -48.5275 11.2547 -48.138C6.53757 -47.319 1.82872 -46.4246 -3.26908 -45.492C-0.892493 -47.3511 1.27765 -49.046 3.45215 -50.7472C3.37246 -51.0626 3.29817 -51.3789 3.21847 -51.6943C0.348406 -51.5707 -2.52603 -51.4408 -5.3961 -51.3172L-5.62843 -51.8357C-3.03374 -53.7952 -0.439113 -55.7547 2.15558 -57.7142C2.03098 -57.9444 1.90738 -58.1692 1.78278 -58.3994C-1.38949 -58.094 -4.5617 -57.7887 -7.73397 -57.4833C-7.85902 -57.6859 -7.98842 -57.8822 -8.11347 -58.0848C-3.5586 -60.8428 1.00152 -63.6019 5.55639 -66.3599C5.4545 -66.6163 5.34824 -66.8663 5.24635 -67.1226C-0.322416 -68.1331 -5.48868 -64.8397 -11.3665 -65.3153C-10.7696 -66.3814 -10.2491 -67.3235 -9.52959 -68.621C-10.7992 -69.0377 -11.8936 -69.3984 -13.3733 -69.8812C-5.99528 -75.9054 3.19611 -77.9993 10.8129 -82.8683C10.6983 -83.2543 10.5827 -83.6456 10.4734 -84.0326C6.89215 -83.4379 3.29618 -82.9231 -0.267598 -82.2326C-5.28649 -81.2594 -10.2683 -80.0841 -15.3028 -79.1961C-15.9892 -79.0705 -17.2947 -79.9536 -17.5611 -80.6582C-17.8236 -81.3416 -17.3971 -82.8879 -16.8071 -83.2103C-11.826 -85.9529 -6.84917 -88.7497 -1.65898 -91.041C4.5028 -93.7631 10.8896 -95.9764 17.1547 -98.4644C18.165 -98.8637 19.0705 -99.5353 20.0207 -100.083C19.9576 -100.308 19.8882 -100.537 19.825 -100.762C18.1007 -100.689 16.3373 -100.828 14.665 -100.5C6.56847 -98.9145 -1.51484 -97.2267 -9.58893 -95.5187C-12.5639 -94.8864 -15.495 -94.0148 -18.4768 -93.4198C-19.5967 -93.1984 -20.8066 -93.4389 -21.9786 -93.472C-22.1241 -93.8468 -22.2643 -94.2227 -22.4099 -94.5975C-20.3768 -96.0198 -18.516 -97.8726 -16.2748 -98.7885C-5.66629 -103.116 5.00139 -107.3 15.7404 -111.305C21.0785 -113.299 26.6069 -114.795 32.0396 -116.542C32.6679 -116.745 33.2374 -117.118 33.8375 -117.415C33.784 -117.708 33.7305 -118.001 33.6727 -118.287C29.8549 -117.962 25.9739 -117.984 22.2374 -117.245C8.42212 -114.514 -5.34021 -111.524 -19.1312 -108.66C-20.2119 -108.435 -21.3455 -108.469 -22.4568 -108.381C-22.5766 -108.645 -22.7027 -108.914 -22.8225 -109.178C-21.739 -109.959 -20.7569 -110.964 -19.5653 -111.484C-12.0875 -114.738 -4.70743 -118.316 2.9863 -120.961C11.9115 -124.029 21.0973 -126.364 30.2336 -128.789C37.2513 -130.65 44.3657 -132.133 51.4324 -133.816C52.1962 -134 52.9134 -134.378 53.5372 -135.086C28.8537 -135.399 5.13967 -129.241 -18.785 -124.534C-18.9106 -124.83 -19.0354 -125.12 -19.161 -125.416C-17.5963 -126.363 -16.1364 -127.581 -14.4518 -128.203C-4.86865 -131.732 4.61206 -135.672 14.4293 -138.403C25.3818 -141.451 36.6101 -143.594 47.8036 -145.685C56.1628 -147.248 64.6222 -148.443 73.0922 -149.19C81.6546 -149.942 90.2816 -149.92 98.8768 -150.283C99.9301 -150.327 100.967 -150.643 102.159 -150.861C98.8044 -153.234 59.1243 -152.854 46.122 -150.849C27.3436 -147.953 8.50989 -145.448 -10.5754 -143.056C-8.10121 -144.141 -5.66629 -145.351 -3.14018 -146.303C10.7295 -151.502 25.0525 -155.035 39.6209 -157.557C48.1772 -159.035 56.7401 -160.656 65.3643 -161.491C73.9184 -162.319 82.5556 -162.332 91.1587 -162.531C98.5242 -162.702 105.908 -162.865 113.268 -162.611C121.503 -162.33 129.716 -161.561 137.939 -161.042C140.332 -160.891 142.728 -160.868 145.124 -160.789C145.165 -161.077 145.211 -161.366 145.252 -161.654C144.22 -162.032 143.218 -162.58 142.153 -162.748C136.925 -163.579 131.701 -164.421 126.445 -165.043C118.732 -165.964 111.012 -167.098 103.265 -167.419C92.8154 -167.844 82.3361 -167.83 71.88 -167.539C61.5501 -167.25 51.2344 -166.402 40.9194 -165.73C38.1535 -165.549 35.3867 -165.191 32.6437 -164.794C26.6057 -163.92 20.5857 -162.918 14.5419 -162.076C11.2014 -161.608 7.83267 -161.355 4.48044 -161.011L4.24846 -161.678C6.79975 -162.612 9.27606 -163.896 11.9076 -164.421C29.0109 -167.847 46.1108 -171.322 63.2982 -174.317C69.5765 -175.411 76.0741 -175.456 82.4772 -175.566C92.0486 -175.733 101.629 -175.759 111.197 -175.436C119.42 -175.159 127.632 -174.395 135.84 -173.691C143.316 -173.046 150.801 -172.353 158.24 -171.372C165.199 -170.456 172.107 -169.129 179.037 -167.983C180.506 -167.74 181.975 -167.492 184.034 -167.154C181.091 -169.53 151.786 -177.428 146.64 -178.021C134.039 -179.477 121.475 -181.27 109.376 -182.863C116.603 -184.185 124.324 -185.927 132.138 -186.889C136.188 -187.388 140.442 -186.714 144.548 -186.184C151.104 -185.338 157.641 -184.295 164.146 -183.093C171.898 -181.663 179.679 -180.287 187.302 -178.327C196.939 -175.85 206.568 -173.179 215.956 -169.898C224.803 -166.809 233.363 -162.886 241.979 -159.167C243.961 -158.314 245.636 -156.761 247.506 -155.619C247.958 -155.344 248.624 -155.427 249.19 -155.344L250.844 -146.303C244.806 -149.334 238.248 -150.339 231.536 -151.141C235.177 -148.282 238.953 -145.706 242.873 -143.365C245.93 -141.538 249.155 -139.994 252.303 -138.326L253.956 -129.291C248.132 -131.695 242.299 -134.06 235.791 -134.404C236.185 -133.359 236.656 -132.472 237.391 -131.969C241.491 -129.188 245.648 -126.484 249.809 -123.792C251.711 -122.561 253.673 -121.43 255.61 -120.25L257.166 -111.741C250.674 -114.101 244.587 -117.766 236.788 -118.434C237.524 -117.354 237.723 -116.84 238.099 -116.557C240.932 -114.419 243.743 -112.249 246.667 -110.244C250.703 -107.479 254.83 -104.852 258.918 -102.168L260.571 -93.1324C253.727 -96.9344 246.697 -100.279 238.718 -102.383C238.832 -101.304 238.716 -100.65 238.949 -100.484C246.691 -94.9928 254.463 -89.5458 262.23 -84.0925L263.98 -74.5249C256.414 -78.8215 248.824 -83.0643 239.751 -85.584C240.307 -84.3769 240.409 -83.6367 240.83 -83.3231C249.11 -77.1718 257.425 -71.0655 265.732 -64.9519L267.579 -54.8521L267.542 -54.8452Z" fill="#BEC210"/>
<path d="M17.6912 2.70852C19.0966 1.70348 20.3983 0.491964 21.9259 -0.265956C30.2553 -4.39645 38.9258 -7.59401 48.0332 -9.54609C54.2622 -10.8781 60.4372 -12.5962 66.7341 -13.4072C74.2188 -14.3695 81.7919 -14.787 89.3393 -14.9854C95.978 -15.1605 102.652 -14.9956 109.271 -14.4633C121.048 -13.5161 132.599 -11.1307 143.927 -7.76434C158.926 -3.30406 173.246 2.70483 186.402 11.2474C190.458 13.8819 194.225 16.9764 198.087 19.8995C198.553 20.2541 198.802 20.8906 199.153 21.3982C199.037 21.634 198.92 21.8698 198.804 22.1056C195.956 20.9053 193.082 19.7481 190.256 18.4888C184.173 15.7796 178.12 12.9934 172.041 10.2779C162.082 5.83053 151.683 2.70646 141.144 0.0151346C127.363 -3.49666 113.383 -5.81701 99.1534 -6.04055C89.8492 -6.18623 80.4872 -6.16729 71.2457 -5.27954C60.2867 -4.22056 49.3977 -2.32754 38.5407 -0.440332C32.7361 0.566583 27.0683 2.3514 21.3207 3.69985C20.2821 3.94484 19.1473 3.78398 18.0635 3.81177C17.9349 3.43935 17.8125 3.07126 17.6839 2.69884L17.6912 2.70852Z" fill="#BEC210"/>
<path d="M25.7657 14.5556C28.8907 12.9995 31.8869 11.071 35.1648 9.95995C41.6513 7.75041 48.2309 5.74926 54.8831 4.11435C60.5978 2.70594 66.4263 1.46921 72.2736 0.965934C80.9312 0.223484 89.6465 -0.0840796 98.3403 -0.0577302C114.665 -0.0140361 130.517 3.21779 145.885 8.52343C153.898 11.292 161.79 14.5998 169.363 18.4169C175.529 21.5233 181.136 25.7494 186.994 29.4788C186.783 29.8913 185.211 32.0875 185 32.5C182.5 30.5 180.006 28.1065 176.798 26.8674C167.263 23.2005 157.816 19.2698 148.142 16.0187C141.193 13.6878 134.006 11.9451 126.802 10.5353C114.619 8.15005 102.284 7.18946 89.8319 7.03124C72.1319 6.80469 54.9336 10.1325 37.7034 13.4056C34.8072 13.9574 31.9787 14.8488 29.0951 15.4699C28.1325 15.679 27.0887 15.5345 26.0847 15.5476C25.9798 15.2149 25.8749 14.8821 25.7647 14.5503L25.7657 14.5556Z" fill="#BEC210"/>
<path d="M172.382 38.9495C168.098 37.297 163.878 35.4513 159.525 34.0205C150.344 31.0035 141.189 27.8225 131.843 25.4076C118.336 21.9173 104.485 20.4256 90.5402 20.4031C84.1432 20.3965 77.728 20.9212 71.3587 21.5474C64.3253 22.2402 57.3188 23.2305 50.3322 24.2997C47.1548 24.7875 44.069 25.8359 40.9112 26.4906C39.3589 26.8131 37.7365 26.8129 36.1467 26.9608C36.0366 26.6895 35.9327 26.4225 35.8226 26.1512C38.2672 24.9946 40.6589 23.6991 43.1666 22.7069C53.162 18.7555 63.683 16.7153 74.2581 15.4516C89.1007 13.6767 103.952 14.1714 118.765 16.8344C134.676 19.6979 149.83 24.4929 163.926 32.4398C167.005 34.1754 169.94 36.1516 172.944 38.0218C172.758 38.3307 172.572 38.6343 172.386 38.9432L172.382 38.9495Z" fill="#BEC210"/>
<path d="M47.9579 37.9875C69.6125 23.1867 138.067 28.828 157.55 46.9202C121.903 33.1213 85.3902 30.1607 47.9579 37.9875Z" fill="#BEC210"/>
<path d="M63.2106 48.7033C77.5784 40.636 127.466 44.257 138.927 54.2699C114.069 47.1698 88.8306 45.2977 63.2106 48.7033Z" fill="#BEC210"/>
<path d="M109.654 61.1543C102.928 60.669 96.1969 60.1901 89.4704 59.7048C89.4866 59.4929 89.4983 59.2872 89.5146 59.0753C96.2817 59.5421 103.049 60.0089 109.816 60.4757C109.764 60.6998 109.712 60.9292 109.66 61.1533L109.654 61.1543Z" fill="#BEC210"/>
<path d="M199 48.5C187 32.5 165.667 22.1667 156.5 19H161.5L184.5 29L199 44.5C200.333 46.1667 202.2 49.3 199 48.5Z" fill="#BEC210"/>
<path d="M204.5 34.5C192.5 18.5 170.667 9.16667 161.5 6H166L189 16L204.5 30.5C205.833 32.1667 207.7 35.3 204.5 34.5Z" fill="#BEC210"/>
<path d="M187.5 56C175.5 40 153.167 31.6667 144 28.5L148.5 28L171.5 38L187 52.5C188.333 54.1667 190.7 56.8 187.5 56Z" fill="#BEC210"/>
</g>
<defs>
<clipPath id="clip0_49_26626">
<rect width="293" height="171" fill="white"/>
</clipPath>
</defs>
</svg>
