<svg height="400" width="400" xmlns="http://www.w3.org/2000/svg"><g fill-rule="evenodd"><path d="M29.971 18.9C19.53 29.295 8.473 40.41 5.4 43.6l-5.588 5.8 5.943-5.8C17.946 31.704 49.507 0 49.159 0c-.113 0-8.748 8.505-19.188 18.9m345.228 5.616c13.529 13.576 24.676 24.684 24.77 24.684.43 0-34.775-35.375-44.171-44.384-2.859-2.741 5.871 6.124 19.401 19.7M4.808 55c2.745 2.86 5.074 5.148 5.174 5.084.101-.063-2.146-2.403-4.992-5.2L-.185 49.8zm6.392 6.71c0 .061 1.395 1.456 3.1 3.1l3.1 2.99-2.99-3.1c-2.777-2.879-3.21-3.283-3.21-2.99m373.787 3.59-2.387 2.5 2.5-2.387c1.375-1.314 2.5-2.439 2.5-2.5 0-.296-.395.065-2.613 2.387M24.182 74.5c3.09 3.135 5.699 5.649 5.799 5.586.208-.131-10.856-11.286-11.194-11.286-.123 0 2.305 2.565 5.395 5.7m7.018 7.21c0 .061 1.395 1.456 3.1 3.1l3.1 2.99-2.99-3.1c-2.777-2.879-3.21-3.283-3.21-2.99m333.787 3.59-2.387 2.5 2.5-2.387c1.375-1.314 2.5-2.439 2.5-2.5 0-.296-.395.065-2.613 2.387M44.182 94.5c3.09 3.135 5.699 5.649 5.799 5.586.208-.131-10.856-11.286-11.194-11.286-.123 0 2.305 2.565 5.395 5.7m7.018 7.21c0 .061 1.395 1.456 3.1 3.1l3.1 2.99-2.99-3.1c-2.777-2.879-3.21-3.283-3.21-2.99m293.787 3.59-2.387 2.5 2.5-2.387c1.375-1.314 2.5-2.439 2.5-2.5 0-.296-.395.065-2.613 2.387m-280.805 9.2c3.09 3.135 5.699 5.649 5.799 5.586.208-.131-10.856-11.286-11.194-11.286-.123 0 2.305 2.565 5.395 5.7m7.018 7.21c0 .061 1.395 1.456 3.1 3.1l3.1 2.99-2.99-3.1c-2.777-2.879-3.21-3.283-3.21-2.99m253.787 3.59-2.387 2.5 2.5-2.387c1.375-1.314 2.5-2.439 2.5-2.5 0-.296-.395.065-2.613 2.387m-240.805 9.2c3.09 3.135 5.699 5.649 5.799 5.586.208-.131-10.856-11.286-11.194-11.286-.123 0 2.305 2.565 5.395 5.7m7.018 7.21c0 .061 1.395 1.456 3.1 3.1l3.1 2.99-2.99-3.1c-2.777-2.879-3.21-3.283-3.21-2.99m213.787 3.59-2.387 2.5 2.5-2.387c1.375-1.314 2.5-2.439 2.5-2.5 0-.296-.395.065-2.613 2.387m-199.779 10.1c2.526 2.64 4.674 4.748 4.774 4.684.101-.063-1.966-2.223-4.591-4.8l-4.774-4.684zm5.992 6.31c0 .061 1.395 1.456 3.1 3.1l3.1 2.99-2.99-3.1c-2.777-2.879-3.21-3.283-3.21-2.99m173.787 3.59-2.387 2.5 2.5-2.387c1.375-1.314 2.5-2.439 2.5-2.5 0-.296-.395.065-2.613 2.387m-160.805 9.2c3.09 3.135 5.699 5.649 5.799 5.586.208-.131-10.856-11.286-11.194-11.286-.123 0 2.305 2.565 5.395 5.7m7.018 7.21c0 .061 1.395 1.456 3.1 3.1l3.1 2.99-2.99-3.1c-2.777-2.879-3.21-3.283-3.21-2.99m133.787 3.59-2.387 2.5 2.5-2.387c1.375-1.314 2.5-2.439 2.5-2.5 0-.296-.395.065-2.613 2.387m-126.54 3.6c.1.055 2.785 2.62 5.967 5.7l5.786 5.6-5.595-5.7c-3.077-3.135-5.762-5.7-5.966-5.7-.205 0-.291.045-.192.1m66.361 66.1c2.745 2.86 5.074 5.148 5.174 5.084.101-.063-2.146-2.403-4.992-5.2l-5.175-5.084zm6.392 6.71c0 .061 1.395 1.456 3.1 3.1l3.1 2.99-2.99-3.1c-2.777-2.879-3.21-3.283-3.21-2.99m-25.025 2.39L185 265.4l1.3-1.175c1.212-1.095 1.484-1.425 1.175-1.425-.069 0-.654.585-1.3 1.3m38.007 10.4c3.09 3.135 5.699 5.649 5.799 5.586.208-.131-10.856-11.286-11.194-11.286-.123 0 2.305 2.565 5.395 5.7m7.018 7.21c0 .061 1.395 1.456 3.1 3.1l3.1 2.99-2.99-3.1c-2.777-2.879-3.21-3.283-3.21-2.99m-65.025 2.39L165 285.4l1.3-1.175c1.212-1.095 1.484-1.425 1.175-1.425-.069 0-.654.585-1.3 1.3m78.007 10.4c3.09 3.135 5.699 5.649 5.799 5.586.208-.131-10.856-11.286-11.194-11.286-.123 0 2.305 2.565 5.395 5.7m7.018 7.21c0 .061 1.395 1.456 3.1 3.1l3.1 2.99-2.99-3.1c-2.777-2.879-3.21-3.283-3.21-2.99m-106.213 3.59-2.387 2.5 2.5-2.387c1.375-1.314 2.5-2.439 2.5-2.5 0-.296-.395.065-2.613 2.387m119.195 9.2c3.09 3.135 5.699 5.649 5.799 5.586.208-.131-10.856-11.286-11.194-11.286-.123 0 2.305 2.565 5.395 5.7m7.018 7.21c0 .061 1.395 1.456 3.1 3.1l3.1 2.99-2.99-3.1c-2.777-2.879-3.21-3.283-3.21-2.99m-146.213 3.59-2.387 2.5 2.5-2.387c1.375-1.314 2.5-2.439 2.5-2.5 0-.296-.395.065-2.613 2.387m159.195 9.2c3.09 3.135 5.699 5.649 5.799 5.586.208-.131-10.856-11.286-11.194-11.286-.123 0 2.305 2.565 5.395 5.7m7.018 7.21c0 .061 1.395 1.456 3.1 3.1l3.1 2.99-2.99-3.1c-2.777-2.879-3.21-3.283-3.21-2.99m-186.213 3.59-2.387 2.5 2.5-2.387c2.322-2.218 2.683-2.613 2.387-2.613-.061 0-1.186 1.125-2.5 2.5M4.833 355.898c7.674 7.876 32.307 32.455 38.772 38.688 3.187 3.072-5.274-5.523-18.804-19.1C11.272 361.908.127 350.8.034 350.8c-.092 0 2.067 2.294 4.799 5.098m300.375-.498c2.526 2.64 4.674 4.748 4.774 4.684.101-.063-1.966-2.223-4.591-4.8l-4.774-4.684zm69.991 20.084c-13.53 13.576-22.259 22.443-19.399 19.703 9.625-9.219 44.617-44.387 44.166-44.387-.093 0-11.238 11.108-24.767 24.684M311.2 361.71c0 .061 1.395 1.456 3.1 3.1l3.1 2.99-2.99-3.1c-2.777-2.879-3.21-3.283-3.21-2.99M84.987 365.3l-2.387 2.5 2.5-2.387c2.322-2.218 2.683-2.613 2.387-2.613-.061 0-1.186 1.125-2.5 2.5m239.195 9.2c3.09 3.135 5.699 5.649 5.799 5.586.208-.131-10.856-11.286-11.194-11.286-.123 0 2.305 2.565 5.395 5.7m7.018 7.21c0 .061 1.395 1.456 3.1 3.1l3.1 2.99-2.99-3.1c-2.777-2.879-3.21-3.283-3.21-2.99M64.987 385.3l-2.387 2.5 2.5-2.387c2.322-2.218 2.683-2.613 2.387-2.613-.061 0-1.186 1.125-2.5 2.5m273.46 3.6c.099.055 2.694 2.53 5.767 5.5l5.586 5.4-5.394-5.5c-2.967-3.025-5.562-5.5-5.767-5.5s-.291.045-.192.1" fill="#bdbdbd"/><path d="M43.795 5.7 38.2 11.4l5.7-5.595c3.135-3.077 5.7-5.642 5.7-5.7 0-.286-.608.3-5.805 5.595M124.9 75.015l75.1 75.184L274.9 75.3C316.096 34.105 349.981.4 350.202.4c.522 0 49.398 48.878 49.398 49.401 0 .219-33.705 34.103-74.9 75.299L249.801 200l74.899 74.9c41.195 41.196 74.9 75.081 74.9 75.302 0 .515-48.802 49.242-49.6 49.523-.532.188-.532.215.001.243.685.036 49.999-49.12 49.999-49.839 0-.257-33.682-34.151-74.848-75.32l-74.849-74.852 74.734-74.734c41.103-41.104 74.807-74.956 74.898-75.228.212-.636-49.161-50.044-49.867-49.902-.293.059-34.173 33.748-75.288 74.864l-74.754 74.757-69.337-69.357C92.554 42.211 58.753 8.487 55.576 5.415s28.019 28.248 69.324 69.6M24.595 24.9 18.2 31.4l6.5-6.395c6.039-5.942 6.681-6.605 6.395-6.605-.057 0-2.982 2.925-6.5 6.5M5.414 43.986c-3.066 3.072-5.494 5.637-5.395 5.7.1.063 2.694-2.451 5.766-5.586 3.071-3.135 5.499-5.7 5.394-5.7-.104 0-2.699 2.514-5.765 5.586M10 60.065c0 .337 8.472 8.796 8.641 8.627.073-.073-1.842-2.1-4.254-4.505C11.974 61.782 10 59.927 10 60.065m20 20c0 .337 8.472 8.796 8.641 8.627.073-.073-1.842-2.1-4.254-4.505C31.974 81.782 30 79.927 30 80.065m20 20c0 .337 8.472 8.796 8.641 8.627.073-.073-1.842-2.1-4.254-4.505-2.413-2.405-4.387-4.26-4.387-4.122m20 20c0 .337 8.472 8.796 8.641 8.627.073-.073-1.842-2.1-4.254-4.505-2.413-2.405-4.387-4.26-4.387-4.122m20 20c0 .337 8.472 8.796 8.641 8.627.073-.073-1.842-2.1-4.254-4.505-2.413-2.405-4.387-4.26-4.387-4.122m20 20c0 .337 8.472 8.796 8.641 8.627.073-.073-1.842-2.1-4.254-4.505-2.413-2.405-4.387-4.26-4.387-4.122m20 20c0 .337 8.472 8.796 8.641 8.627.073-.073-1.842-2.1-4.254-4.505-2.413-2.405-4.387-4.26-4.387-4.122m-55.015 94.691C33.869 315.871.156 349.733.065 350.005c-.211.634 49.16 50.045 49.863 49.902.488-.099 131.291-130.632 144.405-144.107 3.211-3.3-27.905 27.705-69.147 68.9-41.243 41.195-75.166 74.9-75.385 74.9C49.278 399.6.4 350.724.4 350.202c0-.221 33.705-34.106 74.9-75.302 41.194-41.195 74.796-74.9 74.669-74.9-.126 0-33.869 33.64-74.984 74.756M210 260.065c0 .337 8.472 8.796 8.641 8.627.073-.073-1.842-2.1-4.254-4.505-2.413-2.405-4.387-4.26-4.387-4.122m20 20c0 .337 8.472 8.796 8.641 8.627.073-.073-1.842-2.1-4.254-4.505-2.413-2.405-4.387-4.26-4.387-4.122m20 20c0 .337 8.472 8.796 8.641 8.627.073-.073-1.842-2.1-4.254-4.505-2.413-2.405-4.387-4.26-4.387-4.122m20 20c0 .337 8.472 8.796 8.641 8.627.073-.073-1.842-2.1-4.254-4.505-2.413-2.405-4.387-4.26-4.387-4.122m20 20c0 .337 8.472 8.796 8.641 8.627.073-.073-1.842-2.1-4.254-4.505-2.413-2.405-4.387-4.26-4.387-4.122m20 20c0 .337 8.472 8.796 8.641 8.627.073-.073-1.842-2.1-4.254-4.505-2.413-2.405-4.387-4.26-4.387-4.122m20 20c0 .337 8.472 8.796 8.641 8.627.073-.073-1.842-2.1-4.254-4.505-2.413-2.405-4.387-4.26-4.387-4.122" fill="#a4a4a4"/><path d="m334.995 15.3-6.395 6.5 6.5-6.395c3.575-3.518 6.5-6.443 6.5-6.5 0-.286-.663.356-6.605 6.395M64 14.6c2.523 2.53 4.677 4.6 4.787 4.6s-1.864-2.07-4.387-4.6-4.677-4.6-4.787-4.6 1.864 2.07 4.387 4.6m250.995 20.7-6.395 6.5 6.5-6.395c6.039-5.942 6.681-6.605 6.395-6.605-.057 0-2.982 2.925-6.5 6.5M84 34.6c2.523 2.53 4.677 4.6 4.787 4.6s-1.864-2.07-4.387-4.6-4.677-4.6-4.787-4.6 1.864 2.07 4.387 4.6m210.995 20.7-6.395 6.5 6.5-6.395c6.039-5.942 6.681-6.605 6.395-6.605-.057 0-2.982 2.925-6.5 6.5M103.8 54.4c2.633 2.64 4.877 4.8 4.987 4.8s-1.954-2.16-4.587-4.8-4.877-4.8-4.987-4.8 1.954 2.16 4.587 4.8m-89.4 9.8c3.184 3.19 5.88 5.8 5.99 5.8s-2.406-2.61-5.59-5.8-5.88-5.8-5.99-5.8 2.406 2.61 5.59 5.8m370.189.7-2.789 2.9 2.9-2.789c1.595-1.534 2.9-2.839 2.9-2.9 0-.294-.42.095-3.011 2.789M274.995 75.3l-6.395 6.5 6.5-6.395c3.575-3.518 6.5-6.443 6.5-6.5 0-.286-.663.356-6.605 6.395M124 74.6c2.523 2.53 4.677 4.6 4.787 4.6s-1.864-2.07-4.387-4.6-4.677-4.6-4.787-4.6 1.864 2.07 4.387 4.6m-89.6 9.6c3.184 3.19 5.88 5.8 5.99 5.8s-2.406-2.61-5.59-5.8-5.88-5.8-5.99-5.8 2.406 2.61 5.59 5.8m330.189.7-2.789 2.9 2.9-2.789c1.595-1.534 2.9-2.839 2.9-2.9 0-.294-.42.095-3.011 2.789M254.995 95.3l-6.395 6.5 6.5-6.395c3.575-3.518 6.5-6.443 6.5-6.5 0-.286-.663.356-6.605 6.395M144 94.6c2.523 2.53 4.677 4.6 4.787 4.6s-1.864-2.07-4.387-4.6-4.677-4.6-4.787-4.6 1.864 2.07 4.387 4.6m-89.6 9.6c3.184 3.19 5.88 5.8 5.99 5.8s-2.406-2.61-5.59-5.8-5.88-5.8-5.99-5.8 2.406 2.61 5.59 5.8m290.189.7-2.789 2.9 2.9-2.789c1.595-1.534 2.9-2.839 2.9-2.9 0-.294-.42.095-3.011 2.789m-109.594 10.4-6.395 6.5 6.5-6.395c6.039-5.942 6.681-6.605 6.395-6.605-.057 0-2.982 2.925-6.5 6.5M164 114.6c2.523 2.53 4.677 4.6 4.787 4.6s-1.864-2.07-4.387-4.6-4.677-4.6-4.787-4.6 1.864 2.07 4.387 4.6m-89.6 9.6c3.184 3.19 5.88 5.8 5.99 5.8s-2.406-2.61-5.59-5.8-5.88-5.8-5.99-5.8 2.406 2.61 5.59 5.8m250.189.7-2.789 2.9 2.9-2.789c1.595-1.534 2.9-2.839 2.9-2.9 0-.294-.42.095-3.011 2.789m-109.594 10.4-6.395 6.5 6.5-6.395c6.039-5.942 6.681-6.605 6.395-6.605-.057 0-2.982 2.925-6.5 6.5M184 134.6c2.523 2.53 4.677 4.6 4.787 4.6s-1.864-2.07-4.387-4.6-4.677-4.6-4.787-4.6 1.864 2.07 4.387 4.6m-89.6 9.6c3.184 3.19 5.88 5.8 5.99 5.8s-2.406-2.61-5.59-5.8-5.88-5.8-5.99-5.8 2.406 2.61 5.59 5.8m210.189.7-2.789 2.9 2.9-2.789c1.595-1.534 2.9-2.839 2.9-2.9 0-.294-.42.095-3.011 2.789M114.4 164.2c3.184 3.19 5.88 5.8 5.99 5.8s-2.406-2.61-5.59-5.8-5.88-5.8-5.99-5.8 2.406 2.61 5.59 5.8m170.189.7-2.789 2.9 2.9-2.789c1.595-1.534 2.9-2.839 2.9-2.9 0-.294-.42.095-3.011 2.789M134.4 184.2c3.184 3.19 5.88 5.8 5.99 5.8s-2.406-2.61-5.59-5.8-5.88-5.8-5.99-5.8 2.406 2.61 5.59 5.8m130.189.7-2.789 2.9 2.9-2.789c1.595-1.534 2.9-2.839 2.9-2.9 0-.294-.42.095-3.011 2.789m-115.212 14.2c.729.879.729.921 0 1.8l-.747.9.974-.9.974-.9-.974-.9-.974-.9zm-14.382 16.2-6.395 6.5 6.5-6.395c3.575-3.518 6.5-6.443 6.5-6.5 0-.286-.663.356-6.605 6.395M264 214.6c2.523 2.53 4.677 4.6 4.787 4.6s-1.864-2.07-4.387-4.6-4.677-4.6-4.787-4.6 1.864 2.07 4.387 4.6m-149.005 20.7-6.395 6.5 6.5-6.395c3.575-3.518 6.5-6.443 6.5-6.5 0-.286-.663.356-6.605 6.395M284 234.6c2.523 2.53 4.677 4.6 4.787 4.6s-1.864-2.07-4.387-4.6-4.677-4.6-4.787-4.6 1.864 2.07 4.387 4.6M94.995 255.3l-6.395 6.5 6.5-6.395c3.575-3.518 6.5-6.443 6.5-6.5 0-.286-.663.356-6.605 6.395m208.805-.9c2.633 2.64 4.877 4.8 4.987 4.8s-1.954-2.16-4.587-4.8-4.877-4.8-4.987-4.8 1.954 2.16 4.587 4.8m-89.4 9.8c3.184 3.19 5.88 5.8 5.99 5.8s-2.406-2.61-5.59-5.8-5.88-5.8-5.99-5.8 2.406 2.61 5.59 5.8m-29.811.7-2.789 2.9 2.9-2.789c2.694-2.591 3.083-3.011 2.789-3.011-.061 0-1.366 1.305-2.9 2.9M74.995 275.3l-6.395 6.5 6.5-6.395c3.575-3.518 6.5-6.443 6.5-6.5 0-.286-.663.356-6.605 6.395M324 274.6c2.523 2.53 4.677 4.6 4.787 4.6s-1.864-2.07-4.387-4.6-4.677-4.6-4.787-4.6 1.864 2.07 4.387 4.6m-89.6 9.6c3.184 3.19 5.88 5.8 5.99 5.8s-2.406-2.61-5.59-5.8-5.88-5.8-5.99-5.8 2.406 2.61 5.59 5.8m-69.811.7-2.789 2.9 2.9-2.789c2.694-2.591 3.083-3.011 2.789-3.011-.061 0-1.366 1.305-2.9 2.9M54.995 295.3l-6.395 6.5 6.5-6.395c3.575-3.518 6.5-6.443 6.5-6.5 0-.286-.663.356-6.605 6.395M344 294.6c2.523 2.53 4.677 4.6 4.787 4.6s-1.864-2.07-4.387-4.6-4.677-4.6-4.787-4.6 1.864 2.07 4.387 4.6m-89.6 9.6c3.184 3.19 5.88 5.8 5.99 5.8s-2.406-2.61-5.59-5.8-5.88-5.8-5.99-5.8 2.406 2.61 5.59 5.8m-109.811.7-2.789 2.9 2.9-2.789c2.694-2.591 3.083-3.011 2.789-3.011-.061 0-1.366 1.305-2.9 2.9M34.995 315.3l-6.395 6.5 6.5-6.395c3.575-3.518 6.5-6.443 6.5-6.5 0-.286-.663.356-6.605 6.395M364 314.6c2.523 2.53 4.677 4.6 4.787 4.6s-1.864-2.07-4.387-4.6-4.677-4.6-4.787-4.6 1.864 2.07 4.387 4.6m-89.6 9.6c3.184 3.19 5.88 5.8 5.99 5.8s-2.406-2.61-5.59-5.8-5.88-5.8-5.99-5.8 2.406 2.61 5.59 5.8m-149.811.7-2.789 2.9 2.9-2.789c2.694-2.591 3.083-3.011 2.789-3.011-.061 0-1.366 1.305-2.9 2.9M14.995 335.3 8.6 341.8l6.5-6.395c3.575-3.518 6.5-6.443 6.5-6.5 0-.286-.663.356-6.605 6.395M384 334.6c2.523 2.53 4.677 4.6 4.787 4.6s-1.864-2.07-4.387-4.6-4.677-4.6-4.787-4.6 1.864 2.07 4.387 4.6m-89.6 9.6c3.184 3.19 5.88 5.8 5.99 5.8s-2.406-2.61-5.59-5.8-5.88-5.8-5.99-5.8 2.406 2.61 5.59 5.8m-189.811.7-2.789 2.9 2.9-2.789c2.694-2.591 3.083-3.011 2.789-3.011-.061 0-1.366 1.305-2.9 2.9M314.4 364.2c3.184 3.19 5.88 5.8 5.99 5.8s-2.406-2.61-5.59-5.8-5.88-5.8-5.99-5.8 2.406 2.61 5.59 5.8m-229.811.7-2.789 2.9 2.9-2.789c2.694-2.591 3.083-3.011 2.789-3.011-.061 0-1.366 1.305-2.9 2.9M334.4 384.2c3.184 3.19 5.88 5.8 5.99 5.8s-2.406-2.61-5.59-5.8-5.88-5.8-5.99-5.8 2.406 2.61 5.59 5.8m-269.811.7-2.789 2.9 2.9-2.789c2.694-2.591 3.083-3.011 2.789-3.011-.061 0-1.366 1.305-2.9 2.9" fill="#5c5c5c"/><path d="M24.799 25.1.2 49.8l24.7-24.599C47.86 2.335 49.78.4 49.499.4c-.056 0-11.171 11.115-24.7 24.7M54.6 5.2c2.633 2.64 4.877 4.8 4.987 4.8S57.633 7.84 55 5.2 50.123.4 50.013.4s1.954 2.16 4.587 4.8m290.387.1L342.6 7.8l2.5-2.387c1.375-1.314 2.5-2.439 2.5-2.5 0-.296-.395.065-2.613 2.387M73.994 24.5c2.967 3.025 5.442 5.5 5.5 5.5.287 0-.285-.594-5.394-5.606L68.6 19zm250.993.8-2.387 2.5 2.5-2.387c2.322-2.218 2.683-2.613 2.387-2.613-.061 0-1.186 1.125-2.5 2.5M93.8 44.4c2.854 2.86 5.278 5.2 5.388 5.2s-2.134-2.34-4.988-5.2-5.278-5.2-5.388-5.2 2.134 2.34 4.988 5.2m211.187.9-2.387 2.5 2.5-2.387c1.375-1.314 2.5-2.439 2.5-2.5 0-.296-.395.065-2.613 2.387m89.613 9.5c-2.633 2.64-4.697 4.8-4.587 4.8s2.354-2.16 4.987-4.8 4.697-4.8 4.587-4.8-2.354 2.16-4.987 4.8m-393-3.49c0 .061 1.395 1.456 3.1 3.1l3.1 2.99-2.99-3.1c-2.777-2.879-3.21-3.283-3.21-2.99M113.994 64.5c5.012 5.109 5.606 5.681 5.606 5.394 0-.058-2.475-2.533-5.5-5.5L108.6 59zm170.993.8-2.387 2.5 2.5-2.387c1.375-1.314 2.5-2.439 2.5-2.5 0-.296-.395.065-2.613 2.387m89.613 9.5c-2.633 2.64-4.697 4.8-4.587 4.8s2.354-2.16 4.987-4.8 4.697-4.8 4.587-4.8-2.354 2.16-4.987 4.8m-353-3.49c0 .061 1.395 1.456 3.1 3.1l3.1 2.99-2.99-3.1c-2.777-2.879-3.21-3.283-3.21-2.99M133.994 84.5c5.012 5.109 5.606 5.681 5.606 5.394 0-.058-2.475-2.533-5.5-5.5L128.6 79zm130.993.8-2.387 2.5 2.5-2.387c1.375-1.314 2.5-2.439 2.5-2.5 0-.296-.395.065-2.613 2.387m89.613 9.5c-2.633 2.64-4.697 4.8-4.587 4.8s2.354-2.16 4.987-4.8 4.697-4.8 4.587-4.8-2.354 2.16-4.987 4.8m-313-3.49c0 .061 1.395 1.456 3.1 3.1l3.1 2.99-2.99-3.1c-2.777-2.879-3.21-3.283-3.21-2.99m112.394 13.19c5.012 5.109 5.606 5.681 5.606 5.394 0-.058-2.475-2.533-5.5-5.5L148.6 99zm90.993.8-2.387 2.5 2.5-2.387c1.375-1.314 2.5-2.439 2.5-2.5 0-.296-.395.065-2.613 2.387m89.613 9.5c-2.633 2.64-4.697 4.8-4.587 4.8s2.354-2.16 4.987-4.8 4.697-4.8 4.587-4.8-2.354 2.16-4.987 4.8m-273-3.49c0 .061 1.395 1.456 3.1 3.1l3.1 2.99-2.99-3.1c-2.777-2.879-3.21-3.283-3.21-2.99m112.394 13.19c5.012 5.109 5.606 5.681 5.606 5.394 0-.058-2.475-2.533-5.5-5.5L168.6 119zm50.993.8-2.387 2.5 2.5-2.387c1.375-1.314 2.5-2.439 2.5-2.5 0-.296-.395.065-2.613 2.387m89.613 9.5c-2.633 2.64-4.697 4.8-4.587 4.8s2.354-2.16 4.987-4.8 4.697-4.8 4.587-4.8-2.354 2.16-4.987 4.8m-233-3.49c0 .061 1.395 1.456 3.1 3.1l3.1 2.99-2.99-3.1c-2.777-2.879-3.21-3.283-3.21-2.99m112.394 13.19c2.967 3.025 5.442 5.5 5.5 5.5.287 0-.285-.594-5.394-5.606L188.6 139zm10.993.8-2.387 2.5 2.5-2.387c1.375-1.314 2.5-2.439 2.5-2.5 0-.296-.395.065-2.613 2.387m89.613 9.5c-2.633 2.64-4.697 4.8-4.587 4.8s2.354-2.16 4.987-4.8 4.697-4.8 4.587-4.8-2.354 2.16-4.987 4.8m-193-3.49c0 .061 1.395 1.456 3.1 3.1l3.1 2.99-2.99-3.1c-2.777-2.879-3.21-3.283-3.21-2.99m173 23.49c-2.633 2.64-4.697 4.8-4.587 4.8s2.354-2.16 4.987-4.8 4.697-4.8 4.587-4.8-2.354 2.16-4.987 4.8m-153-3.49c0 .061 1.395 1.456 3.1 3.1l3.1 2.99-2.99-3.1c-2.777-2.879-3.21-3.283-3.21-2.99m133 23.49c-2.633 2.64-4.697 4.8-4.587 4.8s2.354-2.16 4.987-4.8 4.697-4.8 4.587-4.8-2.354 2.16-4.987 4.8m-113-3.49c0 .061 1.395 1.456 3.1 3.1l3.1 2.99-2.99-3.1c-2.777-2.879-3.21-3.283-3.21-2.99M254.4 205c2.743 2.75 5.078 5 5.188 5s-2.045-2.25-4.788-5-5.078-5-5.188-5 2.045 2.25 4.788 5m-109.413.3-2.387 2.5 2.5-2.387c2.322-2.218 2.683-2.613 2.387-2.613-.061 0-1.186 1.125-2.5 2.5m129.007 19.2c5.012 5.109 5.606 5.681 5.606 5.394 0-.058-2.475-2.533-5.5-5.5L268.6 219zm-149.007.8-2.387 2.5 2.5-2.387c1.375-1.314 2.5-2.439 2.5-2.5 0-.296-.395.065-2.613 2.387M293.8 244.4c2.854 2.86 5.278 5.2 5.388 5.2s-2.134-2.34-4.988-5.2-5.278-5.2-5.388-5.2 2.134 2.34 4.988 5.2m-188.813.9-2.387 2.5 2.5-2.387c2.322-2.218 2.683-2.613 2.387-2.613-.061 0-1.186 1.125-2.5 2.5m89.613 9.5c-2.633 2.64-4.697 4.8-4.587 4.8s2.354-2.16 4.987-4.8 4.697-4.8 4.587-4.8-2.354 2.16-4.987 4.8m7-3.49c0 .061 1.395 1.456 3.1 3.1l3.1 2.99-2.99-3.1c-2.777-2.879-3.21-3.283-3.21-2.99m112.394 13.19c5.012 5.109 5.606 5.681 5.606 5.394 0-.058-2.475-2.533-5.5-5.5L308.6 259zm-229.007.8-2.387 2.5 2.5-2.387c2.322-2.218 2.683-2.613 2.387-2.613-.061 0-1.186 1.125-2.5 2.5m89.613 9.5c-2.633 2.64-4.697 4.8-4.587 4.8s2.354-2.16 4.987-4.8 4.697-4.8 4.587-4.8-2.354 2.16-4.987 4.8m47-3.49c0 .061 1.395 1.456 3.1 3.1l3.1 2.99-2.99-3.1c-2.777-2.879-3.21-3.283-3.21-2.99m112.394 13.19c5.012 5.109 5.606 5.681 5.606 5.394 0-.058-2.475-2.533-5.5-5.5L328.6 279zm-269.007.8-2.387 2.5 2.5-2.387c2.322-2.218 2.683-2.613 2.387-2.613-.061 0-1.186 1.125-2.5 2.5m89.613 9.5c-2.633 2.64-4.697 4.8-4.587 4.8s2.354-2.16 4.987-4.8 4.697-4.8 4.587-4.8-2.354 2.16-4.987 4.8m87-3.49c0 .061 1.395 1.456 3.1 3.1l3.1 2.99-2.99-3.1c-2.777-2.879-3.21-3.283-3.21-2.99m112.394 13.19c5.012 5.109 5.606 5.681 5.606 5.394 0-.058-2.475-2.533-5.5-5.5L348.6 299zm-309.007.8-2.387 2.5 2.5-2.387c2.322-2.218 2.683-2.613 2.387-2.613-.061 0-1.186 1.125-2.5 2.5m89.613 9.5c-2.633 2.64-4.697 4.8-4.587 4.8s2.354-2.16 4.987-4.8 4.697-4.8 4.587-4.8-2.354 2.16-4.987 4.8m127-3.49c0 .061 1.395 1.456 3.1 3.1l3.1 2.99-2.99-3.1c-2.777-2.879-3.21-3.283-3.21-2.99m112.394 13.19c5.012 5.109 5.606 5.681 5.606 5.394 0-.058-2.475-2.533-5.5-5.5L368.6 319zm-349.007.8-2.387 2.5 2.5-2.387c2.322-2.218 2.683-2.613 2.387-2.613-.061 0-1.186 1.125-2.5 2.5m89.613 9.5c-2.633 2.64-4.697 4.8-4.587 4.8s2.354-2.16 4.987-4.8 4.697-4.8 4.587-4.8-2.354 2.16-4.987 4.8m167-3.49c0 .061 1.395 1.456 3.1 3.1l3.1 2.99-2.99-3.1c-2.777-2.879-3.21-3.283-3.21-2.99m112.394 13.19c5.012 5.109 5.606 5.681 5.606 5.394 0-.058-2.475-2.533-5.5-5.5L388.6 339zm-389.007.8L2.6 347.8l2.5-2.387c2.322-2.218 2.683-2.613 2.387-2.613-.061 0-1.186 1.125-2.5 2.5m89.613 9.5c-2.633 2.64-4.697 4.8-4.587 4.8s2.354-2.16 4.987-4.8 4.697-4.8 4.587-4.8-2.354 2.16-4.987 4.8M24.8 375c13.529 13.53 24.688 24.6 24.798 24.6S38.729 388.53 25.2 375 .512 350.4.402 350.4 11.271 361.47 24.8 375m276.8-23.69c0 .061 1.395 1.456 3.1 3.1l3.1 2.99-2.99-3.1c-2.777-2.879-3.21-3.283-3.21-2.99m-227 23.49c-2.633 2.64-4.697 4.8-4.587 4.8s2.354-2.16 4.987-4.8 4.697-4.8 4.587-4.8-2.354 2.16-4.987 4.8m247-3.49c0 .061 1.395 1.456 3.1 3.1l3.1 2.99-2.99-3.1c-2.777-2.879-3.21-3.283-3.21-2.99m-267 23.49c-2.633 2.64-4.697 4.8-4.587 4.8s2.354-2.16 4.987-4.8 4.697-4.8 4.587-4.8-2.354 2.16-4.987 4.8m287-3.49c0 .061 1.395 1.456 3.1 3.1l3.1 2.99-2.99-3.1c-2.777-2.879-3.21-3.283-3.21-2.99" fill="#545454"/><path d="M25.1 25.1.4 49.799 75.5 124.9l75.099 75.1L75.5 275.1.4 350.201 25.1 374.9l24.699 24.7 75.101-75.1 75.1-75.099 75.196 75.195 75.196 75.195 24.699-24.7 24.7-24.699-75.195-75.196L249.401 200l75.199-75.2 75.199-75.2L375.1 24.9 350.4.201 275.2 75.4 200 150.599 124.9 75.5 49.799.4z" fill="#040404"/></g></svg>