<?xml version="1.0" ?>

<!-- Uploaded to: SVG Repo, www.svgrepo.com, Generator: SVG Repo Mixer Tools -->
<svg fill="#E62B1E" width="800px" height="800px" viewBox="0 0 64 64" id="Layer_1" version="1.1" xml:space="preserve" xmlns="http://www.w3.org/2000/svg" xmlns:xlink="http://www.w3.org/1999/xlink">

<style type="text/css">
	.st0{fill:none;stroke:#E62B1E;stroke-width:2;stroke-miterlimit:10;}
	.st1{fill:none;stroke:#E62B1E;stroke-width:2;stroke-linecap:round;stroke-linejoin:round;stroke-miterlimit:10;}
	
		.st2{fill:none;stroke:#E62B1E;stroke-width:2;stroke-linecap:round;stroke-linejoin:round;stroke-miterlimit:10;stroke-dasharray:6,5;}
</style>

<g>

<line class="st1" x1="12" x2="52" y1="12" y2="12"/>

<path class="st1" d="M47,38H17c-1.7,0-3-1.3-3-3V12h36v23C50,36.7,48.7,38,47,38z"/>

<circle class="st1" cx="32" cy="50" r="2"/>

<line class="st1" x1="32" x2="32" y1="48" y2="38"/>

</g>

<path class="st1" d="M38.2,27.6c-0.5,1.1-1.2,2.1-2.2,2.9"/>

<g>

<g>

<path class="st1" d="M34.4,33.6c0,0.2-0.2,0.4-0.4,0.4h-4c-0.2,0-0.4-0.2-0.4-0.4c0-0.6,0.2-1.1,0.6-1.5c0-0.1,0.1-0.1,0.2-0.2    c0.4-0.4,1-0.7,1.7-0.7c0.7,0,1.3,0.3,1.7,0.7c0.1,0.1,0.1,0.1,0.2,0.2C34.2,32.5,34.4,33,34.4,33.6z"/>

<circle class="st1" cx="32" cy="27.5" r="1.6"/>

</g>

<g>

<path class="st1" d="M41.7,24.7c0,0.2-0.2,0.4-0.4,0.4h-4c-0.2,0-0.4-0.2-0.4-0.4c0-0.6,0.2-1.1,0.6-1.5c0-0.1,0.1-0.1,0.2-0.2    c0.4-0.4,1-0.7,1.7-0.7c0.7,0,1.3,0.3,1.7,0.7c0.1,0.1,0.1,0.1,0.2,0.2C41.5,23.6,41.7,24.1,41.7,24.7z"/>

<circle class="st1" cx="39.3" cy="18.6" r="1.6"/>

</g>

<g>

<path class="st1" d="M27.1,24.7c0,0.2-0.2,0.4-0.4,0.4h-4c-0.2,0-0.4-0.2-0.4-0.4c0-0.6,0.2-1.1,0.6-1.5c0-0.1,0.1-0.1,0.2-0.2    c0.4-0.4,1-0.7,1.7-0.7c0.7,0,1.3,0.3,1.7,0.7c0.1,0.1,0.1,0.1,0.2,0.2C26.9,23.6,27.1,24.1,27.1,24.7z"/>

<circle class="st1" cx="24.7" cy="18.6" r="1.6"/>

</g>

<path class="st1" d="M28.2,30.3c-1-0.7-1.7-1.7-2.2-2.8"/>

<path class="st1" d="M28.9,19.4c0.9-0.5,2-0.8,3.1-0.8c1.1,0,2.2,0.3,3.1,0.8"/>

</g>

</svg>