<?xml version="1.0" encoding="utf-8"?>
<!-- Uploaded to: SVG Repo, www.svgrepo.com, Generator: SVG Repo Mixer Tools -->
<svg fill="#E62B1E" height="800px" width="800px" version="1.1" id="Layer_1" xmlns="http://www.w3.org/2000/svg" xmlns:xlink="http://www.w3.org/1999/xlink" 
	 viewBox="0 0 256 256" xml:space="preserve">
<g>
	<circle cx="142" cy="25.9" r="24.8"/>
	<path d="M182.8,45c-10.6,0-19.3,9.4-19.3,20.9c0,5.9,2.2,11.2,5.8,15c3.2,3.4,7.6,9.1,12.4,9.8v27.2L143,100l-15.5-42.5
		c-0.9-2.2-2.2-4.3-4-6.2c-1.6-1.6-7.1-7.1-8.7-8.7c-7.1-7.1-18.9-7.1-26.4,0L33.8,97.2c-3.7,3.7-5.6,8.4-5.6,13.3v128.8
		c0,8.7,6.8,15.5,15.5,15.5c8.7,0,15.5-6.8,15.5-15.5V137.6c3.4-0.6,6.8-2.5,9.6-5l46.2-46.2l9.3,25.5c0.9,2.8,3.1,5,5.6,6.2
		l45,21.1c5.6,2.5,11.8,0.3,14.6-5.3c2.2-5.9,0-12.4-5.6-14.9l-0.1-0.1V90.7c4.9-0.7,9.3-6.5,12.6-10c3.5-3.8,5.6-9,5.6-14.8
		C202.1,54.3,193.5,45,182.8,45z"/>
	<circle cx="219.2" cy="115.2" r="14.9"/>
	<path d="M219.5,135.7h-0.6c-9.7,0-17.5,7.9-17.5,17.5v30c0,5.5,2.5,10.3,6.4,13.5c-0.6,1.4-0.9,3-0.9,4.7v41.1
		c0,6.8,5.5,12.4,12.4,12.4c6.8,0,12.4-5.5,12.4-12.4v-41.1c0-1.7-0.3-3.2-0.9-4.7c3.9-3.2,6.4-8.1,6.4-13.5v-30
		C237,143.6,229.2,135.7,219.5,135.7z"/>
</g>
</svg>