<?xml version="1.0" encoding="utf-8"?>
<!-- Generator: Adobe Illustrator 24.1.2, SVG Export Plug-In . SVG Version: 6.00 Build 0)  -->
<svg version="1.1" id="Capa_1" xmlns="http://www.w3.org/2000/svg" xmlns:xlink="http://www.w3.org/1999/xlink" x="0px" y="0px"
	 viewBox="0 0 387.3 174.9" style="enable-background:new 0 0 387.3 174.9;" xml:space="preserve">
<style type="text/css">
	.st0{opacity:0.25;}
	.st1{fill:#504F4F;}
	.st2{fill:#828282;}
	.st3{fill:#333333;}
	.st4{fill:#CDCCCC;}
</style>
<g class="st0">
	<path class="st1" d="M231.5,155c-3.9,0-7,3.1-7,7s3.1,7,7,7V155z M335.5,169c3.9,0,7-3.1,7-7s-3.1-7-7-7V169z M231.5,169h104v-14
		h-104V169z"/>
	<path class="st2" d="M35.5,35c-3.9,0-7,3.1-7,7s3.1,7,7,7V35z M250.5,49c3.9,0,7-3.1,7-7s-3.1-7-7-7V49z M35.5,49h215V35h-215V49z"
		/>
	<path class="st3" d="M50.5,155c-3.9,0-7,3.1-7,7s3.1,7,7,7V155z M99.5,169c3.9,0,7-3.1,7-7s-3.1-7-7-7V169z M50.5,169h49v-14h-49
		V169z"/>
	<path class="st4" d="M187.5,5c-3.9,0-7,3.1-7,7c0,3.9,3.1,7,7,7V5z M274.5,19c3.9,0,7-3.1,7-7c0-3.9-3.1-7-7-7V19z M187.5,19h87V5
		l-87,0V19z"/>
	<path class="st3" d="M267.5,65c-3.9,0-7,3.1-7,7c0,3.9,3.1,7,7,7V65z M333.5,79c3.9,0,7-3.1,7-7c0-3.9-3.1-7-7-7V79z M267.5,79h66
		V65h-66V79z"/>
	<path class="st4" d="M14.5,95c-3.9,0-7,3.1-7,7c0,3.9,3.1,7,7,7V95z M144.5,109c3.9,0,7-3.1,7-7c0-3.9-3.1-7-7-7V109z M14.5,109
		h130V95h-130V109z"/>
	<path class="st4" d="M110.5,125c-3.9,0-7,3.1-7,7s3.1,7,7,7V125z M200.5,139c3.9,0,7-3.1,7-7s-3.1-7-7-7V139z M110.5,139h90v-14
		h-90V139z"/>
	<path class="st4" d="M70.5,65c-3.9,0-7,3.1-7,7c0,3.9,3.1,7,7,7V65z M208.5,79c3.9,0,7-3.1,7-7c0-3.9-3.1-7-7-7V79z M70.5,79h138
		V65h-138V79z"/>
	<path class="st4" d="M168.5,95c-3.9,0-7,3.1-7,7c0,3.9,3.1,7,7,7V95z M372.5,109c3.9,0,7-3.1,7-7c0-3.9-3.1-7-7-7V109z M168.5,109
		h204V95h-204V109z"/>
	<path class="st2" d="M200.5,125c-3.9,0-7,3.1-7,7s3.1,7,7,7V125z M267.5,139c3.9,0,7-3.1,7-7s-3.1-7-7-7V139z M200.5,139h67v-14
		h-67V139z"/>
	<circle class="st3" cx="110.5" cy="132" r="6"/>
	<circle class="st2" cx="231.5" cy="162" r="6"/>
	<circle class="st3" cx="238.5" cy="72" r="7"/>
	<circle class="st2" cx="14.5" cy="102" r="6"/>
	<circle class="st1" cx="310.5" cy="132" r="7"/>
	<circle class="st3" cx="70.5" cy="72" r="6"/>
</g>
</svg>
