<?xml version="1.0" encoding="utf-8"?>
<!-- Generator: Adobe Illustrator 24.1.2, SVG Export Plug-In . SVG Version: 6.00 Build 0)  -->
<svg version="1.1" id="Capa_1" xmlns="http://www.w3.org/2000/svg" xmlns:xlink="http://www.w3.org/1999/xlink" x="0px" y="0px"
	 viewBox="0 0 355.3 179.9" style="enable-background:new 0 0 355.3 179.9;" xml:space="preserve">
<style type="text/css">
	.st0{fill:none;stroke:#000000;stroke-width:6;}
	.st1{fill:none;stroke:#FFFFFF;stroke-width:2;}
	.st2{fill:none;stroke:#000000;stroke-width:2;}
	.st3{fill:#F5003C;}
</style>
<circle class="st0" cx="254" cy="90.2" r="83"/>
<circle class="st1" cx="253.9" cy="89.3" r="83.5"/>
<circle class="st2" cx="253.6" cy="90.3" r="59"/>
<path class="st3" d="M247.3,82.9l-14.3,1.4l-1.2-13l44.4-4.2l1.2,13l-14.3,1.4l3.6,38.1l-15.8,1.5L247.3,82.9z"/>
<path class="st2" d="M21.3,156.4c13-1.4,12-9.9,25-11.4c13-1.4,13.9,7,26.9,5.6c13-1.4,12-9.9,25-11.4c13-1.4,13.9,7,26.9,5.6
	c13-1.4,12-9.9,25-11.4s13.9,7,26.9,5.6c13-1.4,12-9.9,25-11.4c13-1.4,13.9,7,26.9,5.6"/>
<path class="st2" d="M19.4,139.5c13-1.4,12-9.9,25-11.4c13-1.4,13.9,7,26.9,5.6s12-9.9,25-11.4c13-1.4,13.9,7,26.9,5.6
	c13-1.4,12-9.9,25-11.4c13-1.4,13.9,7,26.9,5.6c13-1.4,12-9.9,25-11.4c13-1.4,13.9,7,26.9,5.6"/>
<path class="st2" d="M17.5,122.5c13-1.4,12-9.9,25-11.4c13-1.4,13.9,7,26.9,5.6c13-1.4,12-9.9,25-11.4c13-1.4,13.9,7,26.9,5.6
	c13-1.4,12-9.9,25-11.4c13-1.4,13.9,7,26.9,5.6c13-1.4,12-9.9,25-11.4c13-1.4,13.9,7,26.9,5.6"/>
<path class="st2" d="M15.6,105.6c13-1.4,12-9.9,25-11.4s13.9,7,26.9,5.6c13-1.4,12-9.9,25-11.4s13.9,7,26.9,5.6
	c13-1.4,12-9.9,25-11.4c13-1.4,13.9,7,26.9,5.6c13-1.4,12-9.9,25-11.4s13.9,7,26.9,5.6"/>
<path class="st2" d="M13.8,88.6c13-1.4,12-9.9,25-11.4c13-1.4,13.9,7,26.9,5.6c13-1.4,12-9.9,25-11.4s13.9,7,26.9,5.6
	c13-1.4,12-9.9,25-11.4c13-1.4,13.9,7,26.9,5.6c13-1.4,12-9.9,25-11.4c13-1.4,13.9,7,26.9,5.6"/>
</svg>
